<?xml version="1.0" encoding="UTF-8" standalone="no"?>
<!DOCTYPE svg PUBLIC "-//W3C//DTD SVG 1.0//EN"
 "http://www.w3.org/TR/2001/REC-SVG-20010904/DTD/svg10.dtd" [
 <!ATTLIST svg xmlns:xlink CDATA #FIXED "http://www.w3.org/1999/xlink">
]>
<!-- Generated by Graphviz version 2.20.2 (Mon Mar 30 10:11:53 UTC 2009)
     For user: (adigiro) Anthony,,,, -->
<!-- Title: controllers_diagram Pages: 1 -->
<svg width="578pt" height="556pt"
 viewBox="0.00 0.00 578.00 556.00" xmlns="http://www.w3.org/2000/svg" xmlns:xlink="http://www.w3.org/1999/xlink">
<g id="graph0" class="graph" transform="scale(1 1) rotate(0) translate(4 552)">
<title>controllers_diagram</title>
<polygon style="fill:white;stroke:white;" points="-4,4 -4,-552 574,-552 574,4 -4,4"/>
<!-- AdministrationController -->
<g id="node1" class="node"><title>AdministrationController</title>
<polyline style="fill:none;stroke:black;" points="109,-144 271,-144 "/>
<path style="fill:none;stroke:black;" d="M271,-144C277,-144 283,-150 283,-156"/>
<polyline style="fill:none;stroke:black;" points="283,-156 283,-281 "/>
<path style="fill:none;stroke:black;" d="M283,-281C283,-287 277,-293 271,-293"/>
<polyline style="fill:none;stroke:black;" points="271,-293 109,-293 "/>
<path style="fill:none;stroke:black;" d="M109,-293C103,-293 97,-287 97,-281"/>
<polyline style="fill:none;stroke:black;" points="97,-281 97,-156 "/>
<path style="fill:none;stroke:black;" d="M97,-156C97,-150 103,-144 109,-144"/>
<text text-anchor="middle" x="190" y="-275.9" style="font-family:Times New Roman;font-size:14.00;">AdministrationController</text>
<polyline style="fill:none;stroke:black;" points="97,-268 283,-268 "/>
<text text-anchor="start" x="105" y="-251.4" style="font-family:Times New Roman;font-size:14.00;">list_audits</text>
<text text-anchor="start" x="105" y="-234.4" style="font-family:Times New Roman;font-size:14.00;">list_departments</text>
<text text-anchor="start" x="105" y="-217.4" style="font-family:Times New Roman;font-size:14.00;">list_roles</text>
<text text-anchor="start" x="105" y="-200.4" style="font-family:Times New Roman;font-size:14.00;">list_users</text>
<polyline style="fill:none;stroke:black;" points="97,-192 283,-192 "/>
<polyline style="fill:none;stroke:black;" points="97,-168 283,-168 "/>
</g>
<!-- UsersController -->
<g id="node2" class="node"><title>UsersController</title>
<polyline style="fill:none;stroke:black;" points="285,-304 384,-304 "/>
<path style="fill:none;stroke:black;" d="M384,-304C390,-304 396,-310 396,-316"/>
<polyline style="fill:none;stroke:black;" points="396,-316 396,-493 "/>
<path style="fill:none;stroke:black;" d="M396,-493C396,-499 390,-505 384,-505"/>
<polyline style="fill:none;stroke:black;" points="384,-505 285,-505 "/>
<path style="fill:none;stroke:black;" d="M285,-505C279,-505 273,-499 273,-493"/>
<polyline style="fill:none;stroke:black;" points="273,-493 273,-316 "/>
<path style="fill:none;stroke:black;" d="M273,-316C273,-310 279,-304 285,-304"/>
<text text-anchor="middle" x="334" y="-487.9" style="font-family:Times New Roman;font-size:14.00;">UsersController</text>
<polyline style="fill:none;stroke:black;" points="273,-480 396,-480 "/>
<text text-anchor="start" x="280.5" y="-462.9" style="font-family:Times New Roman;font-size:14.00;">activate</text>
<text text-anchor="start" x="280.5" y="-445.9" style="font-family:Times New Roman;font-size:14.00;">create</text>
<text text-anchor="start" x="280.5" y="-428.9" style="font-family:Times New Roman;font-size:14.00;">destroy</text>
<text text-anchor="start" x="280.5" y="-411.9" style="font-family:Times New Roman;font-size:14.00;">new</text>
<text text-anchor="start" x="280.5" y="-394.9" style="font-family:Times New Roman;font-size:14.00;">purge</text>
<text text-anchor="start" x="280.5" y="-377.9" style="font-family:Times New Roman;font-size:14.00;">suspend</text>
<text text-anchor="start" x="280.5" y="-360.9" style="font-family:Times New Roman;font-size:14.00;">unsuspend</text>
<polyline style="fill:none;stroke:black;" points="273,-353 396,-353 "/>
<text text-anchor="start" x="280.5" y="-335.9" style="font-family:Times New Roman;font-size:14.00;">find_user</text>
<polyline style="fill:none;stroke:black;" points="273,-328 396,-328 "/>
</g>
<!-- SharesController -->
<g id="node3" class="node"><title>SharesController</title>
<polyline style="fill:none;stroke:black;" points="381,-0 489,-0 "/>
<path style="fill:none;stroke:black;" d="M489,-0C495,-0 501,-6 501,-12"/>
<polyline style="fill:none;stroke:black;" points="501,-12 501,-85 "/>
<path style="fill:none;stroke:black;" d="M501,-85C501,-91 495,-97 489,-97"/>
<polyline style="fill:none;stroke:black;" points="489,-97 381,-97 "/>
<path style="fill:none;stroke:black;" d="M381,-97C375,-97 369,-91 369,-85"/>
<polyline style="fill:none;stroke:black;" points="369,-85 369,-12 "/>
<path style="fill:none;stroke:black;" d="M369,-12C369,-6 375,-0 381,-0"/>
<text text-anchor="middle" x="435" y="-79.9" style="font-family:Times New Roman;font-size:14.00;">SharesController</text>
<polyline style="fill:none;stroke:black;" points="369,-72 501,-72 "/>
<polyline style="fill:none;stroke:black;" points="369,-48 501,-48 "/>
<polyline style="fill:none;stroke:black;" points="369,-24 501,-24 "/>
</g>
<!-- EmployeeController -->
<g id="node4" class="node"><title>EmployeeController</title>
<polyline style="fill:none;stroke:black;" points="429,-240 557,-240 "/>
<path style="fill:none;stroke:black;" d="M557,-240C563,-240 569,-246 569,-252"/>
<polyline style="fill:none;stroke:black;" points="569,-252 569,-343 "/>
<path style="fill:none;stroke:black;" d="M569,-343C569,-349 563,-355 557,-355"/>
<polyline style="fill:none;stroke:black;" points="557,-355 429,-355 "/>
<path style="fill:none;stroke:black;" d="M429,-355C423,-355 417,-349 417,-343"/>
<polyline style="fill:none;stroke:black;" points="417,-343 417,-252 "/>
<path style="fill:none;stroke:black;" d="M417,-252C417,-246 423,-240 429,-240"/>
<text text-anchor="middle" x="493" y="-337.9" style="font-family:Times New Roman;font-size:14.00;">EmployeeController</text>
<polyline style="fill:none;stroke:black;" points="417,-330 569,-330 "/>
<text text-anchor="start" x="425" y="-313.4" style="font-family:Times New Roman;font-size:14.00;">list_documents</text>
<text text-anchor="start" x="425" y="-296.4" style="font-family:Times New Roman;font-size:14.00;">list_shares</text>
<polyline style="fill:none;stroke:black;" points="417,-288 569,-288 "/>
<polyline style="fill:none;stroke:black;" points="417,-264 569,-264 "/>
</g>
<!-- SessionsController -->
<g id="node5" class="node"><title>SessionsController</title>
<polyline style="fill:none;stroke:black;" points="125,-304 245,-304 "/>
<path style="fill:none;stroke:black;" d="M245,-304C251,-304 257,-310 257,-316"/>
<polyline style="fill:none;stroke:black;" points="257,-316 257,-425 "/>
<path style="fill:none;stroke:black;" d="M257,-425C257,-431 251,-437 245,-437"/>
<polyline style="fill:none;stroke:black;" points="245,-437 125,-437 "/>
<path style="fill:none;stroke:black;" d="M125,-437C119,-437 113,-431 113,-425"/>
<polyline style="fill:none;stroke:black;" points="113,-425 113,-316 "/>
<path style="fill:none;stroke:black;" d="M113,-316C113,-310 119,-304 125,-304"/>
<text text-anchor="middle" x="185" y="-419.9" style="font-family:Times New Roman;font-size:14.00;">SessionsController</text>
<polyline style="fill:none;stroke:black;" points="113,-412 257,-412 "/>
<text text-anchor="start" x="121" y="-394.9" style="font-family:Times New Roman;font-size:14.00;">create</text>
<text text-anchor="start" x="121" y="-377.9" style="font-family:Times New Roman;font-size:14.00;">destroy</text>
<text text-anchor="start" x="121" y="-360.9" style="font-family:Times New Roman;font-size:14.00;">new</text>
<polyline style="fill:none;stroke:black;" points="113,-353 257,-353 "/>
<text text-anchor="start" x="121" y="-335.9" style="font-family:Times New Roman;font-size:14.00;">note_failed_signin</text>
<polyline style="fill:none;stroke:black;" points="113,-328 257,-328 "/>
</g>
<!-- HomeController -->
<g id="node6" class="node"><title>HomeController</title>
<polyline style="fill:none;stroke:black;" points="141,-449 242,-449 "/>
<path style="fill:none;stroke:black;" d="M242,-449C248,-449 254,-455 254,-461"/>
<polyline style="fill:none;stroke:black;" points="254,-461 254,-535 "/>
<path style="fill:none;stroke:black;" d="M254,-535C254,-541 248,-547 242,-547"/>
<polyline style="fill:none;stroke:black;" points="242,-547 141,-547 "/>
<path style="fill:none;stroke:black;" d="M141,-547C135,-547 129,-541 129,-535"/>
<polyline style="fill:none;stroke:black;" points="129,-535 129,-461 "/>
<path style="fill:none;stroke:black;" d="M129,-461C129,-455 135,-449 141,-449"/>
<text text-anchor="middle" x="191" y="-529.9" style="font-family:Times New Roman;font-size:14.00;">HomeController</text>
<polyline style="fill:none;stroke:black;" points="129,-522 254,-522 "/>
<text text-anchor="start" x="136.5" y="-504.9" style="font-family:Times New Roman;font-size:14.00;">index</text>
<polyline style="fill:none;stroke:black;" points="129,-497 254,-497 "/>
<polyline style="fill:none;stroke:black;" points="129,-473 254,-473 "/>
</g>
<!-- ApplicationController -->
<g id="node7" class="node"><title>ApplicationController</title>
<polyline style="fill:none;stroke:black;" points="317,-113 454,-113 "/>
<path style="fill:none;stroke:black;" d="M454,-113C460,-113 466,-119 466,-125"/>
<polyline style="fill:none;stroke:black;" points="466,-125 466,-217 "/>
<path style="fill:none;stroke:black;" d="M466,-217C466,-223 460,-229 454,-229"/>
<polyline style="fill:none;stroke:black;" points="454,-229 317,-229 "/>
<path style="fill:none;stroke:black;" d="M317,-229C311,-229 305,-223 305,-217"/>
<polyline style="fill:none;stroke:black;" points="305,-217 305,-125 "/>
<path style="fill:none;stroke:black;" d="M305,-125C305,-119 311,-113 317,-113"/>
<text text-anchor="middle" x="385" y="-211.9" style="font-family:Times New Roman;font-size:14.00;">ApplicationController</text>
<polyline style="fill:none;stroke:black;" points="305,-204 466,-204 "/>
<text text-anchor="start" x="312.5" y="-187.4" style="font-family:Times New Roman;font-size:14.00;">role_requirements</text>
<text text-anchor="start" x="312.5" y="-170.4" style="font-family:Times New Roman;font-size:14.00;">role_requirements=</text>
<polyline style="fill:none;stroke:black;" points="305,-162 466,-162 "/>
<text text-anchor="start" x="312.5" y="-144.9" style="font-family:Times New Roman;font-size:14.00;">filter_parameters</text>
<polyline style="fill:none;stroke:black;" points="305,-137 466,-137 "/>
</g>
<!-- DocumentsController -->
<g id="node8" class="node"><title>DocumentsController</title>
<polyline style="fill:none;stroke:black;" points="205,-0 344,-0 "/>
<path style="fill:none;stroke:black;" d="M344,-0C350,-0 356,-6 356,-12"/>
<polyline style="fill:none;stroke:black;" points="356,-12 356,-85 "/>
<path style="fill:none;stroke:black;" d="M356,-85C356,-91 350,-97 344,-97"/>
<polyline style="fill:none;stroke:black;" points="344,-97 205,-97 "/>
<path style="fill:none;stroke:black;" d="M205,-97C199,-97 193,-91 193,-85"/>
<polyline style="fill:none;stroke:black;" points="193,-85 193,-12 "/>
<path style="fill:none;stroke:black;" d="M193,-12C193,-6 199,-0 205,-0"/>
<text text-anchor="middle" x="274" y="-79.9" style="font-family:Times New Roman;font-size:14.00;">DocumentsController</text>
<polyline style="fill:none;stroke:black;" points="193,-72 356,-72 "/>
<polyline style="fill:none;stroke:black;" points="193,-48 356,-48 "/>
<polyline style="fill:none;stroke:black;" points="193,-24 356,-24 "/>
</g>
<!-- AuditsController -->
<g id="node9" class="node"><title>AuditsController</title>
<polyline style="fill:none;stroke:black;" points="429,-368 534,-368 "/>
<path style="fill:none;stroke:black;" d="M534,-368C540,-368 546,-374 546,-380"/>
<polyline style="fill:none;stroke:black;" points="546,-380 546,-453 "/>
<path style="fill:none;stroke:black;" d="M546,-453C546,-459 540,-465 534,-465"/>
<polyline style="fill:none;stroke:black;" points="534,-465 429,-465 "/>
<path style="fill:none;stroke:black;" d="M429,-465C423,-465 417,-459 417,-453"/>
<polyline style="fill:none;stroke:black;" points="417,-453 417,-380 "/>
<path style="fill:none;stroke:black;" d="M417,-380C417,-374 423,-368 429,-368"/>
<text text-anchor="middle" x="481" y="-447.9" style="font-family:Times New Roman;font-size:14.00;">AuditsController</text>
<polyline style="fill:none;stroke:black;" points="417,-440 546,-440 "/>
<polyline style="fill:none;stroke:black;" points="417,-416 546,-416 "/>
<polyline style="fill:none;stroke:black;" points="417,-392 546,-392 "/>
</g>
<!-- DepartmentsController -->
<g id="node10" class="node"><title>DepartmentsController</title>
<polyline style="fill:none;stroke:black;" points="13,-32 165,-32 "/>
<path style="fill:none;stroke:black;" d="M165,-32C171,-32 177,-38 177,-44"/>
<polyline style="fill:none;stroke:black;" points="177,-44 177,-117 "/>
<path style="fill:none;stroke:black;" d="M177,-117C177,-123 171,-129 165,-129"/>
<polyline style="fill:none;stroke:black;" points="165,-129 13,-129 "/>
<path style="fill:none;stroke:black;" d="M13,-129C7,-129 1,-123 1,-117"/>
<polyline style="fill:none;stroke:black;" points="1,-117 1,-44 "/>
<path style="fill:none;stroke:black;" d="M1,-44C1,-38 7,-32 13,-32"/>
<text text-anchor="middle" x="89" y="-111.9" style="font-family:Times New Roman;font-size:14.00;">DepartmentsController</text>
<polyline style="fill:none;stroke:black;" points="1,-104 177,-104 "/>
<polyline style="fill:none;stroke:black;" points="1,-80 177,-80 "/>
<polyline style="fill:none;stroke:black;" points="1,-56 177,-56 "/>
</g>
</g>
</svg>
