<?xml version="1.0" encoding="UTF-8" standalone="no"?>
<!DOCTYPE svg PUBLIC "-//W3C//DTD SVG 1.0//EN"
 "http://www.w3.org/TR/2001/REC-SVG-20010904/DTD/svg10.dtd" [
 <!ATTLIST svg xmlns:xlink CDATA #FIXED "http://www.w3.org/1999/xlink">
]>
<!-- Generated by Graphviz version 2.20.2 (Mon Mar 30 10:11:53 UTC 2009)
     For user: (adigiro) Anthony,,,, -->
<!-- Title: controllers_diagram Pages: 1 -->
<svg width="650pt" height="695pt"
 viewBox="0.00 0.00 650.00 695.00" xmlns="http://www.w3.org/2000/svg" xmlns:xlink="http://www.w3.org/1999/xlink">
<g id="graph0" class="graph" transform="scale(1 1) rotate(0) translate(4 691)">
<title>controllers_diagram</title>
<polygon style="fill:white;stroke:white;" points="-4,4 -4,-691 646,-691 646,4 -4,4"/>
<!-- UsersController -->
<g id="node1" class="node"><title>UsersController</title>
<polyline style="fill:none;stroke:black;" points="349,-148 448,-148 "/>
<path style="fill:none;stroke:black;" d="M448,-148C454,-148 460,-154 460,-160"/>
<polyline style="fill:none;stroke:black;" points="460,-160 460,-456 "/>
<path style="fill:none;stroke:black;" d="M460,-456C460,-462 454,-468 448,-468"/>
<polyline style="fill:none;stroke:black;" points="448,-468 349,-468 "/>
<path style="fill:none;stroke:black;" d="M349,-468C343,-468 337,-462 337,-456"/>
<polyline style="fill:none;stroke:black;" points="337,-456 337,-160 "/>
<path style="fill:none;stroke:black;" d="M337,-160C337,-154 343,-148 349,-148"/>
<text text-anchor="middle" x="398" y="-450.9" style="font-family:Times New Roman;font-size:14.00;">UsersController</text>
<polyline style="fill:none;stroke:black;" points="337,-443 460,-443 "/>
<text text-anchor="start" x="344.5" y="-425.9" style="font-family:Times New Roman;font-size:14.00;">activate</text>
<text text-anchor="start" x="344.5" y="-408.9" style="font-family:Times New Roman;font-size:14.00;">active</text>
<text text-anchor="start" x="344.5" y="-391.9" style="font-family:Times New Roman;font-size:14.00;">create</text>
<text text-anchor="start" x="344.5" y="-374.9" style="font-family:Times New Roman;font-size:14.00;">destroy</text>
<text text-anchor="start" x="344.5" y="-357.9" style="font-family:Times New Roman;font-size:14.00;">edit</text>
<text text-anchor="start" x="344.5" y="-340.9" style="font-family:Times New Roman;font-size:14.00;">index</text>
<text text-anchor="start" x="344.5" y="-323.9" style="font-family:Times New Roman;font-size:14.00;">new</text>
<text text-anchor="start" x="344.5" y="-306.9" style="font-family:Times New Roman;font-size:14.00;">pending</text>
<text text-anchor="start" x="344.5" y="-289.9" style="font-family:Times New Roman;font-size:14.00;">purge</text>
<text text-anchor="start" x="344.5" y="-272.9" style="font-family:Times New Roman;font-size:14.00;">show</text>
<text text-anchor="start" x="344.5" y="-255.9" style="font-family:Times New Roman;font-size:14.00;">suspend</text>
<text text-anchor="start" x="344.5" y="-238.9" style="font-family:Times New Roman;font-size:14.00;">unsuspend</text>
<text text-anchor="start" x="344.5" y="-221.9" style="font-family:Times New Roman;font-size:14.00;">update</text>
<polyline style="fill:none;stroke:black;" points="337,-214 460,-214 "/>
<polyline style="fill:none;stroke:black;" points="337,-190 460,-190 "/>
<text text-anchor="start" x="344.5" y="-173.4" style="font-family:Times New Roman;font-size:14.00;">find_user</text>
<text text-anchor="start" x="344.5" y="-156.4" style="font-family:Times New Roman;font-size:14.00;">users_by_state</text>
</g>
<!-- UserRequestsController -->
<g id="node2" class="node"><title>UserRequestsController</title>
<polyline style="fill:none;stroke:black;" points="475,-484 630,-484 "/>
<path style="fill:none;stroke:black;" d="M630,-484C636,-484 642,-490 642,-496"/>
<polyline style="fill:none;stroke:black;" points="642,-496 642,-656 "/>
<path style="fill:none;stroke:black;" d="M642,-656C642,-662 636,-668 630,-668"/>
<polyline style="fill:none;stroke:black;" points="630,-668 475,-668 "/>
<path style="fill:none;stroke:black;" d="M475,-668C469,-668 463,-662 463,-656"/>
<polyline style="fill:none;stroke:black;" points="463,-656 463,-496 "/>
<path style="fill:none;stroke:black;" d="M463,-496C463,-490 469,-484 475,-484"/>
<text text-anchor="middle" x="552" y="-650.9" style="font-family:Times New Roman;font-size:14.00;">UserRequestsController</text>
<polyline style="fill:none;stroke:black;" points="463,-643 642,-643 "/>
<text text-anchor="start" x="470.5" y="-626.4" style="font-family:Times New Roman;font-size:14.00;">approve</text>
<text text-anchor="start" x="470.5" y="-609.4" style="font-family:Times New Roman;font-size:14.00;">create</text>
<text text-anchor="start" x="470.5" y="-592.4" style="font-family:Times New Roman;font-size:14.00;">index</text>
<text text-anchor="start" x="470.5" y="-575.4" style="font-family:Times New Roman;font-size:14.00;">new</text>
<text text-anchor="start" x="470.5" y="-558.4" style="font-family:Times New Roman;font-size:14.00;">reject</text>
<text text-anchor="start" x="470.5" y="-541.4" style="font-family:Times New Roman;font-size:14.00;">revoke</text>
<polyline style="fill:none;stroke:black;" points="463,-533 642,-533 "/>
<polyline style="fill:none;stroke:black;" points="463,-509 642,-509 "/>
<text text-anchor="start" x="470.5" y="-491.9" style="font-family:Times New Roman;font-size:14.00;">find_request</text>
</g>
<!-- SharesController -->
<g id="node3" class="node"><title>SharesController</title>
<polyline style="fill:none;stroke:black;" points="13,-253 121,-253 "/>
<path style="fill:none;stroke:black;" d="M121,-253C127,-253 133,-259 133,-265"/>
<polyline style="fill:none;stroke:black;" points="133,-265 133,-475 "/>
<path style="fill:none;stroke:black;" d="M133,-475C133,-481 127,-487 121,-487"/>
<polyline style="fill:none;stroke:black;" points="121,-487 13,-487 "/>
<path style="fill:none;stroke:black;" d="M13,-487C7,-487 1,-481 1,-475"/>
<polyline style="fill:none;stroke:black;" points="1,-475 1,-265 "/>
<path style="fill:none;stroke:black;" d="M1,-265C1,-259 7,-253 13,-253"/>
<text text-anchor="middle" x="67" y="-469.9" style="font-family:Times New Roman;font-size:14.00;">SharesController</text>
<polyline style="fill:none;stroke:black;" points="1,-462 133,-462 "/>
<text text-anchor="start" x="9" y="-444.9" style="font-family:Times New Roman;font-size:14.00;">create</text>
<text text-anchor="start" x="9" y="-427.9" style="font-family:Times New Roman;font-size:14.00;">destroy</text>
<text text-anchor="start" x="9" y="-410.9" style="font-family:Times New Roman;font-size:14.00;">edit</text>
<text text-anchor="start" x="9" y="-393.9" style="font-family:Times New Roman;font-size:14.00;">index</text>
<text text-anchor="start" x="9" y="-376.9" style="font-family:Times New Roman;font-size:14.00;">new</text>
<text text-anchor="start" x="9" y="-359.9" style="font-family:Times New Roman;font-size:14.00;">show</text>
<text text-anchor="start" x="9" y="-342.9" style="font-family:Times New Roman;font-size:14.00;">toggle_checkout</text>
<text text-anchor="start" x="9" y="-325.9" style="font-family:Times New Roman;font-size:14.00;">toggle_update</text>
<text text-anchor="start" x="9" y="-308.9" style="font-family:Times New Roman;font-size:14.00;">update</text>
<polyline style="fill:none;stroke:black;" points="1,-301 133,-301 "/>
<polyline style="fill:none;stroke:black;" points="1,-277 133,-277 "/>
</g>
<!-- SessionsController -->
<g id="node4" class="node"><title>SessionsController</title>
<polyline style="fill:none;stroke:black;" points="349,-0 469,-0 "/>
<path style="fill:none;stroke:black;" d="M469,-0C475,-0 481,-6 481,-12"/>
<polyline style="fill:none;stroke:black;" points="481,-12 481,-121 "/>
<path style="fill:none;stroke:black;" d="M481,-121C481,-127 475,-133 469,-133"/>
<polyline style="fill:none;stroke:black;" points="469,-133 349,-133 "/>
<path style="fill:none;stroke:black;" d="M349,-133C343,-133 337,-127 337,-121"/>
<polyline style="fill:none;stroke:black;" points="337,-121 337,-12 "/>
<path style="fill:none;stroke:black;" d="M337,-12C337,-6 343,-0 349,-0"/>
<text text-anchor="middle" x="409" y="-115.9" style="font-family:Times New Roman;font-size:14.00;">SessionsController</text>
<polyline style="fill:none;stroke:black;" points="337,-108 481,-108 "/>
<text text-anchor="start" x="345" y="-90.9" style="font-family:Times New Roman;font-size:14.00;">create</text>
<text text-anchor="start" x="345" y="-73.9" style="font-family:Times New Roman;font-size:14.00;">destroy</text>
<text text-anchor="start" x="345" y="-56.9" style="font-family:Times New Roman;font-size:14.00;">new</text>
<polyline style="fill:none;stroke:black;" points="337,-49 481,-49 "/>
<text text-anchor="start" x="345" y="-31.9" style="font-family:Times New Roman;font-size:14.00;">note_failed_signin</text>
<polyline style="fill:none;stroke:black;" points="337,-24 481,-24 "/>
</g>
<!-- HomeController -->
<g id="node5" class="node"><title>HomeController</title>
<polyline style="fill:none;stroke:black;" points="13,-126 114,-126 "/>
<path style="fill:none;stroke:black;" d="M114,-126C120,-126 126,-132 126,-138"/>
<polyline style="fill:none;stroke:black;" points="126,-138 126,-229 "/>
<path style="fill:none;stroke:black;" d="M126,-229C126,-235 120,-241 114,-241"/>
<polyline style="fill:none;stroke:black;" points="114,-241 13,-241 "/>
<path style="fill:none;stroke:black;" d="M13,-241C7,-241 1,-235 1,-229"/>
<polyline style="fill:none;stroke:black;" points="1,-229 1,-138 "/>
<path style="fill:none;stroke:black;" d="M1,-138C1,-132 7,-126 13,-126"/>
<text text-anchor="middle" x="63" y="-223.9" style="font-family:Times New Roman;font-size:14.00;">HomeController</text>
<polyline style="fill:none;stroke:black;" points="1,-216 126,-216 "/>
<text text-anchor="start" x="8.5" y="-199.4" style="font-family:Times New Roman;font-size:14.00;">about</text>
<text text-anchor="start" x="8.5" y="-182.4" style="font-family:Times New Roman;font-size:14.00;">index</text>
<polyline style="fill:none;stroke:black;" points="1,-174 126,-174 "/>
<polyline style="fill:none;stroke:black;" points="1,-150 126,-150 "/>
</g>
<!-- ApplicationController -->
<g id="node6" class="node"><title>ApplicationController</title>
<polyline style="fill:none;stroke:black;" points="160,-399 299,-399 "/>
<path style="fill:none;stroke:black;" d="M299,-399C305,-399 311,-405 311,-411"/>
<polyline style="fill:none;stroke:black;" points="311,-411 311,-674 "/>
<path style="fill:none;stroke:black;" d="M311,-674C311,-680 305,-686 299,-686"/>
<polyline style="fill:none;stroke:black;" points="299,-686 160,-686 "/>
<path style="fill:none;stroke:black;" d="M160,-686C154,-686 148,-680 148,-674"/>
<polyline style="fill:none;stroke:black;" points="148,-674 148,-411 "/>
<path style="fill:none;stroke:black;" d="M148,-411C148,-405 154,-399 160,-399"/>
<text text-anchor="middle" x="229" y="-668.9" style="font-family:Times New Roman;font-size:14.00;">ApplicationController</text>
<polyline style="fill:none;stroke:black;" points="148,-661 311,-661 "/>
<text text-anchor="start" x="155.5" y="-644.4" style="font-family:Times New Roman;font-size:14.00;">role_requirements</text>
<text text-anchor="start" x="155.5" y="-627.4" style="font-family:Times New Roman;font-size:14.00;">role_requirements=</text>
<polyline style="fill:none;stroke:black;" points="148,-619 311,-619 "/>
<text text-anchor="start" x="155.5" y="-601.9" style="font-family:Times New Roman;font-size:14.00;">filter_parameters</text>
<polyline style="fill:none;stroke:black;" points="148,-594 311,-594 "/>
<text text-anchor="start" x="155.5" y="-576.9" style="font-family:Times New Roman;font-size:14.00;">all_departments</text>
<text text-anchor="start" x="155.5" y="-559.9" style="font-family:Times New Roman;font-size:14.00;">all_roles</text>
<text text-anchor="start" x="155.5" y="-542.9" style="font-family:Times New Roman;font-size:14.00;">document_access</text>
<text text-anchor="start" x="155.5" y="-525.9" style="font-family:Times New Roman;font-size:14.00;">find_document_by_id</text>
<text text-anchor="start" x="155.5" y="-508.9" style="font-family:Times New Roman;font-size:14.00;">find_document_share</text>
<text text-anchor="start" x="155.5" y="-491.9" style="font-family:Times New Roman;font-size:14.00;">find_share_by_id</text>
<text text-anchor="start" x="155.5" y="-474.9" style="font-family:Times New Roman;font-size:14.00;">make_audit</text>
<text text-anchor="start" x="155.5" y="-457.9" style="font-family:Times New Roman;font-size:14.00;">session_expire</text>
<text text-anchor="start" x="155.5" y="-440.9" style="font-family:Times New Roman;font-size:14.00;">set_user_time_zone</text>
<text text-anchor="start" x="155.5" y="-423.9" style="font-family:Times New Roman;font-size:14.00;">update_activity_time</text>
<text text-anchor="start" x="155.5" y="-406.9" style="font-family:Times New Roman;font-size:14.00;">validate_sql_integer</text>
</g>
<!-- DocumentsController -->
<g id="node7" class="node"><title>DocumentsController</title>
<polyline style="fill:none;stroke:black;" points="160,-85 299,-85 "/>
<path style="fill:none;stroke:black;" d="M299,-85C305,-85 311,-91 311,-97"/>
<polyline style="fill:none;stroke:black;" points="311,-97 311,-375 "/>
<path style="fill:none;stroke:black;" d="M311,-375C311,-381 305,-387 299,-387"/>
<polyline style="fill:none;stroke:black;" points="299,-387 160,-387 "/>
<path style="fill:none;stroke:black;" d="M160,-387C154,-387 148,-381 148,-375"/>
<polyline style="fill:none;stroke:black;" points="148,-375 148,-97 "/>
<path style="fill:none;stroke:black;" d="M148,-97C148,-91 154,-85 160,-85"/>
<text text-anchor="middle" x="229" y="-369.9" style="font-family:Times New Roman;font-size:14.00;">DocumentsController</text>
<polyline style="fill:none;stroke:black;" points="148,-362 311,-362 "/>
<text text-anchor="start" x="155.5" y="-344.9" style="font-family:Times New Roman;font-size:14.00;">checkin</text>
<text text-anchor="start" x="155.5" y="-327.9" style="font-family:Times New Roman;font-size:14.00;">checkout</text>
<text text-anchor="start" x="155.5" y="-310.9" style="font-family:Times New Roman;font-size:14.00;">corporate</text>
<text text-anchor="start" x="155.5" y="-293.9" style="font-family:Times New Roman;font-size:14.00;">create</text>
<text text-anchor="start" x="155.5" y="-276.9" style="font-family:Times New Roman;font-size:14.00;">department</text>
<text text-anchor="start" x="155.5" y="-259.9" style="font-family:Times New Roman;font-size:14.00;">destroy</text>
<text text-anchor="start" x="155.5" y="-242.9" style="font-family:Times New Roman;font-size:14.00;">download</text>
<text text-anchor="start" x="155.5" y="-225.9" style="font-family:Times New Roman;font-size:14.00;">edit</text>
<text text-anchor="start" x="155.5" y="-208.9" style="font-family:Times New Roman;font-size:14.00;">index</text>
<text text-anchor="start" x="155.5" y="-191.9" style="font-family:Times New Roman;font-size:14.00;">new</text>
<text text-anchor="start" x="155.5" y="-174.9" style="font-family:Times New Roman;font-size:14.00;">shared</text>
<text text-anchor="start" x="155.5" y="-157.9" style="font-family:Times New Roman;font-size:14.00;">show</text>
<text text-anchor="start" x="155.5" y="-140.9" style="font-family:Times New Roman;font-size:14.00;">update</text>
<polyline style="fill:none;stroke:black;" points="148,-133 311,-133 "/>
<polyline style="fill:none;stroke:black;" points="148,-109 311,-109 "/>
</g>
<!-- AuditsController -->
<g id="node8" class="node"><title>AuditsController</title>
<polyline style="fill:none;stroke:black;" points="496,-148 601,-148 "/>
<path style="fill:none;stroke:black;" d="M601,-148C607,-148 613,-154 613,-160"/>
<polyline style="fill:none;stroke:black;" points="613,-160 613,-234 "/>
<path style="fill:none;stroke:black;" d="M613,-234C613,-240 607,-246 601,-246"/>
<polyline style="fill:none;stroke:black;" points="601,-246 496,-246 "/>
<path style="fill:none;stroke:black;" d="M496,-246C490,-246 484,-240 484,-234"/>
<polyline style="fill:none;stroke:black;" points="484,-234 484,-160 "/>
<path style="fill:none;stroke:black;" d="M484,-160C484,-154 490,-148 496,-148"/>
<text text-anchor="middle" x="548" y="-228.9" style="font-family:Times New Roman;font-size:14.00;">AuditsController</text>
<polyline style="fill:none;stroke:black;" points="484,-221 613,-221 "/>
<text text-anchor="start" x="491.5" y="-203.9" style="font-family:Times New Roman;font-size:14.00;">index</text>
<polyline style="fill:none;stroke:black;" points="484,-196 613,-196 "/>
<polyline style="fill:none;stroke:black;" points="484,-172 613,-172 "/>
</g>
</g>
</svg>
