<?xml version="1.0" encoding="UTF-8" standalone="no"?>
<!DOCTYPE svg PUBLIC "-//W3C//DTD SVG 1.0//EN"
 "http://www.w3.org/TR/2001/REC-SVG-20010904/DTD/svg10.dtd" [
 <!ATTLIST svg xmlns:xlink CDATA #FIXED "http://www.w3.org/1999/xlink">
]>
<!-- Generated by Graphviz version 2.20.2 (Mon Mar 30 10:11:53 UTC 2009)
     For user: (adigiro) Anthony,,,, -->
<!-- Title: controllers_diagram Pages: 1 -->
<svg width="675pt" height="723pt"
 viewBox="0.00 0.00 675.00 723.00" xmlns="http://www.w3.org/2000/svg" xmlns:xlink="http://www.w3.org/1999/xlink">
<g id="graph0" class="graph" transform="scale(1 1) rotate(0) translate(4 719)">
<title>controllers_diagram</title>
<polygon style="fill:white;stroke:white;" points="-4,4 -4,-719 671,-719 671,4 -4,4"/>
<!-- AdministrationController -->
<g id="node1" class="node"><title>AdministrationController</title>
<polyline style="fill:none;stroke:black;" points="146,-380 308,-380 "/>
<path style="fill:none;stroke:black;" d="M308,-380C314,-380 320,-386 320,-392"/>
<polyline style="fill:none;stroke:black;" points="320,-392 320,-517 "/>
<path style="fill:none;stroke:black;" d="M320,-517C320,-523 314,-529 308,-529"/>
<polyline style="fill:none;stroke:black;" points="308,-529 146,-529 "/>
<path style="fill:none;stroke:black;" d="M146,-529C140,-529 134,-523 134,-517"/>
<polyline style="fill:none;stroke:black;" points="134,-517 134,-392 "/>
<path style="fill:none;stroke:black;" d="M134,-392C134,-386 140,-380 146,-380"/>
<text text-anchor="middle" x="227" y="-511.9" style="font-family:Times New Roman;font-size:14.00;">AdministrationController</text>
<polyline style="fill:none;stroke:black;" points="134,-504 320,-504 "/>
<text text-anchor="start" x="142" y="-487.4" style="font-family:Times New Roman;font-size:14.00;">list_audits</text>
<text text-anchor="start" x="142" y="-470.4" style="font-family:Times New Roman;font-size:14.00;">list_departments</text>
<text text-anchor="start" x="142" y="-453.4" style="font-family:Times New Roman;font-size:14.00;">list_roles</text>
<text text-anchor="start" x="142" y="-436.4" style="font-family:Times New Roman;font-size:14.00;">list_users</text>
<polyline style="fill:none;stroke:black;" points="134,-428 320,-428 "/>
<polyline style="fill:none;stroke:black;" points="134,-404 320,-404 "/>
</g>
<!-- UsersController -->
<g id="node2" class="node"><title>UsersController</title>
<polyline style="fill:none;stroke:black;" points="393,-399 492,-399 "/>
<path style="fill:none;stroke:black;" d="M492,-399C498,-399 504,-405 504,-411"/>
<polyline style="fill:none;stroke:black;" points="504,-411 504,-588 "/>
<path style="fill:none;stroke:black;" d="M504,-588C504,-594 498,-600 492,-600"/>
<polyline style="fill:none;stroke:black;" points="492,-600 393,-600 "/>
<path style="fill:none;stroke:black;" d="M393,-600C387,-600 381,-594 381,-588"/>
<polyline style="fill:none;stroke:black;" points="381,-588 381,-411 "/>
<path style="fill:none;stroke:black;" d="M381,-411C381,-405 387,-399 393,-399"/>
<text text-anchor="middle" x="442" y="-582.9" style="font-family:Times New Roman;font-size:14.00;">UsersController</text>
<polyline style="fill:none;stroke:black;" points="381,-575 504,-575 "/>
<text text-anchor="start" x="388.5" y="-557.9" style="font-family:Times New Roman;font-size:14.00;">activate</text>
<text text-anchor="start" x="388.5" y="-540.9" style="font-family:Times New Roman;font-size:14.00;">create</text>
<text text-anchor="start" x="388.5" y="-523.9" style="font-family:Times New Roman;font-size:14.00;">destroy</text>
<text text-anchor="start" x="388.5" y="-506.9" style="font-family:Times New Roman;font-size:14.00;">new</text>
<text text-anchor="start" x="388.5" y="-489.9" style="font-family:Times New Roman;font-size:14.00;">purge</text>
<text text-anchor="start" x="388.5" y="-472.9" style="font-family:Times New Roman;font-size:14.00;">suspend</text>
<text text-anchor="start" x="388.5" y="-455.9" style="font-family:Times New Roman;font-size:14.00;">unsuspend</text>
<polyline style="fill:none;stroke:black;" points="381,-448 504,-448 "/>
<text text-anchor="start" x="388.5" y="-430.9" style="font-family:Times New Roman;font-size:14.00;">find_user</text>
<polyline style="fill:none;stroke:black;" points="381,-423 504,-423 "/>
</g>
<!-- SharesController -->
<g id="node3" class="node"><title>SharesController</title>
<polyline style="fill:none;stroke:black;" points="13,-153 121,-153 "/>
<path style="fill:none;stroke:black;" d="M121,-153C127,-153 133,-159 133,-165"/>
<polyline style="fill:none;stroke:black;" points="133,-165 133,-341 "/>
<path style="fill:none;stroke:black;" d="M133,-341C133,-347 127,-353 121,-353"/>
<polyline style="fill:none;stroke:black;" points="121,-353 13,-353 "/>
<path style="fill:none;stroke:black;" d="M13,-353C7,-353 1,-347 1,-341"/>
<polyline style="fill:none;stroke:black;" points="1,-341 1,-165 "/>
<path style="fill:none;stroke:black;" d="M1,-165C1,-159 7,-153 13,-153"/>
<text text-anchor="middle" x="67" y="-335.9" style="font-family:Times New Roman;font-size:14.00;">SharesController</text>
<polyline style="fill:none;stroke:black;" points="1,-328 133,-328 "/>
<text text-anchor="start" x="9" y="-310.9" style="font-family:Times New Roman;font-size:14.00;">create</text>
<text text-anchor="start" x="9" y="-293.9" style="font-family:Times New Roman;font-size:14.00;">destroy</text>
<text text-anchor="start" x="9" y="-276.9" style="font-family:Times New Roman;font-size:14.00;">edit</text>
<text text-anchor="start" x="9" y="-259.9" style="font-family:Times New Roman;font-size:14.00;">index</text>
<text text-anchor="start" x="9" y="-242.9" style="font-family:Times New Roman;font-size:14.00;">new</text>
<text text-anchor="start" x="9" y="-225.9" style="font-family:Times New Roman;font-size:14.00;">show</text>
<text text-anchor="start" x="9" y="-208.9" style="font-family:Times New Roman;font-size:14.00;">update</text>
<polyline style="fill:none;stroke:black;" points="1,-201 133,-201 "/>
<polyline style="fill:none;stroke:black;" points="1,-177 133,-177 "/>
</g>
<!-- RolesController -->
<g id="node4" class="node"><title>RolesController</title>
<polyline style="fill:none;stroke:black;" points="13,-514 110,-514 "/>
<path style="fill:none;stroke:black;" d="M110,-514C116,-514 122,-520 122,-526"/>
<polyline style="fill:none;stroke:black;" points="122,-526 122,-702 "/>
<path style="fill:none;stroke:black;" d="M122,-702C122,-708 116,-714 110,-714"/>
<polyline style="fill:none;stroke:black;" points="110,-714 13,-714 "/>
<path style="fill:none;stroke:black;" d="M13,-714C7,-714 1,-708 1,-702"/>
<polyline style="fill:none;stroke:black;" points="1,-702 1,-526 "/>
<path style="fill:none;stroke:black;" d="M1,-526C1,-520 7,-514 13,-514"/>
<text text-anchor="middle" x="61" y="-696.9" style="font-family:Times New Roman;font-size:14.00;">RolesController</text>
<polyline style="fill:none;stroke:black;" points="1,-689 122,-689 "/>
<text text-anchor="start" x="8.5" y="-671.9" style="font-family:Times New Roman;font-size:14.00;">create</text>
<text text-anchor="start" x="8.5" y="-654.9" style="font-family:Times New Roman;font-size:14.00;">destroy</text>
<text text-anchor="start" x="8.5" y="-637.9" style="font-family:Times New Roman;font-size:14.00;">edit</text>
<text text-anchor="start" x="8.5" y="-620.9" style="font-family:Times New Roman;font-size:14.00;">index</text>
<text text-anchor="start" x="8.5" y="-603.9" style="font-family:Times New Roman;font-size:14.00;">new</text>
<text text-anchor="start" x="8.5" y="-586.9" style="font-family:Times New Roman;font-size:14.00;">show</text>
<text text-anchor="start" x="8.5" y="-569.9" style="font-family:Times New Roman;font-size:14.00;">update</text>
<polyline style="fill:none;stroke:black;" points="1,-562 122,-562 "/>
<polyline style="fill:none;stroke:black;" points="1,-538 122,-538 "/>
</g>
<!-- EmployeeController -->
<g id="node5" class="node"><title>EmployeeController</title>
<polyline style="fill:none;stroke:black;" points="526,-0 654,-0 "/>
<path style="fill:none;stroke:black;" d="M654,-0C660,-0 666,-6 666,-12"/>
<polyline style="fill:none;stroke:black;" points="666,-12 666,-103 "/>
<path style="fill:none;stroke:black;" d="M666,-103C666,-109 660,-115 654,-115"/>
<polyline style="fill:none;stroke:black;" points="654,-115 526,-115 "/>
<path style="fill:none;stroke:black;" d="M526,-115C520,-115 514,-109 514,-103"/>
<polyline style="fill:none;stroke:black;" points="514,-103 514,-12 "/>
<path style="fill:none;stroke:black;" d="M514,-12C514,-6 520,-0 526,-0"/>
<text text-anchor="middle" x="590" y="-97.9" style="font-family:Times New Roman;font-size:14.00;">EmployeeController</text>
<polyline style="fill:none;stroke:black;" points="514,-90 666,-90 "/>
<text text-anchor="start" x="522" y="-73.4" style="font-family:Times New Roman;font-size:14.00;">list_documents</text>
<text text-anchor="start" x="522" y="-56.4" style="font-family:Times New Roman;font-size:14.00;">list_shares</text>
<polyline style="fill:none;stroke:black;" points="514,-48 666,-48 "/>
<polyline style="fill:none;stroke:black;" points="514,-24 666,-24 "/>
</g>
<!-- SessionsController -->
<g id="node6" class="node"><title>SessionsController</title>
<polyline style="fill:none;stroke:black;" points="355,-19 475,-19 "/>
<path style="fill:none;stroke:black;" d="M475,-19C481,-19 487,-25 487,-31"/>
<polyline style="fill:none;stroke:black;" points="487,-31 487,-140 "/>
<path style="fill:none;stroke:black;" d="M487,-140C487,-146 481,-152 475,-152"/>
<polyline style="fill:none;stroke:black;" points="475,-152 355,-152 "/>
<path style="fill:none;stroke:black;" d="M355,-152C349,-152 343,-146 343,-140"/>
<polyline style="fill:none;stroke:black;" points="343,-140 343,-31 "/>
<path style="fill:none;stroke:black;" d="M343,-31C343,-25 349,-19 355,-19"/>
<text text-anchor="middle" x="415" y="-134.9" style="font-family:Times New Roman;font-size:14.00;">SessionsController</text>
<polyline style="fill:none;stroke:black;" points="343,-127 487,-127 "/>
<text text-anchor="start" x="351" y="-109.9" style="font-family:Times New Roman;font-size:14.00;">create</text>
<text text-anchor="start" x="351" y="-92.9" style="font-family:Times New Roman;font-size:14.00;">destroy</text>
<text text-anchor="start" x="351" y="-75.9" style="font-family:Times New Roman;font-size:14.00;">new</text>
<polyline style="fill:none;stroke:black;" points="343,-68 487,-68 "/>
<text text-anchor="start" x="351" y="-50.9" style="font-family:Times New Roman;font-size:14.00;">note_failed_signin</text>
<polyline style="fill:none;stroke:black;" points="343,-43 487,-43 "/>
</g>
<!-- HomeController -->
<g id="node7" class="node"><title>HomeController</title>
<polyline style="fill:none;stroke:black;" points="184,-20 285,-20 "/>
<path style="fill:none;stroke:black;" d="M285,-20C291,-20 297,-26 297,-32"/>
<polyline style="fill:none;stroke:black;" points="297,-32 297,-106 "/>
<path style="fill:none;stroke:black;" d="M297,-106C297,-112 291,-118 285,-118"/>
<polyline style="fill:none;stroke:black;" points="285,-118 184,-118 "/>
<path style="fill:none;stroke:black;" d="M184,-118C178,-118 172,-112 172,-106"/>
<polyline style="fill:none;stroke:black;" points="172,-106 172,-32 "/>
<path style="fill:none;stroke:black;" d="M172,-32C172,-26 178,-20 184,-20"/>
<text text-anchor="middle" x="234" y="-100.9" style="font-family:Times New Roman;font-size:14.00;">HomeController</text>
<polyline style="fill:none;stroke:black;" points="172,-93 297,-93 "/>
<text text-anchor="start" x="179.5" y="-75.9" style="font-family:Times New Roman;font-size:14.00;">index</text>
<polyline style="fill:none;stroke:black;" points="172,-68 297,-68 "/>
<polyline style="fill:none;stroke:black;" points="172,-44 297,-44 "/>
</g>
<!-- ApplicationController -->
<g id="node8" class="node"><title>ApplicationController</title>
<polyline style="fill:none;stroke:black;" points="13,-20 150,-20 "/>
<path style="fill:none;stroke:black;" d="M150,-20C156,-20 162,-26 162,-32"/>
<polyline style="fill:none;stroke:black;" points="162,-32 162,-106 "/>
<path style="fill:none;stroke:black;" d="M162,-106C162,-112 156,-118 150,-118"/>
<polyline style="fill:none;stroke:black;" points="150,-118 13,-118 "/>
<path style="fill:none;stroke:black;" d="M13,-118C7,-118 1,-112 1,-106"/>
<polyline style="fill:none;stroke:black;" points="1,-106 1,-32 "/>
<path style="fill:none;stroke:black;" d="M1,-32C1,-26 7,-20 13,-20"/>
<text text-anchor="middle" x="81" y="-100.9" style="font-family:Times New Roman;font-size:14.00;">ApplicationController</text>
<polyline style="fill:none;stroke:black;" points="1,-93 162,-93 "/>
<polyline style="fill:none;stroke:black;" points="1,-69 162,-69 "/>
<text text-anchor="start" x="8.5" y="-51.9" style="font-family:Times New Roman;font-size:14.00;">filter_parameters</text>
<polyline style="fill:none;stroke:black;" points="1,-44 162,-44 "/>
</g>
<!-- DocumentsController -->
<g id="node9" class="node"><title>DocumentsController</title>
<polyline style="fill:none;stroke:black;" points="165,-134 304,-134 "/>
<path style="fill:none;stroke:black;" d="M304,-134C310,-134 316,-140 316,-146"/>
<polyline style="fill:none;stroke:black;" points="316,-146 316,-356 "/>
<path style="fill:none;stroke:black;" d="M316,-356C316,-362 310,-368 304,-368"/>
<polyline style="fill:none;stroke:black;" points="304,-368 165,-368 "/>
<path style="fill:none;stroke:black;" d="M165,-368C159,-368 153,-362 153,-356"/>
<polyline style="fill:none;stroke:black;" points="153,-356 153,-146 "/>
<path style="fill:none;stroke:black;" d="M153,-146C153,-140 159,-134 165,-134"/>
<text text-anchor="middle" x="234" y="-350.9" style="font-family:Times New Roman;font-size:14.00;">DocumentsController</text>
<polyline style="fill:none;stroke:black;" points="153,-343 316,-343 "/>
<text text-anchor="start" x="160.5" y="-325.9" style="font-family:Times New Roman;font-size:14.00;">checkin</text>
<text text-anchor="start" x="160.5" y="-308.9" style="font-family:Times New Roman;font-size:14.00;">checkout</text>
<text text-anchor="start" x="160.5" y="-291.9" style="font-family:Times New Roman;font-size:14.00;">create</text>
<text text-anchor="start" x="160.5" y="-274.9" style="font-family:Times New Roman;font-size:14.00;">destroy</text>
<text text-anchor="start" x="160.5" y="-257.9" style="font-family:Times New Roman;font-size:14.00;">edit</text>
<text text-anchor="start" x="160.5" y="-240.9" style="font-family:Times New Roman;font-size:14.00;">index</text>
<text text-anchor="start" x="160.5" y="-223.9" style="font-family:Times New Roman;font-size:14.00;">new</text>
<text text-anchor="start" x="160.5" y="-206.9" style="font-family:Times New Roman;font-size:14.00;">show</text>
<text text-anchor="start" x="160.5" y="-189.9" style="font-family:Times New Roman;font-size:14.00;">update</text>
<polyline style="fill:none;stroke:black;" points="153,-182 316,-182 "/>
<polyline style="fill:none;stroke:black;" points="153,-158 316,-158 "/>
</g>
<!-- AuditsController -->
<g id="node10" class="node"><title>AuditsController</title>
<polyline style="fill:none;stroke:black;" points="526,-400 631,-400 "/>
<path style="fill:none;stroke:black;" d="M631,-400C637,-400 643,-406 643,-412"/>
<polyline style="fill:none;stroke:black;" points="643,-412 643,-588 "/>
<path style="fill:none;stroke:black;" d="M643,-588C643,-594 637,-600 631,-600"/>
<polyline style="fill:none;stroke:black;" points="631,-600 526,-600 "/>
<path style="fill:none;stroke:black;" d="M526,-600C520,-600 514,-594 514,-588"/>
<polyline style="fill:none;stroke:black;" points="514,-588 514,-412 "/>
<path style="fill:none;stroke:black;" d="M514,-412C514,-406 520,-400 526,-400"/>
<text text-anchor="middle" x="578" y="-582.9" style="font-family:Times New Roman;font-size:14.00;">AuditsController</text>
<polyline style="fill:none;stroke:black;" points="514,-575 643,-575 "/>
<text text-anchor="start" x="521.5" y="-557.9" style="font-family:Times New Roman;font-size:14.00;">create</text>
<text text-anchor="start" x="521.5" y="-540.9" style="font-family:Times New Roman;font-size:14.00;">destroy</text>
<text text-anchor="start" x="521.5" y="-523.9" style="font-family:Times New Roman;font-size:14.00;">edit</text>
<text text-anchor="start" x="521.5" y="-506.9" style="font-family:Times New Roman;font-size:14.00;">index</text>
<text text-anchor="start" x="521.5" y="-489.9" style="font-family:Times New Roman;font-size:14.00;">new</text>
<text text-anchor="start" x="521.5" y="-472.9" style="font-family:Times New Roman;font-size:14.00;">show</text>
<text text-anchor="start" x="521.5" y="-455.9" style="font-family:Times New Roman;font-size:14.00;">update</text>
<polyline style="fill:none;stroke:black;" points="514,-448 643,-448 "/>
<polyline style="fill:none;stroke:black;" points="514,-424 643,-424 "/>
</g>
<!-- DepartmentsController -->
<g id="node11" class="node"><title>DepartmentsController</title>
<polyline style="fill:none;stroke:black;" points="355,-172 507,-172 "/>
<path style="fill:none;stroke:black;" d="M507,-172C513,-172 519,-178 519,-184"/>
<polyline style="fill:none;stroke:black;" points="519,-184 519,-360 "/>
<path style="fill:none;stroke:black;" d="M519,-360C519,-366 513,-372 507,-372"/>
<polyline style="fill:none;stroke:black;" points="507,-372 355,-372 "/>
<path style="fill:none;stroke:black;" d="M355,-372C349,-372 343,-366 343,-360"/>
<polyline style="fill:none;stroke:black;" points="343,-360 343,-184 "/>
<path style="fill:none;stroke:black;" d="M343,-184C343,-178 349,-172 355,-172"/>
<text text-anchor="middle" x="431" y="-354.9" style="font-family:Times New Roman;font-size:14.00;">DepartmentsController</text>
<polyline style="fill:none;stroke:black;" points="343,-347 519,-347 "/>
<text text-anchor="start" x="351" y="-329.9" style="font-family:Times New Roman;font-size:14.00;">create</text>
<text text-anchor="start" x="351" y="-312.9" style="font-family:Times New Roman;font-size:14.00;">destroy</text>
<text text-anchor="start" x="351" y="-295.9" style="font-family:Times New Roman;font-size:14.00;">edit</text>
<text text-anchor="start" x="351" y="-278.9" style="font-family:Times New Roman;font-size:14.00;">index</text>
<text text-anchor="start" x="351" y="-261.9" style="font-family:Times New Roman;font-size:14.00;">new</text>
<text text-anchor="start" x="351" y="-244.9" style="font-family:Times New Roman;font-size:14.00;">show</text>
<text text-anchor="start" x="351" y="-227.9" style="font-family:Times New Roman;font-size:14.00;">update</text>
<polyline style="fill:none;stroke:black;" points="343,-220 519,-220 "/>
<polyline style="fill:none;stroke:black;" points="343,-196 519,-196 "/>
</g>
</g>
</svg>
