<?xml version="1.0" encoding="UTF-8" standalone="no"?>
<!-- Generated by Graphviz version 2.20.2 (Mon Mar 30 10:11:53 UTC 2009)
     For user: (adigiro) Anthony,,,, -->
<!-- Title: controllers_diagram Pages: 1 -->
<svg
   xmlns:dc="http://purl.org/dc/elements/1.1/"
   xmlns:cc="http://creativecommons.org/ns#"
   xmlns:rdf="http://www.w3.org/1999/02/22-rdf-syntax-ns#"
   xmlns:svg="http://www.w3.org/2000/svg"
   xmlns="http://www.w3.org/2000/svg"
   xmlns:sodipodi="http://sodipodi.sourceforge.net/DTD/sodipodi-0.dtd"
   xmlns:inkscape="http://www.inkscape.org/namespaces/inkscape"
   width="1280"
   height="1024"
   viewBox="0 0 675 723"
   id="svg8324"
   sodipodi:version="0.32"
   inkscape:version="0.46"
   sodipodi:docname="controller_draft.svg"
   inkscape:output_extension="org.inkscape.output.svg.inkscape"
   version="1.0"
   inkscape:export-filename="/home/adigiro/work/dms.git/doc/controller_draft.png"
   inkscape:export-xdpi="90"
   inkscape:export-ydpi="90">
  <metadata
     id="metadata8745">
    <rdf:RDF>
      <cc:Work
         rdf:about="">
        <dc:format>image/svg+xml</dc:format>
        <dc:type
           rdf:resource="http://purl.org/dc/dcmitype/StillImage" />
      </cc:Work>
    </rdf:RDF>
  </metadata>
  <defs
     id="defs8743">
    <inkscape:perspective
       sodipodi:type="inkscape:persp3d"
       inkscape:vp_x="0 : 451.875 : 1"
       inkscape:vp_y="0 : 1000 : 0"
       inkscape:vp_z="843.75 : 451.875 : 1"
       inkscape:persp3d-origin="421.875 : 301.25 : 1"
       id="perspective8747" />
    <title
       id="title8327">controllers_diagram</title>
  </defs>
  <sodipodi:namedview
     inkscape:window-height="1028"
     inkscape:window-width="1344"
     inkscape:pageshadow="2"
     inkscape:pageopacity="0.0"
     guidetolerance="10.0"
     gridtolerance="10.0"
     objecttolerance="10.0"
     borderopacity="1.0"
     bordercolor="#666666"
     pagecolor="#ffffff"
     id="base"
     showgrid="false"
     inkscape:zoom="0.77302517"
     inkscape:cx="467.01502"
     inkscape:cy="497.41023"
     inkscape:window-x="1680"
     inkscape:window-y="22"
     inkscape:current-layer="svg8324" />
  <rect
     style="fill:#ffffff"
     id="rect7669"
     width="903.31866"
     height="723.38568"
     x="-114.375"
     y="-0.38564667" />
  <g
     class="node"
     id="node1"
     transform="translate(351.94685,837.84771)">
    <title
       id="title8332">AdministrationController</title>
    <polyline
       id="polyline8334"
       points="146,-380 308,-380 "
       style="fill:none;stroke:#000000" />
    <path
       id="path8336"
       d="M 308,-380 C 314,-380 320,-386 320,-392"
       style="fill:none;stroke:#000000" />
    <polyline
       id="polyline8338"
       points="320,-392 320,-517 "
       style="fill:none;stroke:#000000" />
    <path
       id="path8340"
       d="M 320,-517 C 320,-523 314,-529 308,-529"
       style="fill:none;stroke:#000000" />
    <polyline
       id="polyline8342"
       points="308,-529 146,-529 "
       style="fill:none;stroke:#000000" />
    <path
       id="path8344"
       d="M 146,-529 C 140,-529 134,-523 134,-517"
       style="fill:none;stroke:#000000" />
    <polyline
       id="polyline8346"
       points="134,-517 134,-392 "
       style="fill:none;stroke:#000000" />
    <path
       id="path8348"
       d="M 134,-392 C 134,-386 140,-380 146,-380"
       style="fill:none;stroke:#000000" />
    <text
       id="text8350"
       style="font-size:14px;text-anchor:middle;font-family:Times New Roman"
       y="-511.89999"
       x="227">AdministrationController</text>
    <polyline
       id="polyline8352"
       points="134,-504 320,-504 "
       style="fill:none;stroke:#000000" />
    <text
       id="text8354"
       style="font-size:14px;text-anchor:start;font-family:Times New Roman"
       y="-487.39999"
       x="142">list_audits</text>
    <text
       id="text8356"
       style="font-size:14px;text-anchor:start;font-family:Times New Roman"
       y="-470.39999"
       x="142">list_departments</text>
    <text
       id="text8358"
       style="font-size:14px;text-anchor:start;font-family:Times New Roman"
       y="-453.39999"
       x="142">list_roles</text>
    <text
       id="text8360"
       style="font-size:14px;text-anchor:start;font-family:Times New Roman"
       y="-436.39999"
       x="142">list_users</text>
    <polyline
       id="polyline8362"
       points="134,-428 320,-428 "
       style="fill:none;stroke:#000000" />
    <polyline
       id="polyline8364"
       points="134,-404 320,-404 "
       style="fill:none;stroke:#000000" />
  </g>
  <g
     class="node"
     id="node2"
     transform="translate(224.02791,626.82411)">
    <title
       id="title8367">UsersController</title>
    <polyline
       id="polyline8369"
       points="393,-399 492,-399 "
       style="fill:none;stroke:#000000" />
    <path
       id="path8371"
       d="M 492,-399 C 498,-399 504,-405 504,-411"
       style="fill:none;stroke:#000000" />
    <polyline
       id="polyline8373"
       points="504,-411 504,-588 "
       style="fill:none;stroke:#000000" />
    <path
       id="path8375"
       d="M 504,-588 C 504,-594 498,-600 492,-600"
       style="fill:none;stroke:#000000" />
    <polyline
       id="polyline8377"
       points="492,-600 393,-600 "
       style="fill:none;stroke:#000000" />
    <path
       id="path8379"
       d="M 393,-600 C 387,-600 381,-594 381,-588"
       style="fill:none;stroke:#000000" />
    <polyline
       id="polyline8381"
       points="381,-588 381,-411 "
       style="fill:none;stroke:#000000" />
    <path
       id="path8383"
       d="M 381,-411 C 381,-405 387,-399 393,-399"
       style="fill:none;stroke:#000000" />
    <text
       id="text8385"
       style="font-size:14px;text-anchor:middle;font-family:Times New Roman"
       y="-582.90002"
       x="442">UsersController</text>
    <polyline
       id="polyline8387"
       points="381,-575 504,-575 "
       style="fill:none;stroke:#000000" />
    <text
       id="text8389"
       style="font-size:14px;text-anchor:start;font-family:Times New Roman"
       y="-557.90002"
       x="388.5">activate</text>
    <text
       id="text8391"
       style="font-size:14px;text-anchor:start;font-family:Times New Roman"
       y="-540.90002"
       x="388.5">create</text>
    <text
       id="text8393"
       style="font-size:14px;text-anchor:start;font-family:Times New Roman"
       y="-523.90002"
       x="388.5">destroy</text>
    <text
       id="text8395"
       style="font-size:14px;text-anchor:start;font-family:Times New Roman"
       y="-506.89999"
       x="388.5">new</text>
    <text
       id="text8397"
       style="font-size:14px;text-anchor:start;font-family:Times New Roman"
       y="-489.89999"
       x="388.5">purge</text>
    <text
       id="text8399"
       style="font-size:14px;text-anchor:start;font-family:Times New Roman"
       y="-472.89999"
       x="388.5">suspend</text>
    <text
       id="text8401"
       style="font-size:14px;text-anchor:start;font-family:Times New Roman"
       y="-455.89999"
       x="388.5">unsuspend</text>
    <polyline
       id="polyline8403"
       points="381,-448 504,-448 "
       style="fill:none;stroke:#000000" />
    <text
       id="text8405"
       style="font-size:14px;text-anchor:start;font-family:Times New Roman"
       y="-430.89999"
       x="388.5">find_user</text>
    <polyline
       id="polyline8407"
       points="381,-423 504,-423 "
       style="fill:none;stroke:#000000" />
  </g>
  <g
     class="node"
     id="node3"
     transform="translate(79.093576,827.17786)">
    <title
       id="title8410">SharesController</title>
    <polyline
       id="polyline8412"
       points="13,-153 121,-153 "
       style="fill:none;stroke:#000000" />
    <path
       id="path8414"
       d="M 121,-153 C 127,-153 133,-159 133,-165"
       style="fill:none;stroke:#000000" />
    <polyline
       id="polyline8416"
       points="133,-165 133,-341 "
       style="fill:none;stroke:#000000" />
    <path
       id="path8418"
       d="M 133,-341 C 133,-347 127,-353 121,-353"
       style="fill:none;stroke:#000000" />
    <polyline
       id="polyline8420"
       points="121,-353 13,-353 "
       style="fill:none;stroke:#000000" />
    <path
       id="path8422"
       d="M 13,-353 C 7,-353 1,-347 1,-341"
       style="fill:none;stroke:#000000" />
    <polyline
       id="polyline8424"
       points="1,-341 1,-165 "
       style="fill:none;stroke:#000000" />
    <path
       id="path8426"
       d="M 1,-165 C 1,-159 7,-153 13,-153"
       style="fill:none;stroke:#000000" />
    <text
       id="text8428"
       style="font-size:14px;text-anchor:middle;font-family:Times New Roman"
       y="-335.89999"
       x="67">SharesController</text>
    <polyline
       id="polyline8430"
       points="1,-328 133,-328 "
       style="fill:none;stroke:#000000" />
    <text
       id="text8432"
       style="font-size:14px;text-anchor:start;font-family:Times New Roman"
       y="-310.89999"
       x="9">create</text>
    <text
       id="text8434"
       style="font-size:14px;text-anchor:start;font-family:Times New Roman"
       y="-293.89999"
       x="9">destroy</text>
    <text
       id="text8436"
       style="font-size:14px;text-anchor:start;font-family:Times New Roman"
       y="-276.89999"
       x="9">edit</text>
    <text
       id="text8438"
       style="font-size:14px;text-anchor:start;font-family:Times New Roman"
       y="-259.89999"
       x="9">index</text>
    <text
       id="text8440"
       style="font-size:14px;text-anchor:start;font-family:Times New Roman"
       y="-242.89999"
       x="9">new</text>
    <text
       id="text8442"
       style="font-size:14px;text-anchor:start;font-family:Times New Roman"
       y="-225.89999"
       x="9">show</text>
    <text
       id="text8444"
       style="font-size:14px;text-anchor:start;font-family:Times New Roman"
       y="-208.89999"
       x="9">update</text>
    <polyline
       id="polyline8446"
       points="1,-201 133,-201 "
       style="fill:none;stroke:#000000" />
    <polyline
       id="polyline8448"
       points="1,-177 133,-177 "
       style="fill:none;stroke:#000000" />
  </g>
  <g
     class="node"
     id="node4"
     transform="translate(654.35606,1195.9535)">
    <title
       id="title8451">RolesController</title>
    <polyline
       id="polyline8453"
       points="13,-514 110,-514 "
       style="fill:none;stroke:#000000" />
    <path
       id="path8455"
       d="M 110,-514 C 116,-514 122,-520 122,-526"
       style="fill:none;stroke:#000000" />
    <polyline
       id="polyline8457"
       points="122,-526 122,-702 "
       style="fill:none;stroke:#000000" />
    <path
       id="path8459"
       d="M 122,-702 C 122,-708 116,-714 110,-714"
       style="fill:none;stroke:#000000" />
    <polyline
       id="polyline8461"
       points="110,-714 13,-714 "
       style="fill:none;stroke:#000000" />
    <path
       id="path8463"
       d="M 13,-714 C 7,-714 1,-708 1,-702"
       style="fill:none;stroke:#000000" />
    <polyline
       id="polyline8465"
       points="1,-702 1,-526 "
       style="fill:none;stroke:#000000" />
    <path
       id="path8467"
       d="M 1,-526 C 1,-520 7,-514 13,-514"
       style="fill:none;stroke:#000000" />
    <text
       id="text8469"
       style="font-size:14px;text-anchor:middle;font-family:Times New Roman"
       y="-696.90002"
       x="61">RolesController</text>
    <polyline
       id="polyline8471"
       points="1,-689 122,-689 "
       style="fill:none;stroke:#000000" />
    <text
       id="text8473"
       style="font-size:14px;text-anchor:start;font-family:Times New Roman"
       y="-671.90002"
       x="8.5">create</text>
    <text
       id="text8475"
       style="font-size:14px;text-anchor:start;font-family:Times New Roman"
       y="-654.90002"
       x="8.5">destroy</text>
    <text
       id="text8477"
       style="font-size:14px;text-anchor:start;font-family:Times New Roman"
       y="-637.90002"
       x="8.5">edit</text>
    <text
       id="text8479"
       style="font-size:14px;text-anchor:start;font-family:Times New Roman"
       y="-620.90002"
       x="8.5">index</text>
    <text
       id="text8481"
       style="font-size:14px;text-anchor:start;font-family:Times New Roman"
       y="-603.90002"
       x="8.5">new</text>
    <text
       id="text8483"
       style="font-size:14px;text-anchor:start;font-family:Times New Roman"
       y="-586.90002"
       x="8.5">show</text>
    <text
       id="text8485"
       style="font-size:14px;text-anchor:start;font-family:Times New Roman"
       y="-569.90002"
       x="8.5">update</text>
    <polyline
       id="polyline8487"
       points="1,-562 122,-562 "
       style="fill:none;stroke:#000000" />
    <polyline
       id="polyline8489"
       points="1,-538 122,-538 "
       style="fill:none;stroke:#000000" />
  </g>
  <g
     class="node"
     id="node5"
     transform="translate(-519.7518,440.27104)">
    <title
       id="title8492">EmployeeController</title>
    <polyline
       id="polyline8494"
       points="526,-0 654,-0 "
       style="fill:none;stroke:#000000" />
    <path
       id="path8496"
       d="M 654,0 C 660,0 666,-6 666,-12"
       style="fill:none;stroke:#000000" />
    <polyline
       id="polyline8498"
       points="666,-12 666,-103 "
       style="fill:none;stroke:#000000" />
    <path
       id="path8500"
       d="M 666,-103 C 666,-109 660,-115 654,-115"
       style="fill:none;stroke:#000000" />
    <polyline
       id="polyline8502"
       points="654,-115 526,-115 "
       style="fill:none;stroke:#000000" />
    <path
       id="path8504"
       d="M 526,-115 C 520,-115 514,-109 514,-103"
       style="fill:none;stroke:#000000" />
    <polyline
       id="polyline8506"
       points="514,-103 514,-12 "
       style="fill:none;stroke:#000000" />
    <path
       id="path8508"
       d="M 514,-12 C 514,-6 520,0 526,0"
       style="fill:none;stroke:#000000" />
    <text
       id="text8510"
       style="font-size:14px;text-anchor:middle;font-family:Times New Roman"
       y="-97.900002"
       x="590">EmployeeController</text>
    <polyline
       id="polyline8512"
       points="514,-90 666,-90 "
       style="fill:none;stroke:#000000" />
    <text
       id="text8514"
       style="font-size:14px;text-anchor:start;font-family:Times New Roman"
       y="-73.400002"
       x="522">list_documents</text>
    <text
       id="text8516"
       style="font-size:14px;text-anchor:start;font-family:Times New Roman"
       y="-56.400002"
       x="522">list_shares</text>
    <polyline
       id="polyline8518"
       points="514,-48 666,-48 "
       style="fill:none;stroke:#000000" />
    <polyline
       id="polyline8520"
       points="514,-24 666,-24 "
       style="fill:none;stroke:#000000" />
  </g>
  <g
     class="node"
     id="node6"
     transform="translate(-397.67574,279.3651)">
    <title
       id="title8523">SessionsController</title>
    <polyline
       id="polyline8525"
       points="355,-19 475,-19 "
       style="fill:none;stroke:#000000" />
    <path
       id="path8527"
       d="M 475,-19 C 481,-19 487,-25 487,-31"
       style="fill:none;stroke:#000000" />
    <polyline
       id="polyline8529"
       points="487,-31 487,-140 "
       style="fill:none;stroke:#000000" />
    <path
       id="path8531"
       d="M 487,-140 C 487,-146 481,-152 475,-152"
       style="fill:none;stroke:#000000" />
    <polyline
       id="polyline8533"
       points="475,-152 355,-152 "
       style="fill:none;stroke:#000000" />
    <path
       id="path8535"
       d="M 355,-152 C 349,-152 343,-146 343,-140"
       style="fill:none;stroke:#000000" />
    <polyline
       id="polyline8537"
       points="343,-140 343,-31 "
       style="fill:none;stroke:#000000" />
    <path
       id="path8539"
       d="M 343,-31 C 343,-25 349,-19 355,-19"
       style="fill:none;stroke:#000000" />
    <text
       id="text8541"
       style="font-size:14px;text-anchor:middle;font-family:Times New Roman"
       y="-134.89999"
       x="415">SessionsController</text>
    <polyline
       id="polyline8543"
       points="343,-127 487,-127 "
       style="fill:none;stroke:#000000" />
    <text
       id="text8545"
       style="font-size:14px;text-anchor:start;font-family:Times New Roman"
       y="-109.9"
       x="351">create</text>
    <text
       id="text8547"
       style="font-size:14px;text-anchor:start;font-family:Times New Roman"
       y="-92.900002"
       x="351">destroy</text>
    <text
       id="text8549"
       style="font-size:14px;text-anchor:start;font-family:Times New Roman"
       y="-75.900002"
       x="351">new</text>
    <polyline
       id="polyline8551"
       points="343,-68 487,-68 "
       style="fill:none;stroke:#000000" />
    <text
       id="text8553"
       style="font-size:14px;text-anchor:start;font-family:Times New Roman"
       y="-50.900002"
       x="351">note_failed_signin</text>
    <polyline
       id="polyline8555"
       points="343,-43 487,-43 "
       style="fill:none;stroke:#000000" />
  </g>
  <g
     class="node"
     id="node7"
     transform="translate(79.097345,391.36725)">
    <title
       id="title8558">HomeController</title>
    <polyline
       id="polyline8560"
       points="184,-20 285,-20 "
       style="fill:none;stroke:#000000" />
    <path
       id="path8562"
       d="M 285,-20 C 291,-20 297,-26 297,-32"
       style="fill:none;stroke:#000000" />
    <polyline
       id="polyline8564"
       points="297,-32 297,-106 "
       style="fill:none;stroke:#000000" />
    <path
       id="path8566"
       d="M 297,-106 C 297,-112 291,-118 285,-118"
       style="fill:none;stroke:#000000" />
    <polyline
       id="polyline8568"
       points="285,-118 184,-118 "
       style="fill:none;stroke:#000000" />
    <path
       id="path8570"
       d="M 184,-118 C 178,-118 172,-112 172,-106"
       style="fill:none;stroke:#000000" />
    <polyline
       id="polyline8572"
       points="172,-106 172,-32 "
       style="fill:none;stroke:#000000" />
    <path
       id="path8574"
       d="M 172,-32 C 172,-26 178,-20 184,-20"
       style="fill:none;stroke:#000000" />
    <text
       id="text8576"
       style="font-size:14px;text-anchor:middle;font-family:Times New Roman"
       y="-100.9"
       x="234">HomeController</text>
    <polyline
       id="polyline8578"
       points="172,-93 297,-93 "
       style="fill:none;stroke:#000000" />
    <text
       id="text8580"
       style="font-size:14px;text-anchor:start;font-family:Times New Roman"
       y="-75.900002"
       x="179.5">index</text>
    <polyline
       id="polyline8582"
       points="172,-68 297,-68 "
       style="fill:none;stroke:#000000" />
    <polyline
       id="polyline8584"
       points="172,-44 297,-44 "
       style="fill:none;stroke:#000000" />
  </g>
  <g
     class="node"
     id="node8"
     transform="translate(243.07974,146.46372)">
    <title
       id="title8587">ApplicationController</title>
    <polyline
       id="polyline8589"
       points="13,-20 150,-20 "
       style="fill:none;stroke:#000000" />
    <path
       id="path8591"
       d="M 150,-20 C 156,-20 162,-26 162,-32"
       style="fill:none;stroke:#000000" />
    <polyline
       id="polyline8593"
       points="162,-32 162,-106 "
       style="fill:none;stroke:#000000" />
    <path
       id="path8595"
       d="M 162,-106 C 162,-112 156,-118 150,-118"
       style="fill:none;stroke:#000000" />
    <polyline
       id="polyline8597"
       points="150,-118 13,-118 "
       style="fill:none;stroke:#000000" />
    <path
       id="path8599"
       d="M 13,-118 C 7,-118 1,-112 1,-106"
       style="fill:none;stroke:#000000" />
    <polyline
       id="polyline8601"
       points="1,-106 1,-32 "
       style="fill:none;stroke:#000000" />
    <path
       id="path8603"
       d="M 1,-32 C 1,-26 7,-20 13,-20"
       style="fill:none;stroke:#000000" />
    <text
       id="text8605"
       style="font-size:14px;text-anchor:middle;font-family:Times New Roman"
       y="-100.9"
       x="81">ApplicationController</text>
    <polyline
       id="polyline8607"
       points="1,-93 162,-93 "
       style="fill:none;stroke:#000000" />
    <polyline
       id="polyline8609"
       points="1,-69 162,-69 "
       style="fill:none;stroke:#000000" />
    <text
       id="text8611"
       style="font-size:14px;text-anchor:start;font-family:Times New Roman"
       y="-51.900002"
       x="8.5">filter_parameters</text>
    <polyline
       id="polyline8613"
       points="1,-44 162,-44 "
       style="fill:none;stroke:#000000" />
  </g>
  <g
     class="node"
     id="node9"
     transform="translate(-249.27392,842.57978)">
    <title
       id="title8616">DocumentsController</title>
    <polyline
       id="polyline8618"
       points="165,-134 304,-134 "
       style="fill:none;stroke:#000000" />
    <path
       id="path8620"
       d="M 304,-134 C 310,-134 316,-140 316,-146"
       style="fill:none;stroke:#000000" />
    <polyline
       id="polyline8622"
       points="316,-146 316,-356 "
       style="fill:none;stroke:#000000" />
    <path
       id="path8624"
       d="M 316,-356 C 316,-362 310,-368 304,-368"
       style="fill:none;stroke:#000000" />
    <polyline
       id="polyline8626"
       points="304,-368 165,-368 "
       style="fill:none;stroke:#000000" />
    <path
       id="path8628"
       d="M 165,-368 C 159,-368 153,-362 153,-356"
       style="fill:none;stroke:#000000" />
    <polyline
       id="polyline8630"
       points="153,-356 153,-146 "
       style="fill:none;stroke:#000000" />
    <path
       id="path8632"
       d="M 153,-146 C 153,-140 159,-134 165,-134"
       style="fill:none;stroke:#000000" />
    <text
       id="text8634"
       style="font-size:14px;text-anchor:middle;font-family:Times New Roman"
       y="-350.89999"
       x="234">DocumentsController</text>
    <polyline
       id="polyline8636"
       points="153,-343 316,-343 "
       style="fill:none;stroke:#000000" />
    <text
       id="text8638"
       style="font-size:14px;text-anchor:start;font-family:Times New Roman"
       y="-325.89999"
       x="160.5">checkin</text>
    <text
       id="text8640"
       style="font-size:14px;text-anchor:start;font-family:Times New Roman"
       y="-308.89999"
       x="160.5">checkout</text>
    <text
       id="text8642"
       style="font-size:14px;text-anchor:start;font-family:Times New Roman"
       y="-291.89999"
       x="160.5">create</text>
    <text
       id="text8644"
       style="font-size:14px;text-anchor:start;font-family:Times New Roman"
       y="-274.89999"
       x="160.5">destroy</text>
    <text
       id="text8646"
       style="font-size:14px;text-anchor:start;font-family:Times New Roman"
       y="-257.89999"
       x="160.5">edit</text>
    <text
       id="text8648"
       style="font-size:14px;text-anchor:start;font-family:Times New Roman"
       y="-240.89999"
       x="160.5">index</text>
    <text
       id="text8650"
       style="font-size:14px;text-anchor:start;font-family:Times New Roman"
       y="-223.89999"
       x="160.5">new</text>
    <text
       id="text8652"
       style="font-size:14px;text-anchor:start;font-family:Times New Roman"
       y="-206.89999"
       x="160.5">show</text>
    <text
       id="text8654"
       style="font-size:14px;text-anchor:start;font-family:Times New Roman"
       y="-189.89999"
       x="160.5">update</text>
    <polyline
       id="polyline8656"
       points="153,-182 316,-182 "
       style="fill:none;stroke:#000000" />
    <polyline
       id="polyline8658"
       points="153,-158 316,-158 "
       style="fill:none;stroke:#000000" />
  </g>
  <g
     class="node"
     id="node10"
     transform="translate(-2.5929049,1082.3109)">
    <title
       id="title8661">AuditsController</title>
    <polyline
       id="polyline8663"
       points="526,-400 631,-400 "
       style="fill:none;stroke:#000000" />
    <path
       id="path8665"
       d="M 631,-400 C 637,-400 643,-406 643,-412"
       style="fill:none;stroke:#000000" />
    <polyline
       id="polyline8667"
       points="643,-412 643,-588 "
       style="fill:none;stroke:#000000" />
    <path
       id="path8669"
       d="M 643,-588 C 643,-594 637,-600 631,-600"
       style="fill:none;stroke:#000000" />
    <polyline
       id="polyline8671"
       points="631,-600 526,-600 "
       style="fill:none;stroke:#000000" />
    <path
       id="path8673"
       d="M 526,-600 C 520,-600 514,-594 514,-588"
       style="fill:none;stroke:#000000" />
    <polyline
       id="polyline8675"
       points="514,-588 514,-412 "
       style="fill:none;stroke:#000000" />
    <path
       id="path8677"
       d="M 514,-412 C 514,-406 520,-400 526,-400"
       style="fill:none;stroke:#000000" />
    <text
       id="text8679"
       style="font-size:14px;text-anchor:middle;font-family:Times New Roman"
       y="-582.90002"
       x="578">AuditsController</text>
    <polyline
       id="polyline8681"
       points="514,-575 643,-575 "
       style="fill:none;stroke:#000000" />
    <text
       id="text8683"
       style="font-size:14px;text-anchor:start;font-family:Times New Roman"
       y="-557.90002"
       x="521.5">create</text>
    <text
       id="text8685"
       style="font-size:14px;text-anchor:start;font-family:Times New Roman"
       y="-540.90002"
       x="521.5">destroy</text>
    <text
       id="text8687"
       style="font-size:14px;text-anchor:start;font-family:Times New Roman"
       y="-523.90002"
       x="521.5">edit</text>
    <text
       id="text8689"
       style="font-size:14px;text-anchor:start;font-family:Times New Roman"
       y="-506.89999"
       x="521.5">index</text>
    <text
       id="text8691"
       style="font-size:14px;text-anchor:start;font-family:Times New Roman"
       y="-489.89999"
       x="521.5">new</text>
    <text
       id="text8693"
       style="font-size:14px;text-anchor:start;font-family:Times New Roman"
       y="-472.89999"
       x="521.5">show</text>
    <text
       id="text8695"
       style="font-size:14px;text-anchor:start;font-family:Times New Roman"
       y="-455.89999"
       x="521.5">update</text>
    <polyline
       id="polyline8697"
       points="514,-448 643,-448 "
       style="fill:none;stroke:#000000" />
    <polyline
       id="polyline8699"
       points="514,-424 643,-424 "
       style="fill:none;stroke:#000000" />
  </g>
  <g
     class="node"
     id="node11"
     transform="translate(-22.85977,854.63391)">
    <title
       id="title8702">DepartmentsController</title>
    <polyline
       id="polyline8704"
       points="355,-172 507,-172 "
       style="fill:none;stroke:#000000" />
    <path
       id="path8706"
       d="M 507,-172 C 513,-172 519,-178 519,-184"
       style="fill:none;stroke:#000000" />
    <polyline
       id="polyline8708"
       points="519,-184 519,-360 "
       style="fill:none;stroke:#000000" />
    <path
       id="path8710"
       d="M 519,-360 C 519,-366 513,-372 507,-372"
       style="fill:none;stroke:#000000" />
    <polyline
       id="polyline8712"
       points="507,-372 355,-372 "
       style="fill:none;stroke:#000000" />
    <path
       id="path8714"
       d="M 355,-372 C 349,-372 343,-366 343,-360"
       style="fill:none;stroke:#000000" />
    <polyline
       id="polyline8716"
       points="343,-360 343,-184 "
       style="fill:none;stroke:#000000" />
    <path
       id="path8718"
       d="M 343,-184 C 343,-178 349,-172 355,-172"
       style="fill:none;stroke:#000000" />
    <text
       id="text8720"
       style="font-size:14px;text-anchor:middle;font-family:Times New Roman"
       y="-354.89999"
       x="431">DepartmentsController</text>
    <polyline
       id="polyline8722"
       points="343,-347 519,-347 "
       style="fill:none;stroke:#000000" />
    <text
       id="text8724"
       style="font-size:14px;text-anchor:start;font-family:Times New Roman"
       y="-329.89999"
       x="351">create</text>
    <text
       id="text8726"
       style="font-size:14px;text-anchor:start;font-family:Times New Roman"
       y="-312.89999"
       x="351">destroy</text>
    <text
       id="text8728"
       style="font-size:14px;text-anchor:start;font-family:Times New Roman"
       y="-295.89999"
       x="351">edit</text>
    <text
       id="text8730"
       style="font-size:14px;text-anchor:start;font-family:Times New Roman"
       y="-278.89999"
       x="351">index</text>
    <text
       id="text8732"
       style="font-size:14px;text-anchor:start;font-family:Times New Roman"
       y="-261.89999"
       x="351">new</text>
    <text
       id="text8734"
       style="font-size:14px;text-anchor:start;font-family:Times New Roman"
       y="-244.89999"
       x="351">show</text>
    <text
       id="text8736"
       style="font-size:14px;text-anchor:start;font-family:Times New Roman"
       y="-227.89999"
       x="351">update</text>
    <polyline
       id="polyline8738"
       points="343,-220 519,-220 "
       style="fill:none;stroke:#000000" />
    <polyline
       id="polyline8740"
       points="343,-196 519,-196 "
       style="fill:none;stroke:#000000" />
  </g>
  <path
     style="fill:none;fill-rule:evenodd;stroke:#000000;stroke-width:1px;stroke-linecap:butt;stroke-linejoin:miter;stroke-opacity:1"
     d="M 139.85213,440.77104 L 139.85213,440.77104"
     id="path8966"
     inkscape:connector-type="polyline"
     inkscape:connection-start="#node5"
     inkscape:connection-end="#node5" />
  <path
     style="fill:none;fill-rule:evenodd;stroke:#000000;stroke-width:1px;stroke-linecap:butt;stroke-linejoin:miter;stroke-opacity:1"
     d="M 19.88976,440.76999 L 3.4491769,474.56453"
     id="path8970"
     inkscape:connector-type="polyline" />
  <path
     style="fill:none;fill-rule:evenodd;stroke:#000000;stroke-width:1px;stroke-linecap:butt;stroke-linejoin:miter;stroke-opacity:1"
     d="M 112.1397,440.76999 L 140.45403,474.56453"
     id="path8972"
     inkscape:connector-type="polyline" />
  <path
     style="fill:none;fill-rule:evenodd;stroke:#000000;stroke-width:1.09033728px;stroke-linecap:butt;stroke-linejoin:miter;stroke-opacity:1;display:inline"
     d="M 289.91133,126.96372 L 89.82426,183.77041"
     id="path8976"
     inkscape:connector-type="polyline"
     inkscape:connection-start="#node8"
     inkscape:connection-end="#node6" />
  <path
     style="fill:none;fill-rule:evenodd;stroke:#000000;stroke-width:1px;stroke-linecap:butt;stroke-linejoin:miter;stroke-opacity:1;display:inline"
     d="M 405.57974,88.126634 L 604.52791,102.96702"
     id="path8978"
     inkscape:connector-type="polyline"
     inkscape:connection-start="#node8"
     inkscape:connection-end="#node2" />
  <path
     style="fill:none;fill-rule:evenodd;stroke:#000000;stroke-width:1px;stroke-linecap:butt;stroke-linejoin:miter;stroke-opacity:1;display:inline"
     d="M 486.61964,437.11653 L 412.63702,482.78482"
     id="path8986"
     inkscape:connector-type="polyline" />
  <path
     style="fill:none;fill-rule:evenodd;stroke:#000000;stroke-width:1px;stroke-linecap:butt;stroke-linejoin:miter;stroke-opacity:1"
     d="M 575.21611,456.29721 L 572.47602,482.78482"
     id="path8988"
     inkscape:connector-type="polyline" />
  <path
     style="fill:none;fill-rule:evenodd;stroke:#000000;stroke-width:1px;stroke-linecap:butt;stroke-linejoin:miter;stroke-opacity:1"
     d="M 669.29278,453.55711 L 717.70116,482.78482"
     id="path8990"
     inkscape:connector-type="polyline" />
  <path
     style="fill:none;fill-rule:evenodd;stroke:#000000;stroke-width:1px;stroke-linecap:butt;stroke-linejoin:miter;stroke-opacity:1;display:inline"
     d="M 252.79802,332.99284 L 146.7482,361.9108"
     id="path8994"
     inkscape:connector-type="polyline"
     inkscape:connection-end="#node5" />
  <path
     style="fill:none;fill-rule:evenodd;stroke:#000000;stroke-width:1px;stroke-linecap:butt;stroke-linejoin:miter;stroke-opacity:1;display:inline"
     d="M 376.59735,341.53441 L 486.61964,375.00766"
     id="path8996"
     inkscape:connector-type="polyline"
     inkscape:connection-start="#node7" />
  <path
     style="fill:none;fill-rule:evenodd;stroke:#000000;stroke-width:1px;stroke-linecap:butt;stroke-linejoin:miter;stroke-opacity:1;display:inline"
     d="M 327.68489,126.96372 L 336.82766,272.7107"
     id="path8998"
     inkscape:connector-type="polyline"
     inkscape:connection-start="#node8" />
  <path
     style="fill:none;fill-rule:evenodd;stroke:#000000;stroke-width:1px;stroke-linecap:butt;stroke-linejoin:miter;stroke-opacity:1"
     d="M 394.48748,126.96372 L 590.66521,308.34771"
     id="path9000"
     inkscape:connector-type="polyline"
     inkscape:connection-start="#node8"
     inkscape:connection-end="#node1" />
  <path
     style="fill:none;fill-rule:evenodd;stroke:#000000;stroke-width:1px;stroke-linecap:butt;stroke-linejoin:miter;stroke-opacity:1"
     d="M 317.8584,126.96372 L 146.7482,344.89126"
     id="path9002"
     inkscape:connector-type="polyline"
     inkscape:connection-start="#node8"
     inkscape:connection-end="#node5" />
  <path
     style="fill:none;fill-rule:evenodd;stroke:#000000;stroke-width:1px;stroke-linecap:butt;stroke-linejoin:miter;stroke-opacity:1;display:inline"
     d="M 682.99327,227.04242 L 628.87147,308.34771"
     id="path9006"
     inkscape:connector-type="polyline"
     inkscape:connection-end="#node1" />
</svg>
