<?xml version="1.0" encoding="UTF-8" standalone="no"?>
<!DOCTYPE svg PUBLIC "-//W3C//DTD SVG 1.0//EN"
 "http://www.w3.org/TR/2001/REC-SVG-20010904/DTD/svg10.dtd" [
 <!ATTLIST svg xmlns:xlink CDATA #FIXED "http://www.w3.org/1999/xlink">
]>
<!-- Generated by Graphviz version 2.20.2 (Mon Mar 30 10:11:53 UTC 2009)
     For user: (adigiro) Anthony,,,, -->
<!-- Title: models_diagram Pages: 1 -->
<svg width="650pt" height="622pt"
 viewBox="0.00 0.00 650.00 622.00" xmlns="http://www.w3.org/2000/svg" xmlns:xlink="http://www.w3.org/1999/xlink">
<g id="graph0" class="graph" transform="scale(1 1) rotate(0) translate(4 618)">
<title>models_diagram</title>
<polygon style="fill:white;stroke:white;" points="-4,4 -4,-618 646,-618 646,4 -4,4"/>
<!-- User -->
<g id="node1" class="node"><title>User</title>
<polyline style="fill:none;stroke:black;" points="181,-342 439,-342 "/>
<path style="fill:none;stroke:black;" d="M439,-342C445,-342 451,-348 451,-354"/>
<polyline style="fill:none;stroke:black;" points="451,-354 451,-601 "/>
<path style="fill:none;stroke:black;" d="M451,-601C451,-607 445,-613 439,-613"/>
<polyline style="fill:none;stroke:black;" points="439,-613 181,-613 "/>
<path style="fill:none;stroke:black;" d="M181,-613C175,-613 169,-607 169,-601"/>
<polyline style="fill:none;stroke:black;" points="169,-601 169,-354 "/>
<path style="fill:none;stroke:black;" d="M169,-354C169,-348 175,-342 181,-342"/>
<text text-anchor="middle" x="310" y="-595.9" style="font-family:Times New Roman;font-size:14.00;">User</text>
<polyline style="fill:none;stroke:black;" points="169,-588 451,-588 "/>
<text text-anchor="start" x="177" y="-571.4" style="font-family:Times New Roman;font-size:14.00;">login :string</text>
<text text-anchor="start" x="177" y="-554.4" style="font-family:Times New Roman;font-size:14.00;">name :string</text>
<text text-anchor="start" x="177" y="-537.4" style="font-family:Times New Roman;font-size:14.00;">email :string</text>
<text text-anchor="start" x="177" y="-520.4" style="font-family:Times New Roman;font-size:14.00;">crypted_password :string</text>
<text text-anchor="start" x="177" y="-503.4" style="font-family:Times New Roman;font-size:14.00;">salt :string</text>
<text text-anchor="start" x="177" y="-486.4" style="font-family:Times New Roman;font-size:14.00;">created_at :datetime</text>
<text text-anchor="start" x="177" y="-469.4" style="font-family:Times New Roman;font-size:14.00;">updated_at :datetime</text>
<text text-anchor="start" x="177" y="-452.4" style="font-family:Times New Roman;font-size:14.00;">remember_token :string</text>
<text text-anchor="start" x="177" y="-435.4" style="font-family:Times New Roman;font-size:14.00;">remember_token_expires_at :datetime</text>
<text text-anchor="start" x="177" y="-418.4" style="font-family:Times New Roman;font-size:14.00;">activation_code :string</text>
<text text-anchor="start" x="177" y="-401.4" style="font-family:Times New Roman;font-size:14.00;">activated_at :datetime</text>
<text text-anchor="start" x="177" y="-384.4" style="font-family:Times New Roman;font-size:14.00;">state :string</text>
<text text-anchor="start" x="177" y="-367.4" style="font-family:Times New Roman;font-size:14.00;">deleted_at :datetime</text>
<text text-anchor="start" x="177" y="-350.4" style="font-family:Times New Roman;font-size:14.00;">quota :integer</text>
</g>
<!-- Request -->
<g id="node2" class="node"><title>Request</title>
<polyline style="fill:none;stroke:black;" points="50,-25 191,-25 "/>
<path style="fill:none;stroke:black;" d="M191,-25C197,-25 203,-31 203,-37"/>
<polyline style="fill:none;stroke:black;" points="203,-37 203,-80 "/>
<path style="fill:none;stroke:black;" d="M203,-80C203,-86 197,-92 191,-92"/>
<polyline style="fill:none;stroke:black;" points="191,-92 50,-92 "/>
<path style="fill:none;stroke:black;" d="M50,-92C44,-92 38,-86 38,-80"/>
<polyline style="fill:none;stroke:black;" points="38,-80 38,-37 "/>
<path style="fill:none;stroke:black;" d="M38,-37C38,-31 44,-25 50,-25"/>
<text text-anchor="middle" x="120" y="-74.9" style="font-family:Times New Roman;font-size:14.00;">Request</text>
<polyline style="fill:none;stroke:black;" points="38,-67 203,-67 "/>
<text text-anchor="start" x="45.5" y="-50.4" style="font-family:Times New Roman;font-size:14.00;">created_at :datetime</text>
<text text-anchor="start" x="45.5" y="-33.4" style="font-family:Times New Roman;font-size:14.00;">updated_at :datetime</text>
</g>
<!-- User&#45;&gt;Request -->
<g id="edge2" class="edge"><title>User&#45;&gt;Request</title>
<path style="fill:none;stroke:black;" d="M160,-421C109,-395 58,-357 29,-306 -4,-247 4,-216 29,-154 38,-133 54,-113 70,-97"/>
<polygon style="fill:black;stroke:black;" points="160.258,-421.144 166.815,-429.934 164.629,-423.572 169,-426 169,-426 169,-426 164.629,-423.572 171.185,-422.066 160.258,-421.144 160.258,-421.144"/>
<ellipse style="fill:black;stroke:black;" cx="72.9271" cy="-94.5608" rx="4.00002" ry="4.00002"/>
</g>
<!-- Department -->
<g id="node3" class="node"><title>Department</title>
<polyline style="fill:none;stroke:black;" points="50,-188 191,-188 "/>
<path style="fill:none;stroke:black;" d="M191,-188C197,-188 203,-194 203,-200"/>
<polyline style="fill:none;stroke:black;" points="203,-200 203,-260 "/>
<path style="fill:none;stroke:black;" d="M203,-260C203,-266 197,-272 191,-272"/>
<polyline style="fill:none;stroke:black;" points="191,-272 50,-272 "/>
<path style="fill:none;stroke:black;" d="M50,-272C44,-272 38,-266 38,-260"/>
<polyline style="fill:none;stroke:black;" points="38,-260 38,-200 "/>
<path style="fill:none;stroke:black;" d="M38,-200C38,-194 44,-188 50,-188"/>
<text text-anchor="middle" x="120" y="-254.9" style="font-family:Times New Roman;font-size:14.00;">Department</text>
<polyline style="fill:none;stroke:black;" points="38,-247 203,-247 "/>
<text text-anchor="start" x="45.5" y="-229.9" style="font-family:Times New Roman;font-size:14.00;">name :string</text>
<text text-anchor="start" x="45.5" y="-212.9" style="font-family:Times New Roman;font-size:14.00;">created_at :datetime</text>
<text text-anchor="start" x="45.5" y="-195.9" style="font-family:Times New Roman;font-size:14.00;">updated_at :datetime</text>
</g>
<!-- User&#45;&gt;Department -->
<g id="edge12" class="edge"><title>User&#45;&gt;Department</title>
<path style="fill:none;stroke:black;" d="M200,-334C185,-315 170,-297 158,-280"/>
<polygon style="fill:black;stroke:black;" points="200,-334 202.4,-344.7 203,-338 206,-342 206,-342 206,-342 203,-338 209.6,-339.3 200,-334 200,-334"/>
<polygon style="fill:black;stroke:black;" points="158,-280 155.6,-269.3 155,-276 152,-272 152,-272 152,-272 155,-276 148.4,-274.7 158,-280 158,-280"/>
</g>
<!-- Document -->
<g id="node4" class="node"><title>Document</title>
<polyline style="fill:none;stroke:black;" points="390,-154 531,-154 "/>
<path style="fill:none;stroke:black;" d="M531,-154C537,-154 543,-160 543,-166"/>
<polyline style="fill:none;stroke:black;" points="543,-166 543,-294 "/>
<path style="fill:none;stroke:black;" d="M543,-294C543,-300 537,-306 531,-306"/>
<polyline style="fill:none;stroke:black;" points="531,-306 390,-306 "/>
<path style="fill:none;stroke:black;" d="M390,-306C384,-306 378,-300 378,-294"/>
<polyline style="fill:none;stroke:black;" points="378,-294 378,-166 "/>
<path style="fill:none;stroke:black;" d="M378,-166C378,-160 384,-154 390,-154"/>
<text text-anchor="middle" x="460" y="-288.9" style="font-family:Times New Roman;font-size:14.00;">Document</text>
<polyline style="fill:none;stroke:black;" points="378,-281 543,-281 "/>
<text text-anchor="start" x="385.5" y="-263.9" style="font-family:Times New Roman;font-size:14.00;">name :string</text>
<text text-anchor="start" x="385.5" y="-246.9" style="font-family:Times New Roman;font-size:14.00;">content_type :string</text>
<text text-anchor="start" x="385.5" y="-229.9" style="font-family:Times New Roman;font-size:14.00;">data :binary</text>
<text text-anchor="start" x="385.5" y="-212.9" style="font-family:Times New Roman;font-size:14.00;">size :integer</text>
<text text-anchor="start" x="385.5" y="-195.9" style="font-family:Times New Roman;font-size:14.00;">checked_out :boolean</text>
<text text-anchor="start" x="385.5" y="-178.9" style="font-family:Times New Roman;font-size:14.00;">created_at :datetime</text>
<text text-anchor="start" x="385.5" y="-161.9" style="font-family:Times New Roman;font-size:14.00;">updated_at :datetime</text>
</g>
<!-- User&#45;&gt;Document -->
<g id="edge4" class="edge"><title>User&#45;&gt;Document</title>
<path style="fill:none;stroke:black;" d="M397,-333C401,-326 406,-320 410,-313"/>
<polygon style="fill:black;stroke:black;" points="396.856,-333.258 388.066,-339.815 394.428,-337.629 392,-342 392,-342 392,-342 394.428,-337.629 395.934,-344.185 396.856,-333.258 396.856,-333.258"/>
<ellipse style="fill:black;stroke:black;" cx="412.015" cy="-309.473" rx="4.00002" ry="4.00002"/>
</g>
<!-- Role -->
<g id="node5" class="node"><title>Role</title>
<polyline style="fill:none;stroke:black;" points="232,-205 311,-205 "/>
<path style="fill:none;stroke:black;" d="M311,-205C317,-205 323,-211 323,-217"/>
<polyline style="fill:none;stroke:black;" points="323,-217 323,-243 "/>
<path style="fill:none;stroke:black;" d="M323,-243C323,-249 317,-255 311,-255"/>
<polyline style="fill:none;stroke:black;" points="311,-255 232,-255 "/>
<path style="fill:none;stroke:black;" d="M232,-255C226,-255 220,-249 220,-243"/>
<polyline style="fill:none;stroke:black;" points="220,-243 220,-217 "/>
<path style="fill:none;stroke:black;" d="M220,-217C220,-211 226,-205 232,-205"/>
<text text-anchor="middle" x="271" y="-237.9" style="font-family:Times New Roman;font-size:14.00;">Role</text>
<polyline style="fill:none;stroke:black;" points="220,-230 323,-230 "/>
<text text-anchor="start" x="227.5" y="-212.9" style="font-family:Times New Roman;font-size:14.00;">name :string</text>
</g>
<!-- User&#45;&gt;Role -->
<g id="edge10" class="edge"><title>User&#45;&gt;Role</title>
<path style="fill:none;stroke:black;" d="M287,-332C283,-307 279,-283 277,-265"/>
<polygon style="fill:black;stroke:black;" points="287.039,-332.194 284.587,-342.883 288.019,-337.097 289,-342 289,-342 289,-342 288.019,-337.097 293.413,-341.117 287.039,-332.194 287.039,-332.194"/>
<polygon style="fill:black;stroke:black;" points="276.961,-264.806 279.413,-254.117 275.981,-259.903 275,-255 275,-255 275,-255 275.981,-259.903 270.587,-255.883 276.961,-264.806 276.961,-264.806"/>
</g>
<!-- Audit -->
<g id="node6" class="node"><title>Audit</title>
<polyline style="fill:none;stroke:black;" points="289,-8 430,-8 "/>
<path style="fill:none;stroke:black;" d="M430,-8C436,-8 442,-14 442,-20"/>
<polyline style="fill:none;stroke:black;" points="442,-20 442,-97 "/>
<path style="fill:none;stroke:black;" d="M442,-97C442,-103 436,-109 430,-109"/>
<polyline style="fill:none;stroke:black;" points="430,-109 289,-109 "/>
<path style="fill:none;stroke:black;" d="M289,-109C283,-109 277,-103 277,-97"/>
<polyline style="fill:none;stroke:black;" points="277,-97 277,-20 "/>
<path style="fill:none;stroke:black;" d="M277,-20C277,-14 283,-8 289,-8"/>
<text text-anchor="middle" x="359" y="-91.9" style="font-family:Times New Roman;font-size:14.00;">Audit</text>
<polyline style="fill:none;stroke:black;" points="277,-84 442,-84 "/>
<text text-anchor="start" x="284.5" y="-67.4" style="font-family:Times New Roman;font-size:14.00;">action :string</text>
<text text-anchor="start" x="284.5" y="-50.4" style="font-family:Times New Roman;font-size:14.00;">time :datetime</text>
<text text-anchor="start" x="284.5" y="-33.4" style="font-family:Times New Roman;font-size:14.00;">created_at :datetime</text>
<text text-anchor="start" x="284.5" y="-16.4" style="font-family:Times New Roman;font-size:14.00;">updated_at :datetime</text>
</g>
<!-- User&#45;&gt;Audit -->
<g id="edge6" class="edge"><title>User&#45;&gt;Audit</title>
<path style="fill:none;stroke:black;" d="M327,-332C329,-323 330,-315 331,-306 338,-242 346,-167 352,-117"/>
<polygon style="fill:black;stroke:black;" points="326.995,-332.05 321.522,-341.552 326.498,-337.025 326,-342 326,-342 326,-342 326.498,-337.025 330.478,-342.448 326.995,-332.05 326.995,-332.05"/>
<ellipse style="fill:black;stroke:black;" cx="352.504" cy="-112.969" rx="4.00001" ry="4.00001"/>
</g>
<!-- Share -->
<g id="node7" class="node"><title>Share</title>
<polyline style="fill:none;stroke:black;" points="490,-0 631,-0 "/>
<path style="fill:none;stroke:black;" d="M631,-0C637,-0 643,-6 643,-12"/>
<polyline style="fill:none;stroke:black;" points="643,-12 643,-106 "/>
<path style="fill:none;stroke:black;" d="M643,-106C643,-112 637,-118 631,-118"/>
<polyline style="fill:none;stroke:black;" points="631,-118 490,-118 "/>
<path style="fill:none;stroke:black;" d="M490,-118C484,-118 478,-112 478,-106"/>
<polyline style="fill:none;stroke:black;" points="478,-106 478,-12 "/>
<path style="fill:none;stroke:black;" d="M478,-12C478,-6 484,-0 490,-0"/>
<text text-anchor="middle" x="560" y="-100.9" style="font-family:Times New Roman;font-size:14.00;">Share</text>
<polyline style="fill:none;stroke:black;" points="478,-93 643,-93 "/>
<text text-anchor="start" x="485.5" y="-75.9" style="font-family:Times New Roman;font-size:14.00;">read :boolean</text>
<text text-anchor="start" x="485.5" y="-58.9" style="font-family:Times New Roman;font-size:14.00;">update :boolean</text>
<text text-anchor="start" x="485.5" y="-41.9" style="font-family:Times New Roman;font-size:14.00;">checkout :boolean</text>
<text text-anchor="start" x="485.5" y="-24.9" style="font-family:Times New Roman;font-size:14.00;">created_at :datetime</text>
<text text-anchor="start" x="485.5" y="-7.9" style="font-family:Times New Roman;font-size:14.00;">updated_at :datetime</text>
</g>
<!-- User&#45;&gt;Share -->
<g id="edge8" class="edge"><title>User&#45;&gt;Share</title>
<path style="fill:none;stroke:black;" d="M460,-402C496,-377 530,-345 551,-306 580,-251 579,-179 573,-126"/>
<polygon style="fill:black;stroke:black;" points="459.321,-402.453 448.504,-404.256 455.16,-405.226 451,-408 451,-408 451,-408 455.16,-405.226 453.496,-411.744 459.321,-402.453 459.321,-402.453"/>
<ellipse style="fill:black;stroke:black;" cx="572.496" cy="-121.969" rx="4.00001" ry="4.00001"/>
</g>
<!-- Department&#45;&gt;Request -->
<g id="edge14" class="edge"><title>Department&#45;&gt;Request</title>
<path style="fill:none;stroke:black;" d="M120,-178C120,-153 120,-123 120,-100"/>
<polygon style="fill:black;stroke:black;" points="120,-178 115.5,-188 120,-183 120,-188 120,-188 120,-188 120,-183 124.5,-188 120,-178 120,-178"/>
<ellipse style="fill:black;stroke:black;" cx="120" cy="-96" rx="4" ry="4"/>
</g>
<!-- Document&#45;&gt;Audit -->
<g id="edge16" class="edge"><title>Document&#45;&gt;Audit</title>
<path style="fill:none;stroke:black;" d="M410,-145C404,-136 398,-125 393,-116"/>
<polygon style="fill:black;stroke:black;" points="410.144,-145.258 411.066,-156.185 412.572,-149.629 415,-154 415,-154 415,-154 412.572,-149.629 418.934,-151.815 410.144,-145.258 410.144,-145.258"/>
<ellipse style="fill:black;stroke:black;" cx="390.985" cy="-112.473" rx="4.00002" ry="4.00002"/>
</g>
<!-- Document&#45;&gt;Share -->
<g id="edge18" class="edge"><title>Document&#45;&gt;Share</title>
<path style="fill:none;stroke:black;" d="M510,-145C514,-138 517,-132 521,-125"/>
<polygon style="fill:black;stroke:black;" points="509.856,-145.258 501.066,-151.815 507.428,-149.629 505,-154 505,-154 505,-154 507.428,-149.629 508.934,-156.185 509.856,-145.258 509.856,-145.258"/>
<ellipse style="fill:black;stroke:black;" cx="523.015" cy="-121.473" rx="4.00002" ry="4.00002"/>
</g>
<!-- Role&#45;&gt;Request -->
<g id="edge20" class="edge"><title>Role&#45;&gt;Request</title>
<path style="fill:none;stroke:black;" d="M246,-197C235,-183 223,-167 211,-154 195,-135 176,-115 160,-98"/>
<polygon style="fill:black;stroke:black;" points="246,-197 248.4,-207.7 249,-201 252,-205 252,-205 252,-205 249,-201 255.6,-202.3 246,-197 246,-197"/>
<ellipse style="fill:black;stroke:black;" cx="156.828" cy="-94.8284" rx="4.00002" ry="4.00002"/>
</g>
</g>
</svg>
