<?xml version="1.0" encoding="UTF-8" standalone="no"?>
<!DOCTYPE svg PUBLIC "-//W3C//DTD SVG 1.0//EN"
 "http://www.w3.org/TR/2001/REC-SVG-20010904/DTD/svg10.dtd" [
 <!ATTLIST svg xmlns:xlink CDATA #FIXED "http://www.w3.org/1999/xlink">
]>
<!-- Generated by Graphviz version 2.20.2 (Mon Mar 30 10:11:53 UTC 2009)
     For user: (adigiro) Anthony,,,, -->
<!-- Title: models_diagram Pages: 1 -->
<svg width="754pt" height="622pt"
 viewBox="0.00 0.00 754.00 622.00" xmlns="http://www.w3.org/2000/svg" xmlns:xlink="http://www.w3.org/1999/xlink">
<g id="graph0" class="graph" transform="scale(1 1) rotate(0) translate(4 618)">
<title>models_diagram</title>
<polygon style="fill:white;stroke:white;" points="-4,4 -4,-618 750,-618 750,4 -4,4"/>
<!-- User -->
<g id="node1" class="node"><title>User</title>
<polyline style="fill:none;stroke:black;" points="325,-342 583,-342 "/>
<path style="fill:none;stroke:black;" d="M583,-342C589,-342 595,-348 595,-354"/>
<polyline style="fill:none;stroke:black;" points="595,-354 595,-601 "/>
<path style="fill:none;stroke:black;" d="M595,-601C595,-607 589,-613 583,-613"/>
<polyline style="fill:none;stroke:black;" points="583,-613 325,-613 "/>
<path style="fill:none;stroke:black;" d="M325,-613C319,-613 313,-607 313,-601"/>
<polyline style="fill:none;stroke:black;" points="313,-601 313,-354 "/>
<path style="fill:none;stroke:black;" d="M313,-354C313,-348 319,-342 325,-342"/>
<text text-anchor="middle" x="454" y="-595.9" style="font-family:Times New Roman;font-size:14.00;">User</text>
<polyline style="fill:none;stroke:black;" points="313,-588 595,-588 "/>
<text text-anchor="start" x="321" y="-571.4" style="font-family:Times New Roman;font-size:14.00;">login :string</text>
<text text-anchor="start" x="321" y="-554.4" style="font-family:Times New Roman;font-size:14.00;">name :string</text>
<text text-anchor="start" x="321" y="-537.4" style="font-family:Times New Roman;font-size:14.00;">email :string</text>
<text text-anchor="start" x="321" y="-520.4" style="font-family:Times New Roman;font-size:14.00;">crypted_password :string</text>
<text text-anchor="start" x="321" y="-503.4" style="font-family:Times New Roman;font-size:14.00;">salt :string</text>
<text text-anchor="start" x="321" y="-486.4" style="font-family:Times New Roman;font-size:14.00;">created_at :datetime</text>
<text text-anchor="start" x="321" y="-469.4" style="font-family:Times New Roman;font-size:14.00;">updated_at :datetime</text>
<text text-anchor="start" x="321" y="-452.4" style="font-family:Times New Roman;font-size:14.00;">remember_token :string</text>
<text text-anchor="start" x="321" y="-435.4" style="font-family:Times New Roman;font-size:14.00;">remember_token_expires_at :datetime</text>
<text text-anchor="start" x="321" y="-418.4" style="font-family:Times New Roman;font-size:14.00;">activation_code :string</text>
<text text-anchor="start" x="321" y="-401.4" style="font-family:Times New Roman;font-size:14.00;">activated_at :datetime</text>
<text text-anchor="start" x="321" y="-384.4" style="font-family:Times New Roman;font-size:14.00;">state :string</text>
<text text-anchor="start" x="321" y="-367.4" style="font-family:Times New Roman;font-size:14.00;">deleted_at :datetime</text>
<text text-anchor="start" x="321" y="-350.4" style="font-family:Times New Roman;font-size:14.00;">quota :integer</text>
</g>
<!-- Department -->
<g id="node3" class="node"><title>Department</title>
<polyline style="fill:none;stroke:black;" points="12,-188 153,-188 "/>
<path style="fill:none;stroke:black;" d="M153,-188C159,-188 165,-194 165,-200"/>
<polyline style="fill:none;stroke:black;" points="165,-200 165,-260 "/>
<path style="fill:none;stroke:black;" d="M165,-260C165,-266 159,-272 153,-272"/>
<polyline style="fill:none;stroke:black;" points="153,-272 12,-272 "/>
<path style="fill:none;stroke:black;" d="M12,-272C6,-272 0,-266 0,-260"/>
<polyline style="fill:none;stroke:black;" points="0,-260 0,-200 "/>
<path style="fill:none;stroke:black;" d="M0,-200C0,-194 6,-188 12,-188"/>
<text text-anchor="middle" x="82" y="-254.9" style="font-family:Times New Roman;font-size:14.00;">Department</text>
<polyline style="fill:none;stroke:black;" points="0,-247 165,-247 "/>
<text text-anchor="start" x="7.5" y="-229.9" style="font-family:Times New Roman;font-size:14.00;">name :string</text>
<text text-anchor="start" x="7.5" y="-212.9" style="font-family:Times New Roman;font-size:14.00;">created_at :datetime</text>
<text text-anchor="start" x="7.5" y="-195.9" style="font-family:Times New Roman;font-size:14.00;">updated_at :datetime</text>
</g>
<!-- User&#45;&gt;Department -->
<g id="edge2" class="edge"><title>User&#45;&gt;Department</title>
<path style="fill:none;stroke:black;" d="M304,-392C261,-365 214,-336 173,-306 162,-298 150,-288 138,-279"/>
<polygon style="fill:black;stroke:black;" points="304.258,-392.144 310.815,-400.934 308.629,-394.572 313,-397 313,-397 313,-397 308.629,-394.572 315.185,-393.066 304.258,-392.144 304.258,-392.144"/>
<polygon style="fill:black;stroke:black;" points="137.526,-278.585 132.963,-268.613 133.763,-275.293 130,-272 130,-272 130,-272 133.763,-275.293 127.037,-275.387 137.526,-278.585 137.526,-278.585"/>
</g>
<!-- Document -->
<g id="node4" class="node"><title>Document</title>
<polyline style="fill:none;stroke:black;" points="494,-154 635,-154 "/>
<path style="fill:none;stroke:black;" d="M635,-154C641,-154 647,-160 647,-166"/>
<polyline style="fill:none;stroke:black;" points="647,-166 647,-294 "/>
<path style="fill:none;stroke:black;" d="M647,-294C647,-300 641,-306 635,-306"/>
<polyline style="fill:none;stroke:black;" points="635,-306 494,-306 "/>
<path style="fill:none;stroke:black;" d="M494,-306C488,-306 482,-300 482,-294"/>
<polyline style="fill:none;stroke:black;" points="482,-294 482,-166 "/>
<path style="fill:none;stroke:black;" d="M482,-166C482,-160 488,-154 494,-154"/>
<text text-anchor="middle" x="564" y="-288.9" style="font-family:Times New Roman;font-size:14.00;">Document</text>
<polyline style="fill:none;stroke:black;" points="482,-281 647,-281 "/>
<text text-anchor="start" x="489.5" y="-263.9" style="font-family:Times New Roman;font-size:14.00;">name :string</text>
<text text-anchor="start" x="489.5" y="-246.9" style="font-family:Times New Roman;font-size:14.00;">content_type :string</text>
<text text-anchor="start" x="489.5" y="-229.9" style="font-family:Times New Roman;font-size:14.00;">data :binary</text>
<text text-anchor="start" x="489.5" y="-212.9" style="font-family:Times New Roman;font-size:14.00;">size :integer</text>
<text text-anchor="start" x="489.5" y="-195.9" style="font-family:Times New Roman;font-size:14.00;">checked_out :boolean</text>
<text text-anchor="start" x="489.5" y="-178.9" style="font-family:Times New Roman;font-size:14.00;">created_at :datetime</text>
<text text-anchor="start" x="489.5" y="-161.9" style="font-family:Times New Roman;font-size:14.00;">updated_at :datetime</text>
</g>
<!-- User&#45;&gt;Document -->
<g id="edge4" class="edge"><title>User&#45;&gt;Document</title>
<path style="fill:none;stroke:black;" d="M518,-333C521,-327 524,-320 527,-314"/>
<polygon style="fill:black;stroke:black;" points="518.061,-332.862 509.888,-340.172 516.031,-337.431 514,-342 514,-342 514,-342 516.031,-337.431 518.112,-343.828 518.061,-332.862 518.061,-332.862"/>
<ellipse style="fill:black;stroke:black;" cx="528.595" cy="-309.745" rx="4.00001" ry="4.00001"/>
</g>
<!-- Role -->
<g id="node5" class="node"><title>Role</title>
<polyline style="fill:none;stroke:black;" points="194,-171 414,-171 "/>
<path style="fill:none;stroke:black;" d="M414,-171C420,-171 426,-177 426,-183"/>
<polyline style="fill:none;stroke:black;" points="426,-183 426,-277 "/>
<path style="fill:none;stroke:black;" d="M426,-277C426,-283 420,-289 414,-289"/>
<polyline style="fill:none;stroke:black;" points="414,-289 194,-289 "/>
<path style="fill:none;stroke:black;" d="M194,-289C188,-289 182,-283 182,-277"/>
<polyline style="fill:none;stroke:black;" points="182,-277 182,-183 "/>
<path style="fill:none;stroke:black;" d="M182,-183C182,-177 188,-171 194,-171"/>
<text text-anchor="middle" x="304" y="-271.9" style="font-family:Times New Roman;font-size:14.00;">Role</text>
<polyline style="fill:none;stroke:black;" points="182,-264 426,-264 "/>
<text text-anchor="start" x="190" y="-246.9" style="font-family:Times New Roman;font-size:14.00;">name :string</text>
<text text-anchor="start" x="190" y="-229.9" style="font-family:Times New Roman;font-size:14.00;">has_many_departments :boolean</text>
<text text-anchor="start" x="190" y="-212.9" style="font-family:Times New Roman;font-size:14.00;">departmental_access :boolean</text>
<text text-anchor="start" x="190" y="-195.9" style="font-family:Times New Roman;font-size:14.00;">created_at :datetime</text>
<text text-anchor="start" x="190" y="-178.9" style="font-family:Times New Roman;font-size:14.00;">updated_at :datetime</text>
</g>
<!-- User&#45;&gt;Role -->
<g id="edge6" class="edge"><title>User&#45;&gt;Role</title>
<path style="fill:none;stroke:black;" d="M368,-335C360,-322 352,-308 344,-296"/>
<ellipse style="fill:none;stroke:black;" cx="370.015" cy="-338.527" rx="4.00002" ry="4.00002"/>
<ellipse style="fill:black;stroke:black;" cx="341.985" cy="-292.473" rx="4.00002" ry="4.00002"/>
</g>
<!-- Audit -->
<g id="node6" class="node"><title>Audit</title>
<polyline style="fill:none;stroke:black;" points="393,-8 534,-8 "/>
<path style="fill:none;stroke:black;" d="M534,-8C540,-8 546,-14 546,-20"/>
<polyline style="fill:none;stroke:black;" points="546,-20 546,-97 "/>
<path style="fill:none;stroke:black;" d="M546,-97C546,-103 540,-109 534,-109"/>
<polyline style="fill:none;stroke:black;" points="534,-109 393,-109 "/>
<path style="fill:none;stroke:black;" d="M393,-109C387,-109 381,-103 381,-97"/>
<polyline style="fill:none;stroke:black;" points="381,-97 381,-20 "/>
<path style="fill:none;stroke:black;" d="M381,-20C381,-14 387,-8 393,-8"/>
<text text-anchor="middle" x="463" y="-91.9" style="font-family:Times New Roman;font-size:14.00;">Audit</text>
<polyline style="fill:none;stroke:black;" points="381,-84 546,-84 "/>
<text text-anchor="start" x="388.5" y="-67.4" style="font-family:Times New Roman;font-size:14.00;">action :string</text>
<text text-anchor="start" x="388.5" y="-50.4" style="font-family:Times New Roman;font-size:14.00;">time :datetime</text>
<text text-anchor="start" x="388.5" y="-33.4" style="font-family:Times New Roman;font-size:14.00;">created_at :datetime</text>
<text text-anchor="start" x="388.5" y="-16.4" style="font-family:Times New Roman;font-size:14.00;">updated_at :datetime</text>
</g>
<!-- User&#45;&gt;Audit -->
<g id="edge8" class="edge"><title>User&#45;&gt;Audit</title>
<path style="fill:none;stroke:black;" d="M457,-332C459,-259 461,-173 462,-117"/>
<polygon style="fill:black;stroke:black;" points="457,-332 452.5,-342 457,-337 457,-342 457,-342 457,-342 457,-337 461.5,-342 457,-332 457,-332"/>
<ellipse style="fill:black;stroke:black;" cx="462" cy="-113" rx="4" ry="4"/>
</g>
<!-- Share -->
<g id="node7" class="node"><title>Share</title>
<polyline style="fill:none;stroke:black;" points="594,-0 735,-0 "/>
<path style="fill:none;stroke:black;" d="M735,-0C741,-0 747,-6 747,-12"/>
<polyline style="fill:none;stroke:black;" points="747,-12 747,-106 "/>
<path style="fill:none;stroke:black;" d="M747,-106C747,-112 741,-118 735,-118"/>
<polyline style="fill:none;stroke:black;" points="735,-118 594,-118 "/>
<path style="fill:none;stroke:black;" d="M594,-118C588,-118 582,-112 582,-106"/>
<polyline style="fill:none;stroke:black;" points="582,-106 582,-12 "/>
<path style="fill:none;stroke:black;" d="M582,-12C582,-6 588,-0 594,-0"/>
<text text-anchor="middle" x="664" y="-100.9" style="font-family:Times New Roman;font-size:14.00;">Share</text>
<polyline style="fill:none;stroke:black;" points="582,-93 747,-93 "/>
<text text-anchor="start" x="589.5" y="-75.9" style="font-family:Times New Roman;font-size:14.00;">read :boolean</text>
<text text-anchor="start" x="589.5" y="-58.9" style="font-family:Times New Roman;font-size:14.00;">update :boolean</text>
<text text-anchor="start" x="589.5" y="-41.9" style="font-family:Times New Roman;font-size:14.00;">checkout :boolean</text>
<text text-anchor="start" x="589.5" y="-24.9" style="font-family:Times New Roman;font-size:14.00;">created_at :datetime</text>
<text text-anchor="start" x="589.5" y="-7.9" style="font-family:Times New Roman;font-size:14.00;">updated_at :datetime</text>
</g>
<!-- User&#45;&gt;Share -->
<g id="edge10" class="edge"><title>User&#45;&gt;Share</title>
<path style="fill:none;stroke:black;" d="M603,-376C624,-355 642,-332 655,-306 682,-250 681,-178 675,-126"/>
<polygon style="fill:black;stroke:black;" points="602.526,-376.415 592.037,-379.613 598.763,-379.707 595,-383 595,-383 595,-383 598.763,-379.707 597.963,-386.387 602.526,-376.415 602.526,-376.415"/>
<ellipse style="fill:black;stroke:black;" cx="674.496" cy="-121.969" rx="4.00001" ry="4.00001"/>
</g>
<!-- Request -->
<g id="node2" class="node"><title>Request</title>
<polyline style="fill:none;stroke:black;" points="107,-25 248,-25 "/>
<path style="fill:none;stroke:black;" d="M248,-25C254,-25 260,-31 260,-37"/>
<polyline style="fill:none;stroke:black;" points="260,-37 260,-80 "/>
<path style="fill:none;stroke:black;" d="M260,-80C260,-86 254,-92 248,-92"/>
<polyline style="fill:none;stroke:black;" points="248,-92 107,-92 "/>
<path style="fill:none;stroke:black;" d="M107,-92C101,-92 95,-86 95,-80"/>
<polyline style="fill:none;stroke:black;" points="95,-80 95,-37 "/>
<path style="fill:none;stroke:black;" d="M95,-37C95,-31 101,-25 107,-25"/>
<text text-anchor="middle" x="177" y="-74.9" style="font-family:Times New Roman;font-size:14.00;">Request</text>
<polyline style="fill:none;stroke:black;" points="95,-67 260,-67 "/>
<text text-anchor="start" x="102.5" y="-50.4" style="font-family:Times New Roman;font-size:14.00;">created_at :datetime</text>
<text text-anchor="start" x="102.5" y="-33.4" style="font-family:Times New Roman;font-size:14.00;">updated_at :datetime</text>
</g>
<!-- Department&#45;&gt;Request -->
<g id="edge12" class="edge"><title>Department&#45;&gt;Request</title>
<path style="fill:none;stroke:black;" d="M110,-179C124,-153 141,-122 155,-99"/>
<polygon style="fill:black;stroke:black;" points="109.856,-179.258 101.066,-185.815 107.428,-183.629 105,-188 105,-188 105,-188 107.428,-183.629 108.934,-190.185 109.856,-179.258 109.856,-179.258"/>
<ellipse style="fill:black;stroke:black;" cx="157.015" cy="-95.473" rx="4.00002" ry="4.00002"/>
</g>
<!-- Document&#45;&gt;Audit -->
<g id="edge14" class="edge"><title>Document&#45;&gt;Audit</title>
<path style="fill:none;stroke:black;" d="M514,-145C508,-136 502,-125 497,-116"/>
<polygon style="fill:black;stroke:black;" points="514.144,-145.258 515.066,-156.185 516.572,-149.629 519,-154 519,-154 519,-154 516.572,-149.629 522.934,-151.815 514.144,-145.258 514.144,-145.258"/>
<ellipse style="fill:black;stroke:black;" cx="494.985" cy="-112.473" rx="4.00002" ry="4.00002"/>
</g>
<!-- Document&#45;&gt;Share -->
<g id="edge16" class="edge"><title>Document&#45;&gt;Share</title>
<path style="fill:none;stroke:black;" d="M614,-145C618,-138 621,-132 625,-125"/>
<polygon style="fill:black;stroke:black;" points="613.856,-145.258 605.066,-151.815 611.428,-149.629 609,-154 609,-154 609,-154 611.428,-149.629 612.934,-156.185 613.856,-145.258 613.856,-145.258"/>
<ellipse style="fill:black;stroke:black;" cx="627.015" cy="-121.473" rx="4.00002" ry="4.00002"/>
</g>
<!-- Role&#45;&gt;Request -->
<g id="edge18" class="edge"><title>Role&#45;&gt;Request</title>
<path style="fill:none;stroke:black;" d="M254,-163C238,-141 220,-118 207,-99"/>
<polygon style="fill:black;stroke:black;" points="254,-163 256.4,-173.7 257,-167 260,-171 260,-171 260,-171 257,-167 263.6,-168.3 254,-163 254,-163"/>
<ellipse style="fill:black;stroke:black;" cx="204.325" cy="-95.2549" rx="4.00002" ry="4.00002"/>
</g>
</g>
</svg>
