<?xml version="1.0" encoding="UTF-8" standalone="no"?>
<!DOCTYPE svg PUBLIC "-//W3C//DTD SVG 1.0//EN"
 "http://www.w3.org/TR/2001/REC-SVG-20010904/DTD/svg10.dtd" [
 <!ATTLIST svg xmlns:xlink CDATA #FIXED "http://www.w3.org/1999/xlink">
]>
<!-- Generated by Graphviz version 2.20.2 (Mon Mar 30 10:11:53 UTC 2009)
     For user: (adigiro) Anthony,,,, -->
<!-- Title: models_diagram Pages: 1 -->
<svg width="1327pt" height="954pt"
 viewBox="0.00 0.00 1327.00 954.00" xmlns="http://www.w3.org/2000/svg" xmlns:xlink="http://www.w3.org/1999/xlink">
<g id="graph0" class="graph" transform="scale(1 1) rotate(0) translate(4 950)">
<title>models_diagram</title>
<polygon style="fill:white;stroke:white;" points="-4,4 -4,-950 1323,-950 1323,4 -4,4"/>
<!-- User -->
<g id="node1" class="node"><title>User</title>
<polyline style="fill:none;stroke:black;" points="524,-658 782,-658 "/>
<path style="fill:none;stroke:black;" d="M782,-658C788,-658 794,-664 794,-670"/>
<polyline style="fill:none;stroke:black;" points="794,-670 794,-934 "/>
<path style="fill:none;stroke:black;" d="M794,-934C794,-940 788,-946 782,-946"/>
<polyline style="fill:none;stroke:black;" points="782,-946 524,-946 "/>
<path style="fill:none;stroke:black;" d="M524,-946C518,-946 512,-940 512,-934"/>
<polyline style="fill:none;stroke:black;" points="512,-934 512,-670 "/>
<path style="fill:none;stroke:black;" d="M512,-670C512,-664 518,-658 524,-658"/>
<text text-anchor="middle" x="653" y="-928.9" style="font-family:Times New Roman;font-size:14.00;">User</text>
<polyline style="fill:none;stroke:black;" points="512,-921 794,-921 "/>
<text text-anchor="start" x="520" y="-903.9" style="font-family:Times New Roman;font-size:14.00;">login :string</text>
<text text-anchor="start" x="520" y="-886.9" style="font-family:Times New Roman;font-size:14.00;">name :string</text>
<text text-anchor="start" x="520" y="-869.9" style="font-family:Times New Roman;font-size:14.00;">email :string</text>
<text text-anchor="start" x="520" y="-852.9" style="font-family:Times New Roman;font-size:14.00;">crypted_password :string</text>
<text text-anchor="start" x="520" y="-835.9" style="font-family:Times New Roman;font-size:14.00;">salt :string</text>
<text text-anchor="start" x="520" y="-818.9" style="font-family:Times New Roman;font-size:14.00;">created_at :datetime</text>
<text text-anchor="start" x="520" y="-801.9" style="font-family:Times New Roman;font-size:14.00;">updated_at :datetime</text>
<text text-anchor="start" x="520" y="-784.9" style="font-family:Times New Roman;font-size:14.00;">remember_token :string</text>
<text text-anchor="start" x="520" y="-767.9" style="font-family:Times New Roman;font-size:14.00;">remember_token_expires_at :datetime</text>
<text text-anchor="start" x="520" y="-750.9" style="font-family:Times New Roman;font-size:14.00;">activation_code :string</text>
<text text-anchor="start" x="520" y="-733.9" style="font-family:Times New Roman;font-size:14.00;">activated_at :datetime</text>
<text text-anchor="start" x="520" y="-716.9" style="font-family:Times New Roman;font-size:14.00;">state :string</text>
<text text-anchor="start" x="520" y="-699.9" style="font-family:Times New Roman;font-size:14.00;">deleted_at :datetime</text>
<text text-anchor="start" x="520" y="-682.9" style="font-family:Times New Roman;font-size:14.00;">quota :integer</text>
<text text-anchor="start" x="520" y="-665.9" style="font-family:Times New Roman;font-size:14.00;">time_zone :string</text>
</g>
<!-- UserRequest -->
<g id="node2" class="node"><title>UserRequest</title>
<polyline style="fill:none;stroke:black;" points="12,-536 153,-536 "/>
<path style="fill:none;stroke:black;" d="M153,-536C159,-536 165,-542 165,-548"/>
<polyline style="fill:none;stroke:black;" points="165,-548 165,-608 "/>
<path style="fill:none;stroke:black;" d="M165,-608C165,-614 159,-620 153,-620"/>
<polyline style="fill:none;stroke:black;" points="153,-620 12,-620 "/>
<path style="fill:none;stroke:black;" d="M12,-620C6,-620 0,-614 0,-608"/>
<polyline style="fill:none;stroke:black;" points="0,-608 0,-548 "/>
<path style="fill:none;stroke:black;" d="M0,-548C0,-542 6,-536 12,-536"/>
<text text-anchor="middle" x="82" y="-602.9" style="font-family:Times New Roman;font-size:14.00;">UserRequest</text>
<polyline style="fill:none;stroke:black;" points="0,-595 165,-595 "/>
<text text-anchor="start" x="7.5" y="-577.9" style="font-family:Times New Roman;font-size:14.00;">created_at :datetime</text>
<text text-anchor="start" x="7.5" y="-560.9" style="font-family:Times New Roman;font-size:14.00;">updated_at :datetime</text>
<text text-anchor="start" x="7.5" y="-543.9" style="font-family:Times New Roman;font-size:14.00;">state :string</text>
</g>
<!-- User&#45;&gt;UserRequest -->
<g id="edge18" class="edge"><title>User&#45;&gt;UserRequest</title>
<path style="fill:none;stroke:black;" d="M502,-761C406,-732 282,-690 178,-640 168,-635 159,-630 150,-624"/>
<polygon style="fill:black;stroke:black;" points="502.422,-761.126 510.707,-768.31 507.211,-762.563 512,-764 512,-764 512,-764 507.211,-762.563 513.293,-759.69 502.422,-761.126 502.422,-761.126"/>
<ellipse style="fill:black;stroke:black;" cx="146.473" cy="-621.985" rx="4.00002" ry="4.00002"/>
</g>
<!-- Department -->
<g id="node3" class="node"><title>Department</title>
<polyline style="fill:none;stroke:black;" points="473,-536 614,-536 "/>
<path style="fill:none;stroke:black;" d="M614,-536C620,-536 626,-542 626,-548"/>
<polyline style="fill:none;stroke:black;" points="626,-548 626,-608 "/>
<path style="fill:none;stroke:black;" d="M626,-608C626,-614 620,-620 614,-620"/>
<polyline style="fill:none;stroke:black;" points="614,-620 473,-620 "/>
<path style="fill:none;stroke:black;" d="M473,-620C467,-620 461,-614 461,-608"/>
<polyline style="fill:none;stroke:black;" points="461,-608 461,-548 "/>
<path style="fill:none;stroke:black;" d="M461,-548C461,-542 467,-536 473,-536"/>
<text text-anchor="middle" x="543" y="-602.9" style="font-family:Times New Roman;font-size:14.00;">Department</text>
<polyline style="fill:none;stroke:black;" points="461,-595 626,-595 "/>
<text text-anchor="start" x="468.5" y="-577.9" style="font-family:Times New Roman;font-size:14.00;">name :string</text>
<text text-anchor="start" x="468.5" y="-560.9" style="font-family:Times New Roman;font-size:14.00;">created_at :datetime</text>
<text text-anchor="start" x="468.5" y="-543.9" style="font-family:Times New Roman;font-size:14.00;">updated_at :datetime</text>
</g>
<!-- User&#45;&gt;Department -->
<g id="edge14" class="edge"><title>User&#45;&gt;Department</title>
<path style="fill:none;stroke:black;" d="M578,-649C575,-642 571,-636 568,-629"/>
<polygon style="fill:black;stroke:black;" points="577.939,-648.862 577.888,-659.828 579.969,-653.431 582,-658 582,-658 582,-658 579.969,-653.431 586.112,-656.172 577.939,-648.862 577.939,-648.862"/>
<polygon style="fill:black;stroke:black;" points="568.061,-629.138 568.112,-618.172 566.031,-624.569 564,-620 564,-620 564,-620 566.031,-624.569 559.888,-621.828 568.061,-629.138 568.061,-629.138"/>
</g>
<!-- Document -->
<g id="node4" class="node"><title>Document</title>
<polyline style="fill:none;stroke:black;" points="549,-262 757,-262 "/>
<path style="fill:none;stroke:black;" d="M757,-262C763,-262 769,-268 769,-274"/>
<polyline style="fill:none;stroke:black;" points="769,-274 769,-470 "/>
<path style="fill:none;stroke:black;" d="M769,-470C769,-476 763,-482 757,-482"/>
<polyline style="fill:none;stroke:black;" points="757,-482 549,-482 "/>
<path style="fill:none;stroke:black;" d="M549,-482C543,-482 537,-476 537,-470"/>
<polyline style="fill:none;stroke:black;" points="537,-470 537,-274 "/>
<path style="fill:none;stroke:black;" d="M537,-274C537,-268 543,-262 549,-262"/>
<text text-anchor="middle" x="653" y="-464.9" style="font-family:Times New Roman;font-size:14.00;">Document</text>
<polyline style="fill:none;stroke:black;" points="537,-457 769,-457 "/>
<text text-anchor="start" x="545" y="-439.9" style="font-family:Times New Roman;font-size:14.00;">name :string</text>
<text text-anchor="start" x="545" y="-422.9" style="font-family:Times New Roman;font-size:14.00;">checked_out :boolean</text>
<text text-anchor="start" x="545" y="-405.9" style="font-family:Times New Roman;font-size:14.00;">created_at :datetime</text>
<text text-anchor="start" x="545" y="-388.9" style="font-family:Times New Roman;font-size:14.00;">updated_at :datetime</text>
<text text-anchor="start" x="545" y="-371.9" style="font-family:Times New Roman;font-size:14.00;">document_file_name :string</text>
<text text-anchor="start" x="545" y="-354.9" style="font-family:Times New Roman;font-size:14.00;">document_content_type :string</text>
<text text-anchor="start" x="545" y="-337.9" style="font-family:Times New Roman;font-size:14.00;">document_file_size :integer</text>
<text text-anchor="start" x="545" y="-320.9" style="font-family:Times New Roman;font-size:14.00;">document_updated_at :integer</text>
<text text-anchor="start" x="545" y="-303.9" style="font-family:Times New Roman;font-size:14.00;">checked_out_by :integer</text>
<text text-anchor="start" x="545" y="-286.9" style="font-family:Times New Roman;font-size:14.00;">checked_out_at :datetime</text>
<text text-anchor="start" x="545" y="-269.9" style="font-family:Times New Roman;font-size:14.00;">comment :text</text>
</g>
<!-- User&#45;&gt;Document -->
<g id="edge4" class="edge"><title>User&#45;&gt;Document</title>
<path style="fill:none;stroke:black;" d="M653,-648C653,-596 653,-539 653,-490"/>
<polygon style="fill:black;stroke:black;" points="653,-648 648.5,-658 653,-653 653,-658 653,-658 653,-658 653,-653 657.5,-658 653,-648 653,-648"/>
<ellipse style="fill:black;stroke:black;" cx="653" cy="-486" rx="4" ry="4"/>
</g>
<!-- User&#45;&gt;Document -->
<g id="edge12" class="edge"><title>User&#45;&gt;Document</title>
<path style="fill:none;stroke:black;" d="M801,-696C822,-673 841,-648 854,-620 869,-585 870,-569 854,-536 837,-500 808,-469 777,-445"/>
<polygon style="fill:black;stroke:black;" points="801.071,-695.929 790.818,-699.818 797.536,-699.464 794,-703 794,-703 794,-703 797.536,-699.464 797.182,-706.182 801.071,-695.929 801.071,-695.929"/>
<polygon style="fill:black;stroke:black;" points="777,-445 771.7,-435.4 773,-442 769,-439 769,-439 769,-439 773,-442 766.3,-442.6 777,-445 777,-445"/>
<text text-anchor="middle" x="956" y="-573.9" style="font-family:Times New Roman;font-size:14.00;">shared_documents_by_me</text>
</g>
<!-- User&#45;&gt;Document -->
<g id="edge16" class="edge"><title>User&#45;&gt;Document</title>
<path style="fill:none;stroke:black;" d="M502,-767C357,-726 171,-649 247,-536 309,-443 432,-404 527,-386"/>
<polygon style="fill:black;stroke:black;" points="502.422,-767.126 510.707,-774.31 507.211,-768.563 512,-770 512,-770 512,-770 507.211,-768.563 513.293,-765.69 502.422,-767.126 502.422,-767.126"/>
<polygon style="fill:black;stroke:black;" points="527.194,-385.961 537.883,-388.413 532.097,-384.981 537,-384 537,-384 537,-384 532.097,-384.981 536.117,-379.587 527.194,-385.961 527.194,-385.961"/>
<text text-anchor="middle" x="350" y="-573.9" style="font-family:Times New Roman;font-size:14.00;">shared_documents_by_others</text>
</g>
<!-- Role -->
<g id="node5" class="node"><title>Role</title>
<polyline style="fill:none;stroke:black;" points="693,-536 834,-536 "/>
<path style="fill:none;stroke:black;" d="M834,-536C840,-536 846,-542 846,-548"/>
<polyline style="fill:none;stroke:black;" points="846,-548 846,-608 "/>
<path style="fill:none;stroke:black;" d="M846,-608C846,-614 840,-620 834,-620"/>
<polyline style="fill:none;stroke:black;" points="834,-620 693,-620 "/>
<path style="fill:none;stroke:black;" d="M693,-620C687,-620 681,-614 681,-608"/>
<polyline style="fill:none;stroke:black;" points="681,-608 681,-548 "/>
<path style="fill:none;stroke:black;" d="M681,-548C681,-542 687,-536 693,-536"/>
<text text-anchor="middle" x="763" y="-602.9" style="font-family:Times New Roman;font-size:14.00;">Role</text>
<polyline style="fill:none;stroke:black;" points="681,-595 846,-595 "/>
<text text-anchor="start" x="688.5" y="-577.9" style="font-family:Times New Roman;font-size:14.00;">name :string</text>
<text text-anchor="start" x="688.5" y="-560.9" style="font-family:Times New Roman;font-size:14.00;">created_at :datetime</text>
<text text-anchor="start" x="688.5" y="-543.9" style="font-family:Times New Roman;font-size:14.00;">updated_at :datetime</text>
</g>
<!-- User&#45;&gt;Role -->
<g id="edge10" class="edge"><title>User&#45;&gt;Role</title>
<path style="fill:none;stroke:black;" d="M728,-649C731,-642 735,-636 738,-629"/>
<polygon style="fill:black;stroke:black;" points="728.061,-648.862 719.888,-656.172 726.031,-653.431 724,-658 724,-658 724,-658 726.031,-653.431 728.112,-659.828 728.061,-648.862 728.061,-648.862"/>
<polygon style="fill:black;stroke:black;" points="737.939,-629.138 746.112,-621.828 739.969,-624.569 742,-620 742,-620 742,-620 739.969,-624.569 737.888,-618.172 737.939,-629.138 737.939,-629.138"/>
</g>
<!-- Audit -->
<g id="node6" class="node"><title>Audit</title>
<polyline style="fill:none;stroke:black;" points="583,-0 724,-0 "/>
<path style="fill:none;stroke:black;" d="M724,-0C730,-0 736,-6 736,-12"/>
<polyline style="fill:none;stroke:black;" points="736,-12 736,-72 "/>
<path style="fill:none;stroke:black;" d="M736,-72C736,-78 730,-84 724,-84"/>
<polyline style="fill:none;stroke:black;" points="724,-84 583,-84 "/>
<path style="fill:none;stroke:black;" d="M583,-84C577,-84 571,-78 571,-72"/>
<polyline style="fill:none;stroke:black;" points="571,-72 571,-12 "/>
<path style="fill:none;stroke:black;" d="M571,-12C571,-6 577,-0 583,-0"/>
<text text-anchor="middle" x="653" y="-66.9" style="font-family:Times New Roman;font-size:14.00;">Audit</text>
<polyline style="fill:none;stroke:black;" points="571,-59 736,-59 "/>
<text text-anchor="start" x="578.5" y="-41.9" style="font-family:Times New Roman;font-size:14.00;">created_at :datetime</text>
<text text-anchor="start" x="578.5" y="-24.9" style="font-family:Times New Roman;font-size:14.00;">updated_at :datetime</text>
<text text-anchor="start" x="578.5" y="-7.9" style="font-family:Times New Roman;font-size:14.00;">action :text</text>
</g>
<!-- User&#45;&gt;Audit -->
<g id="edge2" class="edge"><title>User&#45;&gt;Audit</title>
<path style="fill:none;stroke:black;" d="M502,-759C367,-717 192,-647 192,-578 192,-578 192,-578 192,-173 192,-97 428,-62 563,-49"/>
<polygon style="fill:black;stroke:black;" points="502.422,-759.126 510.707,-766.31 507.211,-760.563 512,-762 512,-762 512,-762 507.211,-760.563 513.293,-757.69 502.422,-759.126 502.422,-759.126"/>
<ellipse style="fill:black;stroke:black;" cx="567.031" cy="-48.4962" rx="4.00001" ry="4.00001"/>
</g>
<!-- Share -->
<g id="node7" class="node"><title>Share</title>
<polyline style="fill:none;stroke:black;" points="855,-122 1003,-122 "/>
<path style="fill:none;stroke:black;" d="M1003,-122C1009,-122 1015,-128 1015,-134"/>
<polyline style="fill:none;stroke:black;" points="1015,-134 1015,-211 "/>
<path style="fill:none;stroke:black;" d="M1015,-211C1015,-217 1009,-223 1003,-223"/>
<polyline style="fill:none;stroke:black;" points="1003,-223 855,-223 "/>
<path style="fill:none;stroke:black;" d="M855,-223C849,-223 843,-217 843,-211"/>
<polyline style="fill:none;stroke:black;" points="843,-211 843,-134 "/>
<path style="fill:none;stroke:black;" d="M843,-134C843,-128 849,-122 855,-122"/>
<text text-anchor="middle" x="929" y="-205.9" style="font-family:Times New Roman;font-size:14.00;">Share</text>
<polyline style="fill:none;stroke:black;" points="843,-198 1015,-198 "/>
<text text-anchor="start" x="851" y="-181.4" style="font-family:Times New Roman;font-size:14.00;">can_update :boolean</text>
<text text-anchor="start" x="851" y="-164.4" style="font-family:Times New Roman;font-size:14.00;">can_checkout :boolean</text>
<text text-anchor="start" x="851" y="-147.4" style="font-family:Times New Roman;font-size:14.00;">created_at :datetime</text>
<text text-anchor="start" x="851" y="-130.4" style="font-family:Times New Roman;font-size:14.00;">updated_at :datetime</text>
</g>
<!-- User&#45;&gt;Share -->
<g id="edge6" class="edge"><title>User&#45;&gt;Share</title>
<path style="fill:none;stroke:black;" d="M804,-781C947,-751 1151,-680 1213,-518 1231,-468 1321,-453 1105,-242 1082,-220 1052,-205 1023,-195"/>
<polygon style="fill:black;stroke:black;" points="803.806,-781.039 793.117,-778.587 798.903,-782.019 794,-783 794,-783 794,-783 798.903,-782.019 794.883,-787.413 803.806,-781.039 803.806,-781.039"/>
<ellipse style="fill:black;stroke:black;" cx="1018.75" cy="-193.405" rx="4.00001" ry="4.00001"/>
<text text-anchor="middle" x="1270" y="-504.9" style="font-family:Times New Roman;font-size:14.00;">shares_by_me</text>
</g>
<!-- User&#45;&gt;Share -->
<g id="edge8" class="edge"><title>User&#45;&gt;Share</title>
<path style="fill:none;stroke:black;" d="M804,-774C892,-750 996,-704 1051,-620 1131,-495 1033,-319 972,-230"/>
<polygon style="fill:black;stroke:black;" points="803.578,-774.126 792.707,-772.69 798.789,-775.563 794,-777 794,-777 794,-777 798.789,-775.563 795.293,-781.31 803.578,-774.126 803.578,-774.126"/>
<ellipse style="fill:black;stroke:black;" cx="969.325" cy="-226.255" rx="4.00002" ry="4.00002"/>
<text text-anchor="middle" x="1140" y="-504.9" style="font-family:Times New Roman;font-size:14.00;">shares_by_others</text>
</g>
<!-- Department&#45;&gt;Document -->
<g id="edge20" class="edge"><title>Department&#45;&gt;Document</title>
<path style="fill:none;stroke:black;" d="M571,-527C577,-515 584,-502 591,-489"/>
<polygon style="fill:black;stroke:black;" points="570.856,-527.258 562.066,-533.815 568.428,-531.629 566,-536 566,-536 566,-536 568.428,-531.629 569.934,-538.185 570.856,-527.258 570.856,-527.258"/>
<ellipse style="fill:black;stroke:black;" cx="593.015" cy="-485.473" rx="4.00002" ry="4.00002"/>
</g>
<!-- Document&#45;&gt;Audit -->
<g id="edge22" class="edge"><title>Document&#45;&gt;Audit</title>
<path style="fill:none;stroke:black;" d="M653,-252C653,-197 653,-135 653,-92"/>
<polygon style="fill:black;stroke:black;" points="653,-252 648.5,-262 653,-257 653,-262 653,-262 653,-262 653,-257 657.5,-262 653,-252 653,-252"/>
<ellipse style="fill:black;stroke:black;" cx="653" cy="-88" rx="4" ry="4"/>
</g>
<!-- Document&#45;&gt;Share -->
<g id="edge24" class="edge"><title>Document&#45;&gt;Share</title>
<path style="fill:none;stroke:black;" d="M777,-282C804,-264 829,-245 852,-228"/>
<polygon style="fill:black;stroke:black;" points="777,-282 766.3,-284.4 773,-285 769,-288 769,-288 769,-288 773,-285 771.7,-291.6 777,-282 777,-282"/>
<ellipse style="fill:black;stroke:black;" cx="855.745" cy="-225.325" rx="4.00002" ry="4.00002"/>
</g>
<!-- Share&#45;&gt;Audit -->
<g id="edge26" class="edge"><title>Share&#45;&gt;Audit</title>
<path style="fill:none;stroke:black;" d="M834,-128C805,-114 772,-99 743,-86"/>
<polygon style="fill:black;stroke:black;" points="833.862,-127.939 841.172,-136.112 838.431,-129.969 843,-132 843,-132 843,-132 838.431,-129.969 844.828,-127.888 833.862,-127.939 833.862,-127.939"/>
<ellipse style="fill:black;stroke:black;" cx="739.473" cy="-83.9846" rx="4.00002" ry="4.00002"/>
</g>
</g>
</svg>
