<?xml version="1.0" encoding="UTF-8" standalone="no"?>
<!-- Generated by Graphviz version 2.20.2 (Mon Mar 30 10:11:53 UTC 2009)
     For user: (adigiro) Anthony,,,, -->
<!-- Title: models_diagram Pages: 1 -->
<svg
   xmlns:dc="http://purl.org/dc/elements/1.1/"
   xmlns:cc="http://creativecommons.org/ns#"
   xmlns:rdf="http://www.w3.org/1999/02/22-rdf-syntax-ns#"
   xmlns:svg="http://www.w3.org/2000/svg"
   xmlns="http://www.w3.org/2000/svg"
   xmlns:sodipodi="http://sodipodi.sourceforge.net/DTD/sodipodi-0.dtd"
   xmlns:inkscape="http://www.inkscape.org/namespaces/inkscape"
   width="990"
   height="765"
   viewBox="0 0 1327 954"
   id="svg7591"
   sodipodi:version="0.32"
   inkscape:version="0.46"
   sodipodi:docname="Model_Diagram.svg"
   inkscape:output_extension="org.inkscape.output.svg.inkscape"
   version="1.0"
   inkscape:export-filename="/home/adigiro/work/dms.git/doc/Model_Diagram.png"
   inkscape:export-xdpi="300"
   inkscape:export-ydpi="300">
  <metadata
     id="metadata7971">
    <rdf:RDF>
      <cc:Work
         rdf:about="">
        <dc:format>image/svg+xml</dc:format>
        <dc:type
           rdf:resource="http://purl.org/dc/dcmitype/StillImage" />
      </cc:Work>
    </rdf:RDF>
  </metadata>
  <defs
     id="defs7969">
    <inkscape:perspective
       sodipodi:type="inkscape:persp3d"
       inkscape:vp_x="0 : 596.25 : 1"
       inkscape:vp_y="0 : 1000 : 0"
       inkscape:vp_z="1658.75 : 596.25 : 1"
       inkscape:persp3d-origin="829.375 : 397.5 : 1"
       id="perspective7973" />
    <title
       id="title7594">models_diagram</title>
  </defs>
  <sodipodi:namedview
     inkscape:window-height="1024"
     inkscape:window-width="1260"
     inkscape:pageshadow="2"
     inkscape:pageopacity="0.0"
     guidetolerance="10.0"
     gridtolerance="10.0"
     objecttolerance="10.0"
     borderopacity="1.0"
     bordercolor="#666666"
     pagecolor="#ffffff"
     id="base"
     showgrid="false"
     inkscape:zoom="1.0732026"
     inkscape:cx="494.99999"
     inkscape:cy="382.49999"
     inkscape:window-x="0"
     inkscape:window-y="26"
     inkscape:current-layer="svg7591"
     inkscape:document-units="in"
     showguides="true"
     inkscape:guide-bbox="true">
    <sodipodi:guide
       orientation="1,0"
       position="11.518193,544.23463"
       id="guide11776" />
    <sodipodi:guide
       orientation="0,1"
       position="118.06148,753.48181"
       id="guide11778" />
    <sodipodi:guide
       orientation="0,1"
       position="119.98118,11.518193"
       id="guide11780" />
    <sodipodi:guide
       orientation="1,0"
       position="979.04642,264.91844"
       id="guide11782" />
    <sodipodi:guide
       orientation="1,0"
       position="731.40527,632.54078"
       id="guide11784" />
  </sodipodi:namedview>
  <rect
     style="fill:#ffffff;fill-opacity:1;stroke:#000000;stroke-width:0.99000001;stroke-miterlimit:4;stroke-dasharray:none;stroke-opacity:1"
     id="rect7426"
     width="1341.3999"
     height="1039.1478"
     x="-4.995903"
     y="-40.700447" />
  <g
     class="node"
     id="node1"
     transform="matrix(0.9671218,0,0,0.9671218,28.57715,962.99607)">
    <title
       id="title7599">User</title>
    <polyline
       id="polyline7601"
       points="524,-658 782,-658 "
       style="fill:none;stroke:#000000" />
    <path
       id="path7603"
       d="M 782,-658 C 788,-658 794,-664 794,-670"
       style="fill:none;stroke:#000000" />
    <polyline
       id="polyline7605"
       points="794,-670 794,-934 "
       style="fill:none;stroke:#000000" />
    <path
       id="path7607"
       d="M 794,-934 C 794,-940 788,-946 782,-946"
       style="fill:none;stroke:#000000" />
    <polyline
       id="polyline7609"
       points="782,-946 524,-946 "
       style="fill:none;stroke:#000000" />
    <path
       id="path7611"
       d="M 524,-946 C 518,-946 512,-940 512,-934"
       style="fill:none;stroke:#000000" />
    <polyline
       id="polyline7613"
       points="512,-934 512,-670 "
       style="fill:none;stroke:#000000" />
    <path
       id="path7615"
       d="M 512,-670 C 512,-664 518,-658 524,-658"
       style="fill:none;stroke:#000000" />
    <text
       id="text7617"
       style="font-size:14px;text-anchor:middle;font-family:Times New Roman"
       y="-928.90002"
       x="653">User</text>
    <polyline
       id="polyline7619"
       points="512,-921 794,-921 "
       style="fill:none;stroke:#000000" />
    <text
       id="text7621"
       style="font-size:14px;text-anchor:start;font-family:Times New Roman"
       y="-903.90002"
       x="520">login :string</text>
    <text
       id="text7623"
       style="font-size:14px;text-anchor:start;font-family:Times New Roman"
       y="-886.90002"
       x="520">name :string</text>
    <text
       id="text7625"
       style="font-size:14px;text-anchor:start;font-family:Times New Roman"
       y="-869.90002"
       x="520">email :string</text>
    <text
       id="text7627"
       style="font-size:14px;text-anchor:start;font-family:Times New Roman"
       y="-852.90002"
       x="520">crypted_password :string</text>
    <text
       id="text7629"
       style="font-size:14px;text-anchor:start;font-family:Times New Roman"
       y="-835.90002"
       x="520">salt :string</text>
    <text
       id="text7631"
       style="font-size:14px;text-anchor:start;font-family:Times New Roman"
       y="-818.90002"
       x="520">created_at :datetime</text>
    <text
       id="text7633"
       style="font-size:14px;text-anchor:start;font-family:Times New Roman"
       y="-801.90002"
       x="520">updated_at :datetime</text>
    <text
       id="text7635"
       style="font-size:14px;text-anchor:start;font-family:Times New Roman"
       y="-784.90002"
       x="520">remember_token :string</text>
    <text
       id="text7637"
       style="font-size:14px;text-anchor:start;font-family:Times New Roman"
       y="-767.90002"
       x="520">remember_token_expires_at :datetime</text>
    <text
       id="text7639"
       style="font-size:14px;text-anchor:start;font-family:Times New Roman"
       y="-750.90002"
       x="520">activation_code :string</text>
    <text
       id="text7641"
       style="font-size:14px;text-anchor:start;font-family:Times New Roman"
       y="-733.90002"
       x="520">activated_at :datetime</text>
    <text
       id="text7643"
       style="font-size:14px;text-anchor:start;font-family:Times New Roman"
       y="-716.90002"
       x="520">state :string</text>
    <text
       id="text7645"
       style="font-size:14px;text-anchor:start;font-family:Times New Roman"
       y="-699.90002"
       x="520">deleted_at :datetime</text>
    <text
       id="text7647"
       style="font-size:14px;text-anchor:start;font-family:Times New Roman"
       y="-682.90002"
       x="520">quota :integer</text>
    <text
       id="text7649"
       style="font-size:14px;text-anchor:start;font-family:Times New Roman"
       y="-665.90002"
       x="520">time_zone :string</text>
  </g>
  <g
     class="node"
     id="node2"
     transform="matrix(0.9671218,0,0,0.9671218,28.57715,962.99607)">
    <title
       id="title7652">UserRequest</title>
    <polyline
       id="polyline7654"
       points="12,-536 153,-536 "
       style="fill:none;stroke:#000000" />
    <path
       id="path7656"
       d="M 153,-536 C 159,-536 165,-542 165,-548"
       style="fill:none;stroke:#000000" />
    <polyline
       id="polyline7658"
       points="165,-548 165,-608 "
       style="fill:none;stroke:#000000" />
    <path
       id="path7660"
       d="M 165,-608 C 165,-614 159,-620 153,-620"
       style="fill:none;stroke:#000000" />
    <polyline
       id="polyline7662"
       points="153,-620 12,-620 "
       style="fill:none;stroke:#000000" />
    <path
       id="path7664"
       d="M 12,-620 C 6,-620 0,-614 0,-608"
       style="fill:none;stroke:#000000" />
    <polyline
       id="polyline7666"
       points="0,-608 0,-548 "
       style="fill:none;stroke:#000000" />
    <path
       id="path7668"
       d="M 0,-548 C 0,-542 6,-536 12,-536"
       style="fill:none;stroke:#000000" />
    <text
       id="text7670"
       style="font-size:14px;text-anchor:middle;font-family:Times New Roman"
       y="-602.90002"
       x="82">UserRequest</text>
    <polyline
       id="polyline7672"
       points="0,-595 165,-595 "
       style="fill:none;stroke:#000000" />
    <text
       id="text7674"
       style="font-size:14px;text-anchor:start;font-family:Times New Roman"
       y="-577.90002"
       x="7.5">created_at :datetime</text>
    <text
       id="text7676"
       style="font-size:14px;text-anchor:start;font-family:Times New Roman"
       y="-560.90002"
       x="7.5">updated_at :datetime</text>
    <text
       id="text7678"
       style="font-size:14px;text-anchor:start;font-family:Times New Roman"
       y="-543.90002"
       x="7.5">state :string</text>
  </g>
  <g
     class="edge"
     id="edge18"
     transform="matrix(0.9671218,0,0,0.9671218,28.57715,962.99607)">
    <title
       id="title7681">User-&gt;UserRequest</title>
    <path
       id="path7683"
       d="M 502,-761 C 406,-732 282,-690 178,-640 C 168,-635 159,-630 150,-624"
       style="fill:none;stroke:#000000" />
    <polygon
       id="polygon7685"
       points="502.422,-761.126 510.707,-768.31 507.211,-762.563 512,-764 512,-764 512,-764 507.211,-762.563 513.293,-759.69 502.422,-761.126 502.422,-761.126 "
       style="fill:#000000;stroke:#000000" />
    <ellipse
       sodipodi:ry="4.00002"
       sodipodi:rx="4.00002"
       sodipodi:cy="-621.98499"
       sodipodi:cx="146.47301"
       id="ellipse7687"
       ry="4.00002"
       rx="4.00002"
       cy="-621.98499"
       cx="146.47301"
       style="fill:#000000;stroke:#000000" />
  </g>
  <g
     class="node"
     id="node3"
     transform="matrix(0.9671218,0,0,0.9671218,28.57715,962.99607)">
    <title
       id="title7690">Department</title>
    <polyline
       id="polyline7692"
       points="473,-536 614,-536 "
       style="fill:none;stroke:#000000" />
    <path
       id="path7694"
       d="M 614,-536 C 620,-536 626,-542 626,-548"
       style="fill:none;stroke:#000000" />
    <polyline
       id="polyline7696"
       points="626,-548 626,-608 "
       style="fill:none;stroke:#000000" />
    <path
       id="path7698"
       d="M 626,-608 C 626,-614 620,-620 614,-620"
       style="fill:none;stroke:#000000" />
    <polyline
       id="polyline7700"
       points="614,-620 473,-620 "
       style="fill:none;stroke:#000000" />
    <path
       id="path7702"
       d="M 473,-620 C 467,-620 461,-614 461,-608"
       style="fill:none;stroke:#000000" />
    <polyline
       id="polyline7704"
       points="461,-608 461,-548 "
       style="fill:none;stroke:#000000" />
    <path
       id="path7706"
       d="M 461,-548 C 461,-542 467,-536 473,-536"
       style="fill:none;stroke:#000000" />
    <text
       id="text7708"
       style="font-size:14px;text-anchor:middle;font-family:Times New Roman"
       y="-602.90002"
       x="543">Department</text>
    <polyline
       id="polyline7710"
       points="461,-595 626,-595 "
       style="fill:none;stroke:#000000" />
    <text
       id="text7712"
       style="font-size:14px;text-anchor:start;font-family:Times New Roman"
       y="-577.90002"
       x="468.5">name :string</text>
    <text
       id="text7714"
       style="font-size:14px;text-anchor:start;font-family:Times New Roman"
       y="-560.90002"
       x="468.5">created_at :datetime</text>
    <text
       id="text7716"
       style="font-size:14px;text-anchor:start;font-family:Times New Roman"
       y="-543.90002"
       x="468.5">updated_at :datetime</text>
  </g>
  <g
     class="edge"
     id="edge14"
     transform="matrix(0.9671218,0,0,0.9671218,28.57715,962.99607)">
    <title
       id="title7719">User-&gt;Department</title>
    <path
       id="path7721"
       d="M 578,-649 C 575,-642 571,-636 568,-629"
       style="fill:none;stroke:#000000" />
    <polygon
       id="polygon7723"
       points="577.939,-648.862 577.888,-659.828 579.969,-653.431 582,-658 582,-658 582,-658 579.969,-653.431 586.112,-656.172 577.939,-648.862 577.939,-648.862 "
       style="fill:#000000;stroke:#000000" />
    <polygon
       id="polygon7725"
       points="568.061,-629.138 568.112,-618.172 566.031,-624.569 564,-620 564,-620 564,-620 566.031,-624.569 559.888,-621.828 568.061,-629.138 568.061,-629.138 "
       style="fill:#000000;stroke:#000000" />
  </g>
  <g
     class="node"
     id="node4"
     transform="matrix(0.9671218,0,0,0.9671218,28.57715,962.99607)">
    <title
       id="title7728">Document</title>
    <polyline
       id="polyline7730"
       points="549,-262 757,-262 "
       style="fill:none;stroke:#000000" />
    <path
       id="path7732"
       d="M 757,-262 C 763,-262 769,-268 769,-274"
       style="fill:none;stroke:#000000" />
    <polyline
       id="polyline7734"
       points="769,-274 769,-470 "
       style="fill:none;stroke:#000000" />
    <path
       id="path7736"
       d="M 769,-470 C 769,-476 763,-482 757,-482"
       style="fill:none;stroke:#000000" />
    <polyline
       id="polyline7738"
       points="757,-482 549,-482 "
       style="fill:none;stroke:#000000" />
    <path
       id="path7740"
       d="M 549,-482 C 543,-482 537,-476 537,-470"
       style="fill:none;stroke:#000000" />
    <polyline
       id="polyline7742"
       points="537,-470 537,-274 "
       style="fill:none;stroke:#000000" />
    <path
       id="path7744"
       d="M 537,-274 C 537,-268 543,-262 549,-262"
       style="fill:none;stroke:#000000" />
    <text
       id="text7746"
       style="font-size:14px;text-anchor:middle;font-family:Times New Roman"
       y="-464.89999"
       x="653">Document</text>
    <polyline
       id="polyline7748"
       points="537,-457 769,-457 "
       style="fill:none;stroke:#000000" />
    <text
       id="text7750"
       style="font-size:14px;text-anchor:start;font-family:Times New Roman"
       y="-439.89999"
       x="545">name :string</text>
    <text
       id="text7752"
       style="font-size:14px;text-anchor:start;font-family:Times New Roman"
       y="-422.89999"
       x="545">checked_out :boolean</text>
    <text
       id="text7754"
       style="font-size:14px;text-anchor:start;font-family:Times New Roman"
       y="-405.89999"
       x="545">created_at :datetime</text>
    <text
       id="text7756"
       style="font-size:14px;text-anchor:start;font-family:Times New Roman"
       y="-388.89999"
       x="545">updated_at :datetime</text>
    <text
       id="text7758"
       style="font-size:14px;text-anchor:start;font-family:Times New Roman"
       y="-371.89999"
       x="545">document_file_name :string</text>
    <text
       id="text7760"
       style="font-size:14px;text-anchor:start;font-family:Times New Roman"
       y="-354.89999"
       x="545">document_content_type :string</text>
    <text
       id="text7762"
       style="font-size:14px;text-anchor:start;font-family:Times New Roman"
       y="-337.89999"
       x="545">document_file_size :integer</text>
    <text
       id="text7764"
       style="font-size:14px;text-anchor:start;font-family:Times New Roman"
       y="-320.89999"
       x="545">document_updated_at :integer</text>
    <text
       id="text7766"
       style="font-size:14px;text-anchor:start;font-family:Times New Roman"
       y="-303.89999"
       x="545">checked_out_by :integer</text>
    <text
       id="text7768"
       style="font-size:14px;text-anchor:start;font-family:Times New Roman"
       y="-286.89999"
       x="545">checked_out_at :datetime</text>
    <text
       id="text7770"
       style="font-size:14px;text-anchor:start;font-family:Times New Roman"
       y="-269.89999"
       x="545">comment :text</text>
  </g>
  <g
     class="edge"
     id="edge4"
     transform="matrix(0.9671218,0,0,0.9671218,28.57715,962.99607)">
    <title
       id="title7773">User-&gt;Document</title>
    <path
       id="path7775"
       d="M 653,-648 C 653,-596 653,-539 653,-490"
       style="fill:none;stroke:#000000" />
    <polygon
       id="polygon7777"
       points="653,-648 648.5,-658 653,-653 653,-658 653,-658 653,-658 653,-653 657.5,-658 653,-648 653,-648 "
       style="fill:#000000;stroke:#000000" />
    <ellipse
       sodipodi:ry="4"
       sodipodi:rx="4"
       sodipodi:cy="-486"
       sodipodi:cx="653"
       id="ellipse7779"
       ry="4"
       rx="4"
       cy="-486"
       cx="653"
       style="fill:#000000;stroke:#000000" />
  </g>
  <g
     class="edge"
     id="edge12"
     transform="matrix(0.9671218,0,0,0.9671218,28.57715,962.99607)">
    <title
       id="title7782">User-&gt;Document</title>
    <path
       id="path7784"
       d="M 801,-696 C 822,-673 841,-648 854,-620 C 869,-585 870,-569 854,-536 C 837,-500 808,-469 777,-445"
       style="fill:none;stroke:#000000" />
    <polygon
       id="polygon7786"
       points="801.071,-695.929 790.818,-699.818 797.536,-699.464 794,-703 794,-703 794,-703 797.536,-699.464 797.182,-706.182 801.071,-695.929 801.071,-695.929 "
       style="fill:#000000;stroke:#000000" />
    <polygon
       id="polygon7788"
       points="777,-445 771.7,-435.4 773,-442 769,-439 769,-439 769,-439 773,-442 766.3,-442.6 777,-445 777,-445 "
       style="fill:#000000;stroke:#000000" />
    <text
       id="text7790"
       style="font-size:14px;text-anchor:middle;font-family:Times New Roman"
       y="-573.90002"
       x="956">shared_documents_by_me</text>
  </g>
  <g
     class="edge"
     id="edge16"
     transform="matrix(0.9671218,0,0,0.9671218,28.57715,1009.418)">
    <title
       id="title7793">User-&gt;Document</title>
    <path
       id="path7795"
       d="M 502,-767 C 357,-726 171,-649 247,-536 C 309,-443 432,-404 527,-386"
       style="fill:none;stroke:#000000" />
    <polygon
       id="polygon7797"
       points="502.422,-767.126 510.707,-774.31 507.211,-768.563 512,-770 512,-770 512,-770 507.211,-768.563 513.293,-765.69 502.422,-767.126 502.422,-767.126 "
       style="fill:#000000;stroke:#000000" />
    <polygon
       id="polygon7799"
       points="527.194,-385.961 537.883,-388.413 532.097,-384.981 537,-384 537,-384 537,-384 532.097,-384.981 536.117,-379.587 527.194,-385.961 527.194,-385.961 "
       style="fill:#000000;stroke:#000000" />
    <text
       id="text7801"
       style="font-size:14px;text-anchor:middle;font-family:Times New Roman"
       y="-573.90002"
       x="350">shared_documents_by_others</text>
  </g>
  <g
     class="node"
     id="node5"
     transform="matrix(0.9671218,0,0,0.9671218,28.57715,962.99607)">
    <title
       id="title7804">Role</title>
    <polyline
       id="polyline7806"
       points="693,-536 834,-536 "
       style="fill:none;stroke:#000000" />
    <path
       id="path7808"
       d="M 834,-536 C 840,-536 846,-542 846,-548"
       style="fill:none;stroke:#000000" />
    <polyline
       id="polyline7810"
       points="846,-548 846,-608 "
       style="fill:none;stroke:#000000" />
    <path
       id="path7812"
       d="M 846,-608 C 846,-614 840,-620 834,-620"
       style="fill:none;stroke:#000000" />
    <polyline
       id="polyline7814"
       points="834,-620 693,-620 "
       style="fill:none;stroke:#000000" />
    <path
       id="path7816"
       d="M 693,-620 C 687,-620 681,-614 681,-608"
       style="fill:none;stroke:#000000" />
    <polyline
       id="polyline7818"
       points="681,-608 681,-548 "
       style="fill:none;stroke:#000000" />
    <path
       id="path7820"
       d="M 681,-548 C 681,-542 687,-536 693,-536"
       style="fill:none;stroke:#000000" />
    <text
       id="text7822"
       style="font-size:14px;text-anchor:middle;font-family:Times New Roman"
       y="-602.90002"
       x="763">Role</text>
    <polyline
       id="polyline7824"
       points="681,-595 846,-595 "
       style="fill:none;stroke:#000000" />
    <text
       id="text7826"
       style="font-size:14px;text-anchor:start;font-family:Times New Roman"
       y="-577.90002"
       x="688.5">name :string</text>
    <text
       id="text7828"
       style="font-size:14px;text-anchor:start;font-family:Times New Roman"
       y="-560.90002"
       x="688.5">created_at :datetime</text>
    <text
       id="text7830"
       style="font-size:14px;text-anchor:start;font-family:Times New Roman"
       y="-543.90002"
       x="688.5">updated_at :datetime</text>
  </g>
  <g
     class="edge"
     id="edge10"
     transform="matrix(0.9671218,0,0,0.9671218,28.57715,962.99607)">
    <title
       id="title7833">User-&gt;Role</title>
    <path
       id="path7835"
       d="M 728,-649 C 731,-642 735,-636 738,-629"
       style="fill:none;stroke:#000000" />
    <polygon
       id="polygon7837"
       points="728.061,-648.862 719.888,-656.172 726.031,-653.431 724,-658 724,-658 724,-658 726.031,-653.431 728.112,-659.828 728.061,-648.862 728.061,-648.862 "
       style="fill:#000000;stroke:#000000" />
    <polygon
       id="polygon7839"
       points="737.939,-629.138 746.112,-621.828 739.969,-624.569 742,-620 742,-620 742,-620 739.969,-624.569 737.888,-618.172 737.939,-629.138 737.939,-629.138 "
       style="fill:#000000;stroke:#000000" />
  </g>
  <g
     class="node"
     id="node6"
     transform="matrix(0.9671218,0,0,0.9671218,28.57715,962.99607)">
    <title
       id="title7842">Audit</title>
    <polyline
       id="polyline7844"
       points="583,-0 724,-0 "
       style="fill:none;stroke:#000000" />
    <path
       id="path7846"
       d="M 724,0 C 730,0 736,-6 736,-12"
       style="fill:none;stroke:#000000" />
    <polyline
       id="polyline7848"
       points="736,-12 736,-72 "
       style="fill:none;stroke:#000000" />
    <path
       id="path7850"
       d="M 736,-72 C 736,-78 730,-84 724,-84"
       style="fill:none;stroke:#000000" />
    <polyline
       id="polyline7852"
       points="724,-84 583,-84 "
       style="fill:none;stroke:#000000" />
    <path
       id="path7854"
       d="M 583,-84 C 577,-84 571,-78 571,-72"
       style="fill:none;stroke:#000000" />
    <polyline
       id="polyline7856"
       points="571,-72 571,-12 "
       style="fill:none;stroke:#000000" />
    <path
       id="path7858"
       d="M 571,-12 C 571,-6 577,0 583,0"
       style="fill:none;stroke:#000000" />
    <text
       id="text7860"
       style="font-size:14px;text-anchor:middle;font-family:Times New Roman"
       y="-66.900002"
       x="653">Audit</text>
    <polyline
       id="polyline7862"
       points="571,-59 736,-59 "
       style="fill:none;stroke:#000000" />
    <text
       id="text7864"
       style="font-size:14px;text-anchor:start;font-family:Times New Roman"
       y="-41.900002"
       x="578.5">created_at :datetime</text>
    <text
       id="text7866"
       style="font-size:14px;text-anchor:start;font-family:Times New Roman"
       y="-24.9"
       x="578.5">updated_at :datetime</text>
    <text
       id="text7868"
       style="font-size:14px;text-anchor:start;font-family:Times New Roman"
       y="-7.9000001"
       x="578.5">action :text</text>
  </g>
  <g
     class="edge"
     id="edge2"
     transform="matrix(0.9671218,0,0,0.9671218,28.57715,978.47002)">
    <title
       id="title7871">User-&gt;Audit</title>
    <path
       id="path7873"
       d="M 502,-759 C 367,-717 192,-647 192,-578 C 192,-578 192,-578 192,-173 C 192,-97 428,-62 563,-49"
       style="fill:none;stroke:#000000" />
    <polygon
       id="polygon7875"
       points="502.422,-759.126 510.707,-766.31 507.211,-760.563 512,-762 512,-762 512,-762 507.211,-760.563 513.293,-757.69 502.422,-759.126 502.422,-759.126 "
       style="fill:#000000;stroke:#000000" />
    <ellipse
       sodipodi:ry="4.00001"
       sodipodi:rx="4.00001"
       sodipodi:cy="-48.496201"
       sodipodi:cx="567.03101"
       id="ellipse7877"
       ry="4.00001"
       rx="4.00001"
       cy="-48.496201"
       cx="567.03101"
       style="fill:#000000;stroke:#000000" />
  </g>
  <g
     class="node"
     id="node7"
     transform="matrix(0.9671218,0,0,0.9671218,28.57715,962.99607)">
    <title
       id="title7880">Share</title>
    <polyline
       id="polyline7882"
       points="855,-122 1003,-122 "
       style="fill:none;stroke:#000000" />
    <path
       id="path7884"
       d="M 1003,-122 C 1009,-122 1015,-128 1015,-134"
       style="fill:none;stroke:#000000" />
    <polyline
       id="polyline7886"
       points="1015,-134 1015,-211 "
       style="fill:none;stroke:#000000" />
    <path
       id="path7888"
       d="M 1015,-211 C 1015,-217 1009,-223 1003,-223"
       style="fill:none;stroke:#000000" />
    <polyline
       id="polyline7890"
       points="1003,-223 855,-223 "
       style="fill:none;stroke:#000000" />
    <path
       id="path7892"
       d="M 855,-223 C 849,-223 843,-217 843,-211"
       style="fill:none;stroke:#000000" />
    <polyline
       id="polyline7894"
       points="843,-211 843,-134 "
       style="fill:none;stroke:#000000" />
    <path
       id="path7896"
       d="M 843,-134 C 843,-128 849,-122 855,-122"
       style="fill:none;stroke:#000000" />
    <text
       id="text7898"
       style="font-size:14px;text-anchor:middle;font-family:Times New Roman"
       y="-205.89999"
       x="929">Share</text>
    <polyline
       id="polyline7900"
       points="843,-198 1015,-198 "
       style="fill:none;stroke:#000000" />
    <text
       id="text7902"
       style="font-size:14px;text-anchor:start;font-family:Times New Roman"
       y="-181.39999"
       x="851">can_update :boolean</text>
    <text
       id="text7904"
       style="font-size:14px;text-anchor:start;font-family:Times New Roman"
       y="-164.39999"
       x="851">can_checkout :boolean</text>
    <text
       id="text7906"
       style="font-size:14px;text-anchor:start;font-family:Times New Roman"
       y="-147.39999"
       x="851">created_at :datetime</text>
    <text
       id="text7908"
       style="font-size:14px;text-anchor:start;font-family:Times New Roman"
       y="-130.39999"
       x="851">updated_at :datetime</text>
  </g>
  <g
     class="edge"
     id="edge6"
     transform="matrix(0.9671218,0,0,0.9671218,28.57715,962.99607)">
    <title
       id="title7911">User-&gt;Share</title>
    <path
       id="path7913"
       d="M 804,-781 C 947,-751 1151,-680 1213,-518 C 1231,-468 1321,-453 1105,-242 C 1082,-220 1052,-205 1023,-195"
       style="fill:none;stroke:#000000" />
    <polygon
       id="polygon7915"
       points="803.806,-781.039 793.117,-778.587 798.903,-782.019 794,-783 794,-783 794,-783 798.903,-782.019 794.883,-787.413 803.806,-781.039 803.806,-781.039 "
       style="fill:#000000;stroke:#000000" />
    <ellipse
       sodipodi:ry="4.00001"
       sodipodi:rx="4.00001"
       sodipodi:cy="-193.405"
       sodipodi:cx="1018.75"
       id="ellipse7917"
       ry="4.00001"
       rx="4.00001"
       cy="-193.405"
       cx="1018.75"
       style="fill:#000000;stroke:#000000" />
    <text
       id="text7919"
       style="font-size:14px;text-anchor:middle;font-family:Times New Roman"
       y="-504.89999"
       x="1270">shares_by_me</text>
  </g>
  <g
     class="edge"
     id="edge8"
     transform="matrix(0.9671218,0,0,0.9671218,28.57715,962.99607)">
    <title
       id="title7922">User-&gt;Share</title>
    <path
       id="path7924"
       d="M 804,-774 C 892,-750 996,-704 1051,-620 C 1131,-495 1033,-319 972,-230"
       style="fill:none;stroke:#000000" />
    <polygon
       id="polygon7926"
       points="803.578,-774.126 792.707,-772.69 798.789,-775.563 794,-777 794,-777 794,-777 798.789,-775.563 795.293,-781.31 803.578,-774.126 803.578,-774.126 "
       style="fill:#000000;stroke:#000000" />
    <ellipse
       sodipodi:ry="4.00002"
       sodipodi:rx="4.00002"
       sodipodi:cy="-226.255"
       sodipodi:cx="969.32501"
       id="ellipse7928"
       ry="4.00002"
       rx="4.00002"
       cy="-226.255"
       cx="969.32501"
       style="fill:#000000;stroke:#000000" />
    <text
       id="text7930"
       style="font-size:14px;text-anchor:middle;font-family:Times New Roman"
       y="-504.89999"
       x="1140">shares_by_others</text>
  </g>
  <g
     class="edge"
     id="edge20"
     transform="matrix(0.9671218,0,0,0.9671218,28.57715,962.99607)">
    <title
       id="title7933">Department-&gt;Document</title>
    <path
       id="path7935"
       d="M 571,-527 C 577,-515 584,-502 591,-489"
       style="fill:none;stroke:#000000" />
    <polygon
       id="polygon7937"
       points="570.856,-527.258 562.066,-533.815 568.428,-531.629 566,-536 566,-536 566,-536 568.428,-531.629 569.934,-538.185 570.856,-527.258 570.856,-527.258 "
       style="fill:#000000;stroke:#000000" />
    <ellipse
       sodipodi:ry="4.00002"
       sodipodi:rx="4.00002"
       sodipodi:cy="-485.47299"
       sodipodi:cx="593.01501"
       id="ellipse7939"
       ry="4.00002"
       rx="4.00002"
       cy="-485.47299"
       cx="593.01501"
       style="fill:#000000;stroke:#000000" />
  </g>
  <g
     class="edge"
     id="edge22"
     transform="matrix(0.9671218,0,0,0.9671218,28.57715,962.99607)">
    <title
       id="title7942">Document-&gt;Audit</title>
    <path
       id="path7944"
       d="M 653,-252 C 653,-197 653,-135 653,-92"
       style="fill:none;stroke:#000000" />
    <polygon
       id="polygon7946"
       points="653,-252 648.5,-262 653,-257 653,-262 653,-262 653,-262 653,-257 657.5,-262 653,-252 653,-252 "
       style="fill:#000000;stroke:#000000" />
    <ellipse
       sodipodi:ry="4"
       sodipodi:rx="4"
       sodipodi:cy="-88"
       sodipodi:cx="653"
       id="ellipse7948"
       ry="4"
       rx="4"
       cy="-88"
       cx="653"
       style="fill:#000000;stroke:#000000" />
  </g>
  <g
     class="edge"
     id="edge24"
     transform="matrix(0.9671218,0,0,0.9671218,28.57715,962.99607)">
    <title
       id="title7951">Document-&gt;Share</title>
    <path
       id="path7953"
       d="M 777,-282 C 804,-264 829,-245 852,-228"
       style="fill:none;stroke:#000000" />
    <polygon
       id="polygon7955"
       points="777,-282 766.3,-284.4 773,-285 769,-288 769,-288 769,-288 773,-285 771.7,-291.6 777,-282 777,-282 "
       style="fill:#000000;stroke:#000000" />
    <ellipse
       sodipodi:ry="4.00002"
       sodipodi:rx="4.00002"
       sodipodi:cy="-225.325"
       sodipodi:cx="855.745"
       id="ellipse7957"
       ry="4.00002"
       rx="4.00002"
       cy="-225.325"
       cx="855.745"
       style="fill:#000000;stroke:#000000" />
  </g>
  <g
     class="edge"
     id="edge26"
     transform="matrix(0.9671218,0,0,0.9671218,28.57715,962.99607)">
    <title
       id="title7960">Share-&gt;Audit</title>
    <path
       id="path7962"
       d="M 834,-128 C 805,-114 772,-99 743,-86"
       style="fill:none;stroke:#000000" />
    <polygon
       id="polygon7964"
       points="833.862,-127.939 841.172,-136.112 838.431,-129.969 843,-132 843,-132 843,-132 838.431,-129.969 844.828,-127.888 833.862,-127.939 833.862,-127.939 "
       style="fill:#000000;stroke:#000000" />
    <ellipse
       sodipodi:ry="4.00002"
       sodipodi:rx="4.00002"
       sodipodi:cy="-83.984596"
       sodipodi:cx="739.47302"
       id="ellipse7966"
       ry="4.00002"
       rx="4.00002"
       cy="-83.984596"
       cx="739.47302"
       style="fill:#000000;stroke:#000000" />
  </g>
  <text
     xml:space="preserve"
     style="font-size:40px;font-style:normal;font-variant:normal;font-weight:normal;font-stretch:normal;fill:#000000;fill-opacity:1;stroke:none;stroke-width:1px;stroke-linecap:butt;stroke-linejoin:miter;stroke-opacity:1;font-family:Times New Roman;-inkscape-font-specification:'Times New Roman,'"
     x="15.439033"
     y="-3.1004369"
     id="text9677"><tspan
       sodipodi:role="line"
       id="tspan9679"
       x="15.439033"
       y="-3.1004369"
       style="font-size:24px">Model Diagram (Database Schema)</tspan><tspan
       sodipodi:role="line"
       x="15.439033"
       y="26.899563"
       style="font-size:24px"
       id="tspan9685">Group 9 - CSE 545</tspan></text>
  <text
     xml:space="preserve"
     style="font-size:40px;font-style:normal;font-variant:normal;font-weight:normal;font-stretch:normal;fill:#000000;fill-opacity:1;stroke:none;stroke-width:1px;stroke-linecap:butt;stroke-linejoin:miter;stroke-opacity:1;font-family:Times New Roman;-inkscape-font-specification:'Times New Roman,'"
     x="15.439033"
     y="56.614624"
     id="text10454"><tspan
       sodipodi:role="line"
       id="tspan10456"
       x="15.439033"
       y="56.614624"
       style="font-size:14px;font-weight:bold;text-align:justify;text-anchor:start;-inkscape-font-specification:'Times New Roman, Bold'">Note About User Roles and Departments:</tspan><tspan
       sodipodi:role="line"
       x="15.439033"
       y="74.114624"
       style="font-size:14px;text-align:justify;text-anchor:start"
       id="tspan10464" /><tspan
       sodipodi:role="line"
       x="15.439033"
       y="91.614624"
       style="font-size:14px;text-align:justify;text-anchor:start"
       id="tspan10472">In this setup, roles and departments are joined to users via a many </tspan><tspan
       sodipodi:role="line"
       x="15.439033"
       y="109.11462"
       style="font-size:14px;text-align:justify;text-anchor:start"
       id="tspan10474">to many relationship. As such, there is a &quot;roles_users&quot; table and a </tspan><tspan
       sodipodi:role="line"
       x="15.439033"
       y="126.61462"
       style="font-size:14px;text-align:justify;text-anchor:start"
       id="tspan10476">&quot;departments_users&quot; table. Each table maintains entries that link </tspan><tspan
       sodipodi:role="line"
       x="15.439033"
       y="144.11462"
       style="font-size:14px;text-align:justify;text-anchor:start"
       id="tspan10478">users to their departments and roles. This way, a user can be part </tspan><tspan
       sodipodi:role="line"
       x="15.439033"
       y="161.61462"
       style="font-size:14px;text-align:justify;text-anchor:start"
       id="tspan10480">of more than one department or role. This implementation allows </tspan><tspan
       sodipodi:role="line"
       x="15.439033"
       y="179.11462"
       style="font-size:14px;text-align:justify;text-anchor:start"
       id="tspan11818">for expansion later on in case business requirement change. For </tspan><tspan
       sodipodi:role="line"
       x="15.439033"
       y="196.61462"
       style="font-size:14px;text-align:justify;text-anchor:start"
       id="tspan11730">our purposes, the Roles table will contain Employee, Manager, </tspan><tspan
       sodipodi:role="line"
       x="15.439033"
       y="214.11462"
       style="font-size:14px;text-align:justify;text-anchor:start"
       id="tspan11734">Corporate, and Administrator. The Departments table will contain </tspan><tspan
       sodipodi:role="line"
       x="15.439033"
       y="231.61462"
       style="font-size:14px;text-align:justify;text-anchor:start"
       id="tspan11736">Human Resources, IT Support, Logistics and Supply, Research </tspan><tspan
       sodipodi:role="line"
       x="15.439033"
       y="249.11462"
       style="font-size:14px;text-align:justify;text-anchor:start"
       id="tspan11773">and Development, and Sales</tspan></text>
  <g
     id="g11526"
     transform="translate(10.292703,-51.463443)">
    <g
       id="g11492">
      <g
         transform="matrix(-0.4390641,-0.8617118,0.8617118,-0.4390641,1820.6841,293.61514)"
         id="g10486"
         class="edge">
        <title
           id="title10488">User-&gt;Department</title>
        <path
           style="fill:none;stroke:#000000"
           d="M 578,-649 C 575,-642 571,-636 568,-629"
           id="path10490" />
        <polygon
           style="fill:#000000;stroke:#000000"
           points="577.939,-648.862 577.888,-659.828 579.969,-653.431 582,-658 582,-658 582,-658 579.969,-653.431 586.112,-656.172 577.939,-648.862 577.939,-648.862 "
           id="polygon10492" />
        <polygon
           style="fill:#000000;stroke:#000000"
           points="568.061,-629.138 568.112,-618.172 566.031,-624.569 564,-620 564,-620 564,-620 566.031,-624.569 559.888,-621.828 568.061,-629.138 568.061,-629.138 "
           id="polygon10494" />
      </g>
      <g
         transform="matrix(0.4390641,0.8617118,0.8617118,-0.4390641,1211.291,-609.68092)"
         id="g10496"
         class="edge">
        <title
           id="title10498">Department-&gt;Document</title>
        <path
           style="fill:none;stroke:#000000;stroke-width:0.81519985"
           d="M 570.9076,-527.0924 C 575.7988,-517.31 581.5052,-506.7124 587.2116,-496.11481"
           id="path10500" />
        <polygon
           style="fill:#000000;stroke:#000000"
           points="570.856,-527.258 562.066,-533.815 568.428,-531.629 566,-536 566,-536 566,-536 568.428,-531.629 569.934,-538.185 570.856,-527.258 570.856,-527.258 "
           id="polygon10502" />
        <ellipse
           style="fill:#000000;stroke:#000000"
           cx="593.01501"
           cy="-485.47299"
           rx="4.00002"
           ry="4.00002"
           id="ellipse10504"
           sodipodi:cx="593.01501"
           sodipodi:cy="-485.47299"
           sodipodi:rx="4.00002"
           sodipodi:ry="4.00002"
           transform="translate(-8.2026072,-14.200213)" />
      </g>
      <text
         xml:space="preserve"
         style="font-size:39.99999619px;font-style:normal;font-variant:normal;font-weight:normal;font-stretch:normal;fill:#000000;fill-opacity:1;stroke:none;stroke-width:1px;stroke-linecap:butt;stroke-linejoin:miter;stroke-opacity:1;font-family:Times New Roman;-inkscape-font-specification:'Times New Roman,'"
         x="1082.9574"
         y="118.62334"
         id="text10506"><tspan
           sodipodi:role="line"
           x="1082.9574"
           y="118.62334"
           style="font-size:18px"
           id="tspan10524">A has many B</tspan><tspan
           sodipodi:role="line"
           x="1082.9574"
           y="141.12334"
           style="font-size:18px"
           id="tspan10520" /></text>
      <g
         id="g11336"
         transform="matrix(0.4904348,0,0,0.4904348,561.04784,84.748302)">
        <rect
           ry="11.677444"
           transform="matrix(1.0314031,0,0,1.0314031,-25.049902,-19.411877)"
           y="-12.451537"
           x="833.258"
           height="44.108017"
           width="48.080479"
           id="rect10560"
           style="fill:#ffffff;fill-opacity:1;stroke:#000000;stroke-width:1.98740911;stroke-miterlimit:4;stroke-dasharray:none;stroke-opacity:1" />
        <text
           id="text11332"
           y="2.9250529"
           x="844.68866"
           style="font-size:41.25612259px;font-style:normal;font-variant:normal;font-weight:normal;font-stretch:normal;fill:#000000;fill-opacity:1;stroke:none;stroke-width:1px;stroke-linecap:butt;stroke-linejoin:miter;stroke-opacity:1;font-family:Times New Roman;-inkscape-font-specification:'Times New Roman,'"
           xml:space="preserve"><tspan
             y="2.9250529"
             x="844.68866"
             id="tspan11334"
             sodipodi:role="line">A</tspan></text>
      </g>
      <g
         id="g11379"
         transform="matrix(0.4904348,0,0,0.4904348,634.97207,84.748302)">
        <rect
           ry="11.677444"
           transform="matrix(1.0314031,0,0,1.0314031,-25.049902,-19.411877)"
           y="-12.451537"
           x="833.258"
           height="44.108017"
           width="48.080479"
           id="rect11381"
           style="fill:#ffffff;fill-opacity:1;stroke:#000000;stroke-width:1.98740911;stroke-miterlimit:4;stroke-dasharray:none;stroke-opacity:1" />
        <text
           id="text11383"
           y="2.9250529"
           x="844.68866"
           style="font-size:41.25612259px;font-style:normal;font-variant:normal;font-weight:normal;font-stretch:normal;fill:#000000;fill-opacity:1;stroke:none;stroke-width:1px;stroke-linecap:butt;stroke-linejoin:miter;stroke-opacity:1;font-family:Times New Roman;-inkscape-font-specification:'Times New Roman,'"
           xml:space="preserve"><tspan
             y="2.9250529"
             x="844.68866"
             id="tspan11385"
             sodipodi:role="line">B</tspan></text>
      </g>
      <g
         id="g11401"
         transform="matrix(0.4904348,0,0,0.4904348,561.51931,118.1396)">
        <rect
           ry="11.677444"
           transform="matrix(1.0314031,0,0,1.0314031,-25.049902,-19.411877)"
           y="-12.451537"
           x="833.258"
           height="44.108017"
           width="48.080479"
           id="rect11403"
           style="fill:#ffffff;fill-opacity:1;stroke:#000000;stroke-width:1.98740911;stroke-miterlimit:4;stroke-dasharray:none;stroke-opacity:1" />
        <text
           id="text11405"
           y="2.9250529"
           x="844.68866"
           style="font-size:41.25612259px;font-style:normal;font-variant:normal;font-weight:normal;font-stretch:normal;fill:#000000;fill-opacity:1;stroke:none;stroke-width:1px;stroke-linecap:butt;stroke-linejoin:miter;stroke-opacity:1;font-family:Times New Roman;-inkscape-font-specification:'Times New Roman,'"
           xml:space="preserve"><tspan
             y="2.9250529"
             x="844.68866"
             id="tspan11407"
             sodipodi:role="line">A</tspan></text>
      </g>
      <g
         id="g11409"
         transform="matrix(0.4904348,0,0,0.4904348,635.44354,118.1396)">
        <rect
           ry="11.677444"
           transform="matrix(1.0314031,0,0,1.0314031,-25.049902,-19.411877)"
           y="-12.451537"
           x="833.258"
           height="44.108017"
           width="48.080479"
           id="rect11411"
           style="fill:#ffffff;fill-opacity:1;stroke:#000000;stroke-width:1.98740911;stroke-miterlimit:4;stroke-dasharray:none;stroke-opacity:1" />
        <text
           id="text11413"
           y="2.9250529"
           x="844.68866"
           style="font-size:41.25612259px;font-style:normal;font-variant:normal;font-weight:normal;font-stretch:normal;fill:#000000;fill-opacity:1;stroke:none;stroke-width:1px;stroke-linecap:butt;stroke-linejoin:miter;stroke-opacity:1;font-family:Times New Roman;-inkscape-font-specification:'Times New Roman,'"
           xml:space="preserve"><tspan
             y="2.9250529"
             x="844.68866"
             id="tspan11415"
             sodipodi:role="line">B</tspan></text>
      </g>
      <text
         xml:space="preserve"
         style="font-size:39.99999619px;font-style:normal;font-variant:normal;font-weight:normal;font-stretch:normal;fill:#000000;fill-opacity:1;stroke:none;stroke-width:1px;stroke-linecap:butt;stroke-linejoin:miter;stroke-opacity:1;font-family:Times New Roman;-inkscape-font-specification:'Times New Roman,'"
         x="1082.4808"
         y="84.724106"
         id="text11459"><tspan
           sodipodi:role="line"
           x="1082.4808"
           y="84.724106"
           style="font-size:18px"
           id="tspan11462">A has and belongs to many B</tspan><tspan
           sodipodi:role="line"
           x="1082.4808"
           y="107.22411"
           style="font-size:18px"
           id="tspan11464" /></text>
    </g>
    <text
       id="text11488"
       y="50.496723"
       x="970.08588"
       style="font-size:40px;font-style:normal;font-variant:normal;font-weight:normal;font-stretch:normal;fill:#000000;fill-opacity:1;stroke:none;stroke-width:1px;stroke-linecap:butt;stroke-linejoin:miter;stroke-opacity:1;font-family:Times New Roman;-inkscape-font-specification:'Times New Roman,'"
       xml:space="preserve"><tspan
         style="font-size:24px"
         y="50.496723"
         x="970.08588"
         id="tspan11490"
         sodipodi:role="line">Key</tspan></text>
  </g>
  <text
     xml:space="preserve"
     style="font-size:12px;font-style:normal;font-variant:normal;font-weight:normal;font-stretch:normal;fill:#000000;fill-opacity:1;stroke:none;stroke-width:1px;stroke-linecap:butt;stroke-linejoin:miter;stroke-opacity:1;font-family:Times New Roman;-inkscape-font-specification:'Times New Roman,'"
     x="980.3786"
     y="95.527237"
     id="text11758"><tspan
       sodipodi:role="line"
       x="980.3786"
       y="95.527237"
       id="tspan11762"
       style="font-size:14px"><tspan
   style="font-weight:bold"
   id="tspan11774">Note</tspan>: ID columns are not shown. Relationships using IDs</tspan><tspan
       sodipodi:role="line"
       x="980.3786"
       y="113.02724"
       style="font-size:14px"
       id="tspan11768">are implied through the links drawn between tables. The </tspan><tspan
       sodipodi:role="line"
       x="980.3786"
       y="130.52724"
       style="font-size:14px"
       id="tspan11779">has many relationship in the A/B example above implies </tspan><tspan
       sodipodi:role="line"
       x="980.3786"
       y="148.02724"
       style="font-size:14px"
       id="tspan11781">there is a column in the B table called &quot;a_id&quot;. The has and</tspan><tspan
       sodipodi:role="line"
       x="980.3786"
       y="165.52724"
       style="font-size:14px"
       id="tspan11791">belongs to many in the example above implies there is a</tspan><tspan
       sodipodi:role="line"
       x="980.3786"
       y="183.02724"
       style="font-size:14px"
       id="tspan11793">third table called a_b that has columns titled &quot;id&quot;, &quot;a_id&quot;,</tspan><tspan
       sodipodi:role="line"
       x="980.3786"
       y="200.52724"
       style="font-size:14px"
       id="tspan11795">and &quot;b_id&quot;.</tspan></text>
  <text
     xml:space="preserve"
     style="font-size:12px;font-style:normal;font-variant:normal;font-weight:normal;font-stretch:normal;fill:#000000;fill-opacity:1;stroke:none;stroke-width:1px;stroke-linecap:butt;stroke-linejoin:miter;stroke-opacity:1;font-family:Times New Roman;-inkscape-font-specification:'Times New Roman,'"
     x="335.47733"
     y="40.525677"
     id="text11822"><tspan
       sodipodi:role="line"
       id="tspan11824"
       x="335.47733"
       y="40.525677" /></text>
</svg>
