<?xml version="1.0" encoding="UTF-8" standalone="no"?>
<!DOCTYPE svg PUBLIC "-//W3C//DTD SVG 1.0//EN"
 "http://www.w3.org/TR/2001/REC-SVG-20010904/DTD/svg10.dtd" [
 <!ATTLIST svg xmlns:xlink CDATA #FIXED "http://www.w3.org/1999/xlink">
]>
<!-- Generated by Graphviz version 2.20.2 (Mon Mar 30 10:11:53 UTC 2009)
     For user: (adigiro) Anthony,,,, -->
<!-- Title: models_diagram Pages: 1 -->
<svg width="324pt" height="461pt"
 viewBox="0.00 0.00 324.00 461.00" xmlns="http://www.w3.org/2000/svg" xmlns:xlink="http://www.w3.org/1999/xlink">
<g id="graph0" class="graph" transform="scale(1 1) rotate(0) translate(4 457)">
<title>models_diagram</title>
<polygon style="fill:white;stroke:white;" points="-4,4 -4,-457 320,-457 320,4 -4,4"/>
<g id="cluster2" class="cluster"><title>cluster_user</title>
<polygon style="fill:none;stroke:black;" points="8,-16 8,-445 308,-445 308,-16 8,-16"/>
<text text-anchor="middle" x="158" y="-428.9" style="font-family:Times New Roman;font-size:14.00;">User</text>
</g>
<!-- user_deleted -->
<g id="node2" class="node"><title>user_deleted</title>
<ellipse style="fill:none;stroke:black;" cx="140" cy="-42" rx="46.0565" ry="18"/>
<text text-anchor="middle" x="140" y="-37.9" style="font-family:Times New Roman;font-size:14.00;">deleted</text>
</g>
<!-- user_pending -->
<g id="node3" class="node"><title>user_pending</title>
<ellipse style="fill:none;stroke:black;" cx="74" cy="-390" rx="48.8756" ry="18"/>
<ellipse style="fill:none;stroke:black;" cx="74" cy="-390" rx="52.8382" ry="22"/>
<text text-anchor="middle" x="74" y="-385.9" style="font-family:Times New Roman;font-size:14.00;">pending</text>
</g>
<!-- user_pending&#45;&gt;user_deleted -->
<g id="edge21" class="edge"><title>user_pending&#45;&gt;user_deleted</title>
<path style="fill:none;stroke:black;" d="M63,-368C47,-332 18,-257 35,-196 52,-137 68,-126 105,-78 108,-74 111,-70 115,-66"/>
<polygon style="fill:black;stroke:black;" points="117.404,-68.546 122,-59 112.454,-63.5962 117.404,-68.546"/>
<text text-anchor="middle" x="50" y="-211.5" style="font-family:Times New Roman;font-size:10.00;">delete</text>
</g>
<!-- user_active -->
<g id="node4" class="node"><title>user_active</title>
<ellipse style="fill:none;stroke:black;" cx="261" cy="-300" rx="39.1069" ry="18"/>
<text text-anchor="middle" x="261" y="-295.9" style="font-family:Times New Roman;font-size:14.00;">active</text>
</g>
<!-- user_pending&#45;&gt;user_active -->
<g id="edge17" class="edge"><title>user_pending&#45;&gt;user_active</title>
<path style="fill:none;stroke:black;" d="M109,-373C142,-358 191,-334 225,-318"/>
<polygon style="fill:black;stroke:black;" points="226.958,-320.916 234,-313 223.559,-314.797 226.958,-320.916"/>
<text text-anchor="middle" x="204" y="-340.5" style="font-family:Times New Roman;font-size:10.00;">activate</text>
</g>
<!-- user_suspended -->
<g id="node6" class="node"><title>user_suspended</title>
<ellipse style="fill:none;stroke:black;" cx="164" cy="-214" rx="61.8445" ry="18"/>
<text text-anchor="middle" x="164" y="-209.9" style="font-family:Times New Roman;font-size:14.00;">suspended</text>
</g>
<!-- user_pending&#45;&gt;user_suspended -->
<g id="edge7" class="edge"><title>user_pending&#45;&gt;user_suspended</title>
<path style="fill:none;stroke:black;" d="M73,-368C72,-345 74,-309 88,-282 98,-263 114,-248 129,-236"/>
<polygon style="fill:black;stroke:black;" points="131.1,-238.8 137,-230 126.9,-233.2 131.1,-238.8"/>
<text text-anchor="middle" x="109" y="-297.5" style="font-family:Times New Roman;font-size:10.00;">suspend</text>
</g>
<!-- user_active&#45;&gt;user_deleted -->
<g id="edge23" class="edge"><title>user_active&#45;&gt;user_deleted</title>
<path style="fill:none;stroke:black;" d="M274,-283C277,-277 281,-271 283,-264 284,-258 283,-256 283,-250 273,-185 277,-164 242,-110 227,-87 203,-71 181,-60"/>
<polygon style="fill:black;stroke:black;" points="182.441,-56.7969 172,-55 179.042,-62.916 182.441,-56.7969"/>
<text text-anchor="middle" x="286" y="-168.5" style="font-family:Times New Roman;font-size:10.00;">delete</text>
</g>
<!-- user_active&#45;&gt;user_suspended -->
<g id="edge9" class="edge"><title>user_active&#45;&gt;user_suspended</title>
<path style="fill:none;stroke:black;" d="M250,-283C243,-272 233,-259 223,-250 217,-244 211,-239 204,-235"/>
<polygon style="fill:black;stroke:black;" points="205.441,-231.797 195,-230 202.042,-237.916 205.441,-231.797"/>
<text text-anchor="middle" x="258" y="-254.5" style="font-family:Times New Roman;font-size:10.00;">suspend</text>
</g>
<!-- user_passive -->
<g id="node5" class="node"><title>user_passive</title>
<ellipse style="fill:none;stroke:black;" cx="187" cy="-128" rx="45.8622" ry="18"/>
<text text-anchor="middle" x="187" y="-123.9" style="font-family:Times New Roman;font-size:14.00;">passive</text>
</g>
<!-- user_passive&#45;&gt;user_deleted -->
<g id="edge19" class="edge"><title>user_passive&#45;&gt;user_deleted</title>
<path style="fill:none;stroke:black;" d="M177,-110C170,-98 162,-82 155,-69"/>
<polygon style="fill:black;stroke:black;" points="157.916,-67.0418 150,-60 151.797,-70.4414 157.916,-67.0418"/>
<text text-anchor="middle" x="184" y="-82.5" style="font-family:Times New Roman;font-size:10.00;">delete</text>
</g>
<!-- user_passive&#45;&gt;user_pending -->
<g id="edge3" class="edge"><title>user_passive&#45;&gt;user_pending</title>
<path style="fill:none;stroke:black;" d="M157,-142C145,-148 132,-155 121,-164 103,-178 67,-227 60,-250 50,-287 57,-329 64,-358"/>
<polygon style="fill:black;stroke:black;" points="60.7741,-359.427 67,-368 67.4788,-357.416 60.7741,-359.427"/>
<text text-anchor="middle" x="79" y="-254.5" style="font-family:Times New Roman;font-size:10.00;">register</text>
</g>
<!-- user_passive&#45;&gt;user_suspended -->
<g id="edge5" class="edge"><title>user_passive&#45;&gt;user_suspended</title>
<path style="fill:none;stroke:black;" d="M153,-140C142,-146 132,-153 126,-164 121,-173 125,-182 132,-190"/>
<polygon style="fill:black;stroke:black;" points="129.454,-192.404 139,-197 134.404,-187.454 129.454,-192.404"/>
<text text-anchor="middle" x="147" y="-168.5" style="font-family:Times New Roman;font-size:10.00;">suspend</text>
</g>
<!-- user_suspended&#45;&gt;user_deleted -->
<g id="edge25" class="edge"><title>user_suspended&#45;&gt;user_deleted</title>
<path style="fill:none;stroke:black;" d="M140,-197C125,-185 108,-167 102,-146 98,-130 98,-125 102,-110 106,-95 114,-80 121,-69"/>
<polygon style="fill:black;stroke:black;" points="124.365,-70.262 127,-60 118.541,-66.3791 124.365,-70.262"/>
<text text-anchor="middle" x="120" y="-125.5" style="font-family:Times New Roman;font-size:10.00;">delete</text>
</g>
<!-- user_suspended&#45;&gt;user_pending -->
<g id="edge13" class="edge"><title>user_suspended&#45;&gt;user_pending</title>
<path style="fill:none;stroke:black;" d="M160,-232C154,-253 144,-289 129,-318 122,-333 110,-348 100,-361"/>
<polygon style="fill:black;stroke:black;" points="96.9511,-359.169 93,-369 102.219,-363.779 96.9511,-359.169"/>
<text text-anchor="middle" x="172" y="-297.5" style="font-family:Times New Roman;font-size:10.00;">unsuspend</text>
</g>
<!-- user_suspended&#45;&gt;user_active -->
<g id="edge11" class="edge"><title>user_suspended&#45;&gt;user_active</title>
<path style="fill:none;stroke:black;" d="M160,-232C160,-242 160,-255 166,-264 168,-266 195,-276 221,-286"/>
<polygon style="fill:black;stroke:black;" points="219.406,-289.158 230,-289 221.62,-282.517 219.406,-289.158"/>
<text text-anchor="middle" x="198" y="-254.5" style="font-family:Times New Roman;font-size:10.00;">unsuspend</text>
</g>
<!-- user_suspended&#45;&gt;user_passive -->
<g id="edge15" class="edge"><title>user_suspended&#45;&gt;user_passive</title>
<path style="fill:none;stroke:black;" d="M169,-196C172,-184 177,-169 180,-156"/>
<polygon style="fill:black;stroke:black;" points="183.471,-156.492 182,-146 176.607,-155.119 183.471,-156.492"/>
<text text-anchor="middle" x="205" y="-168.5" style="font-family:Times New Roman;font-size:10.00;">unsuspend</text>
</g>
</g>
</svg>
