<?xml version="1.0" encoding="UTF-8" standalone="no"?>
<!DOCTYPE svg PUBLIC "-//W3C//DTD SVG 1.0//EN"
 "http://www.w3.org/TR/2001/REC-SVG-20010904/DTD/svg10.dtd" [
 <!ATTLIST svg xmlns:xlink CDATA #FIXED "http://www.w3.org/1999/xlink">
]>
<!-- Generated by Graphviz version 2.20.2 (Mon Mar 30 10:11:53 UTC 2009)
     For user: (adigiro) Anthony,,,, -->
<!-- Title: models_diagram Pages: 1 -->
<svg width="358pt" height="461pt"
 viewBox="0.00 0.00 358.00 461.00" xmlns="http://www.w3.org/2000/svg" xmlns:xlink="http://www.w3.org/1999/xlink">
<g id="graph0" class="graph" transform="scale(1 1) rotate(0) translate(4 457)">
<title>models_diagram</title>
<polygon style="fill:white;stroke:white;" points="-4,4 -4,-457 354,-457 354,4 -4,4"/>
<g id="cluster2" class="cluster"><title>cluster_user</title>
<polygon style="fill:none;stroke:black;" points="8,-16 8,-445 342,-445 342,-16 8,-16"/>
<text text-anchor="middle" x="175" y="-428.9" style="font-family:Times New Roman;font-size:14.00;">User</text>
</g>
<!-- user_suspended -->
<g id="node2" class="node"><title>user_suspended</title>
<ellipse style="fill:none;stroke:black;" cx="94" cy="-394" rx="61.8445" ry="18"/>
<text text-anchor="middle" x="94" y="-389.9" style="font-family:Times New Roman;font-size:14.00;">suspended</text>
</g>
<!-- user_deleted -->
<g id="node3" class="node"><title>user_deleted</title>
<ellipse style="fill:none;stroke:black;" cx="160" cy="-42" rx="46.0565" ry="18"/>
<text text-anchor="middle" x="160" y="-37.9" style="font-family:Times New Roman;font-size:14.00;">deleted</text>
</g>
<!-- user_suspended&#45;&gt;user_deleted -->
<g id="edge13" class="edge"><title>user_suspended&#45;&gt;user_deleted</title>
<path style="fill:none;stroke:black;" d="M66,-378C58,-372 49,-366 43,-358 33,-345 32,-341 28,-326 23,-302 30,-227 34,-196 41,-157 34,-142 56,-110 73,-88 97,-71 119,-60"/>
<polygon style="fill:black;stroke:black;" points="120.958,-62.916 128,-55 117.559,-56.7969 120.958,-62.916"/>
<text text-anchor="middle" x="49" y="-215.5" style="font-family:Times New Roman;font-size:10.00;">delete</text>
</g>
<!-- user_active -->
<g id="node4" class="node"><title>user_active</title>
<ellipse style="fill:none;stroke:black;" cx="104" cy="-128" rx="39.1069" ry="18"/>
<text text-anchor="middle" x="104" y="-123.9" style="font-family:Times New Roman;font-size:14.00;">active</text>
</g>
<!-- user_suspended&#45;&gt;user_active -->
<g id="edge21" class="edge"><title>user_suspended&#45;&gt;user_active</title>
<path style="fill:none;stroke:black;" d="M89,-376C88,-370 86,-364 85,-358 85,-351 85,-350 85,-344 86,-319 85,-313 86,-290 90,-239 95,-227 100,-178 101,-171 101,-163 102,-156"/>
<polygon style="fill:black;stroke:black;" points="105.488,-156.299 103,-146 98.5222,-155.602 105.488,-156.299"/>
<text text-anchor="middle" x="118" y="-262.5" style="font-family:Times New Roman;font-size:10.00;">unsuspend</text>
</g>
<!-- user_pending -->
<g id="node5" class="node"><title>user_pending</title>
<ellipse style="fill:none;stroke:black;" cx="177" cy="-218" rx="48.8756" ry="18"/>
<ellipse style="fill:none;stroke:black;" cx="177" cy="-218" rx="52.8382" ry="22"/>
<text text-anchor="middle" x="177" y="-213.9" style="font-family:Times New Roman;font-size:14.00;">pending</text>
</g>
<!-- user_suspended&#45;&gt;user_pending -->
<g id="edge23" class="edge"><title>user_suspended&#45;&gt;user_pending</title>
<path style="fill:none;stroke:black;" d="M90,-376C87,-353 84,-314 103,-290 120,-269 141,-290 159,-272 165,-266 169,-258 172,-250"/>
<polygon style="fill:black;stroke:black;" points="175.471,-250.492 174,-240 168.607,-249.119 175.471,-250.492"/>
<text text-anchor="middle" x="130" y="-305.5" style="font-family:Times New Roman;font-size:10.00;">unsuspend</text>
</g>
<!-- user_passive -->
<g id="node6" class="node"><title>user_passive</title>
<ellipse style="fill:none;stroke:black;" cx="211" cy="-308" rx="45.8622" ry="18"/>
<text text-anchor="middle" x="211" y="-303.9" style="font-family:Times New Roman;font-size:14.00;">passive</text>
</g>
<!-- user_suspended&#45;&gt;user_passive -->
<g id="edge25" class="edge"><title>user_suspended&#45;&gt;user_passive</title>
<path style="fill:none;stroke:black;" d="M135,-380C149,-375 163,-367 175,-358 183,-351 190,-342 196,-334"/>
<polygon style="fill:black;stroke:black;" points="198.8,-336.1 202,-326 193.2,-331.9 198.8,-336.1"/>
<text text-anchor="middle" x="215" y="-348.5" style="font-family:Times New Roman;font-size:10.00;">unsuspend</text>
</g>
<!-- user_active&#45;&gt;user_suspended -->
<g id="edge19" class="edge"><title>user_active&#45;&gt;user_suspended</title>
<path style="fill:none;stroke:black;" d="M102,-146C99,-170 90,-211 68,-240 60,-251 49,-245 42,-258 22,-297 32,-318 52,-358 54,-362 58,-367 61,-370"/>
<polygon style="fill:black;stroke:black;" points="59.1694,-373.049 69,-377 63.779,-367.781 59.1694,-373.049"/>
<text text-anchor="middle" x="63" y="-262.5" style="font-family:Times New Roman;font-size:10.00;">suspend</text>
</g>
<!-- user_active&#45;&gt;user_deleted -->
<g id="edge11" class="edge"><title>user_active&#45;&gt;user_deleted</title>
<path style="fill:none;stroke:black;" d="M115,-111C123,-99 134,-82 143,-68"/>
<polygon style="fill:black;stroke:black;" points="145.8,-70.1 149,-60 140.2,-65.9 145.8,-70.1"/>
<text text-anchor="middle" x="152" y="-82.5" style="font-family:Times New Roman;font-size:10.00;">delete</text>
</g>
<!-- user_pending&#45;&gt;user_suspended -->
<g id="edge17" class="edge"><title>user_pending&#45;&gt;user_suspended</title>
<path style="fill:none;stroke:black;" d="M209,-236C219,-242 230,-250 239,-258 252,-270 259,-272 266,-290 271,-305 270,-310 266,-326 261,-342 258,-348 245,-358 231,-368 193,-376 158,-383"/>
<polygon style="fill:black;stroke:black;" points="157.119,-379.607 148,-385 158.492,-386.471 157.119,-379.607"/>
<text text-anchor="middle" x="289" y="-305.5" style="font-family:Times New Roman;font-size:10.00;">suspend</text>
</g>
<!-- user_pending&#45;&gt;user_deleted -->
<g id="edge9" class="edge"><title>user_pending&#45;&gt;user_deleted</title>
<path style="fill:none;stroke:black;" d="M178,-196C179,-168 178,-119 171,-78 171,-75 170,-73 170,-70"/>
<polygon style="fill:black;stroke:black;" points="173.226,-68.5725 167,-60 166.521,-70.584 173.226,-68.5725"/>
<text text-anchor="middle" x="194" y="-125.5" style="font-family:Times New Roman;font-size:10.00;">delete</text>
</g>
<!-- user_pending&#45;&gt;user_active -->
<g id="edge5" class="edge"><title>user_pending&#45;&gt;user_active</title>
<path style="fill:none;stroke:black;" d="M155,-198C149,-192 142,-185 136,-178 130,-171 124,-162 119,-154"/>
<polygon style="fill:black;stroke:black;" points="122.268,-152.625 114,-146 116.332,-156.335 122.268,-152.625"/>
<text text-anchor="middle" x="158" y="-168.5" style="font-family:Times New Roman;font-size:10.00;">activate</text>
</g>
<!-- user_passive&#45;&gt;user_suspended -->
<g id="edge15" class="edge"><title>user_passive&#45;&gt;user_suspended</title>
<path style="fill:none;stroke:black;" d="M176,-320C162,-326 147,-334 134,-344 126,-351 118,-359 111,-368"/>
<polygon style="fill:black;stroke:black;" points="108.2,-365.9 105,-376 113.8,-370.1 108.2,-365.9"/>
<text text-anchor="middle" x="155" y="-348.5" style="font-family:Times New Roman;font-size:10.00;">suspend</text>
</g>
<!-- user_passive&#45;&gt;user_deleted -->
<g id="edge7" class="edge"><title>user_passive&#45;&gt;user_deleted</title>
<path style="fill:none;stroke:black;" d="M228,-291C233,-285 237,-279 239,-272 249,-240 243,-229 239,-196 234,-156 232,-145 213,-110 206,-95 194,-79 184,-67"/>
<polygon style="fill:black;stroke:black;" points="186.219,-64.221 177,-59 180.951,-68.8306 186.219,-64.221"/>
<text text-anchor="middle" x="252" y="-168.5" style="font-family:Times New Roman;font-size:10.00;">delete</text>
</g>
<!-- user_passive&#45;&gt;user_pending -->
<g id="edge3" class="edge"><title>user_passive&#45;&gt;user_pending</title>
<path style="fill:none;stroke:black;" d="M204,-290C200,-278 194,-263 189,-250"/>
<polygon style="fill:black;stroke:black;" points="191.964,-247.985 185,-240 185.464,-250.585 191.964,-247.985"/>
<text text-anchor="middle" x="217" y="-262.5" style="font-family:Times New Roman;font-size:10.00;">register</text>
</g>
</g>
</svg>
